<?xml version="1.0" encoding="UTF-8" standalone="no"?>
<svg
   xmlns:dc="http://purl.org/dc/elements/1.1/"
   xmlns:cc="http://creativecommons.org/ns#"
   xmlns:rdf="http://www.w3.org/1999/02/22-rdf-syntax-ns#"
   xmlns:svg="http://www.w3.org/2000/svg"
   xmlns="http://www.w3.org/2000/svg"
   xmlns:sodipodi="http://sodipodi.sourceforge.net/DTD/sodipodi-0.dtd"
   xmlns:inkscape="http://www.inkscape.org/namespaces/inkscape"
   version="1.1"
   id="Layer_1"
   x="0px"
   y="0px"
   viewBox="0 0 1413.1771 999.99998"
   xml:space="preserve"
   sodipodi:docname="youtube2.svg"
   width="1413.1771"
   height="1000"
   inkscape:version="1.0.2 (e86c870879, 2021-01-15, custom)"><metadata
   id="metadata11"><rdf:RDF><cc:Work
       rdf:about=""><dc:format>image/svg+xml</dc:format><dc:type
         rdf:resource="http://purl.org/dc/dcmitype/StillImage" /><dc:title></dc:title></cc:Work></rdf:RDF></metadata><defs
   id="defs9" /><sodipodi:namedview
   pagecolor="#ffffff"
   bordercolor="#666666"
   borderopacity="1"
   objecttolerance="10"
   gridtolerance="10"
   guidetolerance="10"
   inkscape:pageopacity="0"
   inkscape:pageshadow="2"
   inkscape:window-width="1920"
   inkscape:window-height="1017"
   id="namedview7"
   showgrid="false"
   fit-margin-top="0"
   fit-margin-left="0"
   fit-margin-right="0"
   fit-margin-bottom="0"
   inkscape:zoom="0.46095345"
   inkscape:cx="469.87966"
   inkscape:cy="564.11732"
   inkscape:window-x="-8"
   inkscape:window-y="-8"
   inkscape:window-maximized="1"
   inkscape:current-layer="Layer_1"
   inkscape:document-rotation="0"
   inkscape:pagecheckerboard="true" />
<g
   id="g4"
   transform="matrix(3.0654536,0,0,3.0654536,0,-206.59011)">
	<path
   style="fill:#f61c0d"
   d="M 365.257,67.393 H 95.744 C 42.866,67.393 0,110.259 0,163.137 v 134.728 c 0,52.878 42.866,95.744 95.744,95.744 h 269.513 c 52.878,0 95.744,-42.866 95.744,-95.744 V 163.137 c 0,-52.878 -42.866,-95.744 -95.744,-95.744 z m -64.751,169.663 -126.06,60.123 c -3.359,1.602 -7.239,-0.847 -7.239,-4.568 V 168.607 c 0,-3.774 3.982,-6.22 7.348,-4.514 l 126.06,63.881 c 3.748,1.899 3.683,7.274 -0.109,9.082 z"
   id="path2" />
</g>
<path
   style="fill:#000000;fill-opacity:0;stroke:#000000;stroke-width:2.16942"
   d="m 519.10059,700.70603 -4.7479,-4.42333 V 500.19248 304.10225 l 5.71611,-4.49629 c 3.14386,-2.47295 6.64849,-4.49628 7.78807,-4.49628 4.41593,0 393.47549,198.18321 397.05789,202.25749 5.18735,5.8996 4.76393,13.05524 -1.08471,18.33046 -5.63545,5.08295 -391.64762,189.43176 -396.65546,189.43176 -1.82935,0 -5.46265,-1.99051 -8.074,-4.42336 z"
   id="path8" /><g
   id="path10"
   style="opacity:1;fill:#800000"><path
     style="color:#000000;font-style:normal;font-variant:normal;font-weight:normal;font-stretch:normal;font-size:medium;line-height:normal;font-family:sans-serif;font-variant-ligatures:normal;font-variant-position:normal;font-variant-caps:normal;font-variant-numeric:normal;font-variant-alternates:normal;font-variant-east-asian:normal;font-feature-settings:normal;font-variation-settings:normal;text-indent:0;text-align:start;text-decoration:none;text-decoration-line:none;text-decoration-style:solid;text-decoration-color:#000000;letter-spacing:normal;word-spacing:normal;text-transform:none;writing-mode:lr-tb;direction:ltr;text-orientation:mixed;dominant-baseline:auto;baseline-shift:baseline;text-anchor:start;white-space:normal;shape-padding:0;shape-margin:0;inline-size:0;clip-rule:nonzero;display:inline;overflow:visible;visibility:visible;isolation:auto;mix-blend-mode:normal;color-interpolation:sRGB;color-interpolation-filters:linearRGB;solid-color:#000000;solid-opacity:1;vector-effect:none;fill:#800000;fill-opacity:0;fill-rule:nonzero;stroke:none;stroke-width:2.16942;stroke-linecap:butt;stroke-linejoin:miter;stroke-miterlimit:4;stroke-dasharray:none;stroke-dashoffset:0;stroke-opacity:1;color-rendering:auto;image-rendering:auto;shape-rendering:auto;text-rendering:auto;enable-background:accumulate;stop-color:#000000;stop-opacity:1"
     d="m 521.34365,699.58284 -4.82154,-3.37715 0.0682,-195.66682 0.0682,-195.66682 5.41802,-3.94502 5.41801,-3.94501 145.83061,73.747 c 264.05222,133.53206 259.95274,131.21164 249.78141,141.38296 -5.69908,5.69908 -390.24948,190.84799 -396.38727,190.84799 -0.30472,0 -2.72374,-1.51972 -5.37559,-3.37713 z"
     id="path13" /><path
     style="color:#000000;font-style:normal;font-variant:normal;font-weight:normal;font-stretch:normal;font-size:medium;line-height:normal;font-family:sans-serif;font-variant-ligatures:normal;font-variant-position:normal;font-variant-caps:normal;font-variant-numeric:normal;font-variant-alternates:normal;font-variant-east-asian:normal;font-feature-settings:normal;font-variation-settings:normal;text-indent:0;text-align:start;text-decoration:none;text-decoration-line:none;text-decoration-style:solid;text-decoration-color:#000000;letter-spacing:normal;word-spacing:normal;text-transform:none;writing-mode:lr-tb;direction:ltr;text-orientation:mixed;dominant-baseline:auto;baseline-shift:baseline;text-anchor:start;white-space:normal;shape-padding:0;shape-margin:0;inline-size:0;clip-rule:nonzero;display:inline;overflow:visible;visibility:visible;isolation:auto;mix-blend-mode:normal;color-interpolation:sRGB;color-interpolation-filters:linearRGB;solid-color:#000000;solid-opacity:1;vector-effect:none;fill:#800000;fill-opacity:1;fill-rule:nonzero;stroke:none;stroke-linecap:butt;stroke-linejoin:miter;stroke-miterlimit:4;stroke-dasharray:none;stroke-dashoffset:0;stroke-opacity:1;color-rendering:auto;image-rendering:auto;shape-rendering:auto;text-rendering:auto;enable-background:accumulate;stop-color:#000000;stop-opacity:1"
     d="m 527.39258,295.71484 -5.95508,4.33594 -5.86328,4.26953 -0.0684,196.21875 -0.0684,196.23047 5.2832,3.70117 0.28125,0.19727 h 0.0137 c 1.21925,0.84752 2.40377,1.64417 3.31836,2.21875 0.49795,0.31283 0.92354,0.56726 1.26563,0.75586 0.17104,0.0943 0.3194,0.17288 0.46484,0.23828 0.14545,0.0654 0.1654,0.16406 0.6543,0.16406 0.43674,0 0.58077,-0.0856 0.89258,-0.18554 0.31181,-0.0999 0.69465,-0.23824 1.16015,-0.41797 0.93102,-0.35947 2.1929,-0.88471 3.77735,-1.56641 3.1689,-1.36341 7.62101,-3.35588 13.18164,-5.89453 11.12126,-5.0773 26.6717,-12.33418 45.17578,-21.05859 37.00815,-17.44883 85.83197,-40.77072 134.64258,-64.27149 48.8106,-23.50077 97.60537,-47.17859 134.55859,-65.33984 18.47661,-9.08063 33.99252,-16.78276 45.07227,-22.39453 5.53987,-2.80589 9.96975,-5.08791 13.11328,-6.76368 1.57176,-0.83788 2.82229,-1.52423 3.73633,-2.05273 0.91403,-0.5285 1.38611,-0.76306 1.84375,-1.2207 1.25124,-1.25125 2.51412,-2.34666 3.22656,-3.81055 0.71244,-1.46389 0.5899,-3.32939 -0.70899,-5.18359 -2.59777,-3.70841 -9.42061,-8.43954 -24.80664,-17.14844 -30.77204,-17.4178 -95.74366,-50.2087 -227.76953,-116.97461 z m 0.20508,2.53516 145.23828,73.44727 c 132.02635,66.76615 197.03125,99.57989 227.67968,116.92773 15.32422,8.67392 22.07314,13.61579 24.09766,16.50586 1.01226,1.44504 0.96231,2.1106 0.53516,2.98828 -0.42715,0.87768 -1.51701,1.93498 -2.8086,3.22656 0.10145,-0.10145 -0.52065,0.37055 -1.39648,0.87696 -0.87583,0.50641 -2.1106,1.18242 -3.66992,2.01367 -3.11865,1.6625 -7.54164,3.94194 -13.07422,6.74414 -11.06517,5.60439 -26.57455,13.30429 -45.04688,22.38281 -36.94464,18.15704 -85.73832,41.83319 -134.54492,65.33203 -48.8066,23.49885 -97.62755,46.82093 -134.62695,64.26563 -18.4997,8.72234 -34.04448,15.97463 -45.15039,21.04492 -5.55296,2.53515 -9.99741,4.52544 -13.13867,5.87695 -1.57063,0.67576 -2.81663,1.19168 -3.70118,1.53321 -0.44227,0.17076 -0.79529,0.29884 -1.03906,0.37695 -0.13072,0.0419 -0.0727,0.0328 -0.125,0.043 -0.0567,-0.0286 -0.0982,-0.0469 -0.17969,-0.0918 -0.28005,-0.15439 -0.68182,-0.39603 -1.1582,-0.69531 -0.95276,-0.59856 -2.20864,-1.43398 -3.52148,-2.35352 l -0.28125,-0.19726 -4.07813,-2.85743 0.0684,-195.10156 0.0664,-195.11523 4.97265,-3.61914 z"
     id="path15" /></g><path
   style="fill:#ffffff;stroke:#000000;stroke-width:2.16942"
   d="m 522.48801,697.77062 c -3.566,-2.70698 -3.79648,-14.68051 -3.79648,-197.22488 V 306.20279 l 4.68247,-3.27973 c 4.42268,-3.09777 10.77181,-0.19627 114.43672,52.29667 220.23725,111.52181 278.41288,142.03391 284.27488,149.0972 1.93833,2.33554 1.07775,3.96104 -4.01823,7.58969 -11.267,8.02281 -387.71224,189.59863 -391.4535,188.81495 -0.18116,-0.038 -2.0378,-1.36587 -4.12586,-2.95095 z"
   id="path17" /></svg>
