<?xml version="1.0" encoding="UTF-8" standalone="no"?>
<svg
   xmlns:dc="http://purl.org/dc/elements/1.1/"
   xmlns:cc="http://creativecommons.org/ns#"
   xmlns:rdf="http://www.w3.org/1999/02/22-rdf-syntax-ns#"
   xmlns:svg="http://www.w3.org/2000/svg"
   xmlns="http://www.w3.org/2000/svg"
   xmlns:sodipodi="http://sodipodi.sourceforge.net/DTD/sodipodi-0.dtd"
   xmlns:inkscape="http://www.inkscape.org/namespaces/inkscape"
   viewBox="0 0 726.92955 767.20418"
   width="726.92957"
   height="767.20416"
   version="1.1"
   id="svg905"
   sodipodi:docname="006557.svg"
   inkscape:version="1.0.2 (e86c870879, 2021-01-15, custom)">
  <metadata
     id="metadata909">
    <rdf:RDF>
      <cc:Work
         rdf:about="">
        <dc:format>image/svg+xml</dc:format>
        <dc:type
           rdf:resource="http://purl.org/dc/dcmitype/StillImage" />
        <dc:title></dc:title>
      </cc:Work>
    </rdf:RDF>
  </metadata>
  <sodipodi:namedview
     pagecolor="#ffffff"
     bordercolor="#666666"
     borderopacity="1"
     objecttolerance="10"
     gridtolerance="10"
     guidetolerance="10"
     inkscape:pageopacity="0"
     inkscape:pageshadow="2"
     inkscape:window-width="1920"
     inkscape:window-height="1017"
     id="namedview907"
     showgrid="false"
     inkscape:zoom="0.73584458"
     inkscape:cx="337.54311"
     inkscape:cy="293.78789"
     inkscape:window-x="-8"
     inkscape:window-y="-8"
     inkscape:window-maximized="1"
     inkscape:current-layer="g901" />
  <defs
     id="defs845">
    <marker
       id="DistanceX"
       orient="auto"
       refX="0"
       refY="0"
       style="overflow:visible">
      <path
         d="M 3,-3 -3,3 M 0,-5 V 5"
         style="stroke:#000000;stroke-width:0.5"
         id="path833" />
    </marker>
    <pattern
       id="Hatch"
       patternUnits="userSpaceOnUse"
       width="8"
       height="8"
       x="0"
       y="0">
      <path
         d="M8 4 l-4,4"
         stroke="#000000"
         stroke-width="0.25"
         linecap="square"
         id="path836" />
      <path
         d="M6 2 l-4,4"
         stroke="#000000"
         stroke-width="0.25"
         linecap="square"
         id="path838" />
      <path
         d="M4 0 l-4,4"
         stroke="#000000"
         stroke-width="0.25"
         linecap="square"
         id="path840" />
    </pattern>
    <symbol
       id="$MODEL_SPACE" />
    <symbol
       id="$PAPER_SPACE" />
  </defs>
  <g
     inkscape:groupmode="layer"
     inkscape:label="0"
     id="g901"
     transform="translate(-543.10511,-982.2968)">
    <path
       d="m 576,1122.5197 v 621.312"
       style="fill:none;stroke:#000000;stroke-width:11.3386;stroke-miterlimit:4;stroke-dasharray:none"
       id="path847" />
    <path
       d="m 768,1122.5197 v 184.992"
       style="fill:none;stroke:#000000;stroke-width:11.3386;stroke-miterlimit:4;stroke-dasharray:none"
       id="path849" />
    <path
       d="m 576,1122.5197 h 480"
       style="fill:none;stroke:#000000;stroke-width:11.3386;stroke-miterlimit:4;stroke-dasharray:none;stroke-linecap:round"
       id="path851" />
    <path
       d="m 576,1277.8477 h 480"
       style="fill:none;stroke:#000000;stroke-width:11.3386;stroke-miterlimit:4;stroke-dasharray:none"
       id="path853" />
    <path
       d="m 576,1433.1757 h 480"
       style="fill:none;stroke:#000000;stroke-width:11.3386;stroke-miterlimit:4;stroke-dasharray:none"
       id="path855" />
    <path
       d="m 576,1588.5037 h 480"
       style="fill:none;stroke:#000000;stroke-width:11.3386;stroke-miterlimit:4;stroke-dasharray:none"
       id="path857" />
    <path
       d="m 576,1743.8317 h 480"
       style="fill:none;stroke:#000000;stroke-width:11.3386;stroke-miterlimit:4;stroke-dasharray:none;stroke-linecap:round"
       id="path859" />
    <path
       d="m 864,1122.5197 v 29.664"
       style="fill:none;stroke:#000000;stroke-width:11.3386;stroke-miterlimit:4;stroke-dasharray:none"
       id="path861" />
    <path
       d="m 1056,1122.5197 v 340.32"
       style="fill:none;stroke:#000000;stroke-width:11.3386;stroke-miterlimit:4;stroke-dasharray:none"
       id="path863" />
    <path
       d="m 960,1122.5197 v 29.664"
       style="fill:none;stroke:#000000;stroke-width:11.3386;stroke-miterlimit:4;stroke-dasharray:none"
       id="path865" />
    <path
       d="m 672,1122.5197 v 621.312"
       style="fill:none;stroke:#000000;stroke-width:11.3386;stroke-miterlimit:4;stroke-dasharray:none"
       id="path867" />
    <path
       d="m 548.7744,987.96609 54.4512,54.45121"
       style="fill:none;stroke:#000000;stroke-width:11.3386;stroke-linecap:round;stroke-miterlimit:4;stroke-dasharray:none"
       id="path869" />
    <path
       d="m 548.7744,1042.4173 54.4512,-54.45121"
       style="fill:none;stroke:#000000;stroke-width:11.3386;stroke-linecap:round;stroke-miterlimit:4;stroke-dasharray:none"
       id="path871" />
    <path
       d="m 644.7744,987.96609 54.4512,54.45121"
       style="fill:none;stroke:#000000;stroke-width:11.3386;stroke-linecap:round;stroke-miterlimit:4;stroke-dasharray:none"
       id="path873" />
    <path
       d="m 644.7744,1042.4173 54.4512,-54.45121"
       style="fill:none;stroke:#000000;stroke-width:11.3386;stroke-linecap:round;stroke-miterlimit:4;stroke-dasharray:none"
       id="path875" />
    <path
       d="m 816,1355.5117 a 48,48 0 1 0 -96,0 48,48 0 1 0 96,0 z"
       style="fill:none;stroke:#000000;stroke-width:11.3386;stroke-miterlimit:4;stroke-dasharray:none"
       id="path877" />
    <path
       d="m 768,1403.5117 v 340.32"
       style="fill:none;stroke:#000000;stroke-width:11.3386;stroke-miterlimit:4;stroke-dasharray:none"
       id="path879" />
    <path
       d="m 912,1200.1837 a 48,48 0 1 0 -96,0 48,48 0 1 0 96,0 z"
       style="fill:none;stroke:#000000;stroke-width:11.3386;stroke-miterlimit:4;stroke-dasharray:none"
       id="path881" />
    <path
       d="m 1008,1200.1837 a 48,48 0 1 0 -96,0 48,48 0 1 0 96,0 z"
       style="fill:none;stroke:#000000;stroke-width:11.3386;stroke-miterlimit:4;stroke-dasharray:none"
       id="path883" />
    <path
       d="m 1104,1510.8397 a 48,48 0 1 0 -96,0 48,48 0 1 0 96,0 z"
       style="fill:none;stroke:#000000;stroke-width:11.3386;stroke-miterlimit:4;stroke-dasharray:none"
       id="path885" />
    <path
       d="m 864,1248.1837 v 495.648"
       style="fill:none;stroke:#000000;stroke-width:11.3386;stroke-miterlimit:4;stroke-dasharray:none"
       id="path887" />
    <path
       d="m 960,1248.1837 v 495.648"
       style="fill:none;stroke:#000000;stroke-width:11.3386;stroke-miterlimit:4;stroke-dasharray:none"
       id="path889" />
    <path
       d="m 1056,1558.8397 v 184.992"
       style="fill:none;stroke:#000000;stroke-width:11.3386;stroke-miterlimit:4;stroke-dasharray:none"
       id="path891" />
    <path
       d="m 1180.8,1152.1837 h 86.4"
       style="fill:none;stroke:#000000;stroke-width:5.66929;stroke-linecap:round;stroke-miterlimit:4;stroke-dasharray:none"
       id="path893" />
    <path
       d="m 1180.8,1248.1837 h 86.4"
       style="fill:none;stroke:#000000;stroke-width:5.66929;stroke-linecap:round;stroke-miterlimit:4;stroke-dasharray:none"
       id="path895" />
    <path
       d="m 1195.2,1152.1837 28.8,96"
       style="fill:none;stroke:#000000;stroke-width:15.1181;stroke-miterlimit:4;stroke-dasharray:none"
       id="path897" />
    <path
       d="m 1224,1248.1837 28.8,-96"
       style="fill:none;stroke:#000000;stroke-width:9.44882;stroke-miterlimit:4;stroke-dasharray:none"
       id="path899" />
    <path
       style="fill:#000000;stroke:#000000;stroke-width:12.8408;stroke-linecap:round;stroke-linejoin:round;stroke-miterlimit:4;stroke-dasharray:none"
       d="m 210.37539,412.02521 c -26.45567,-10.4975 -35.29984,-44.67294 -16.95434,-65.51453 15.80814,-17.959 41.71122,-19.5336 59.14991,-3.59562 9.46937,8.65447 13.43725,17.61097 13.4559,30.37332 0.0165,11.27988 -3.07814,19.24127 -10.80259,27.79131 -11.04997,12.231 -29.97141,16.84884 -44.84888,10.94552 z"
       id="path917"
       transform="translate(543.10511,982.2968)" />
    <path
       style="fill:#000000;stroke:#000000;stroke-width:12.8408;stroke-linecap:round;stroke-linejoin:round;stroke-miterlimit:4;stroke-dasharray:none"
       d="m 309.91816,257.94545 c -19.04638,-5.34897 -32.49299,-25.00877 -30.24487,-44.2199 2.44484,-20.89218 19.73216,-36.89302 39.9638,-36.98978 12.85306,-0.0615 21.3304,3.38518 30.22415,12.28832 8.76999,8.77925 12.14356,16.79451 12.14356,28.85188 0,26.86168 -26.50713,47.25322 -52.08664,40.06948 z"
       id="path919"
       transform="translate(543.10511,982.2968)" />
    <path
       style="fill:#000000;stroke:#000000;stroke-width:12.8408;stroke-linecap:round;stroke-linejoin:round;stroke-miterlimit:4;stroke-dasharray:none"
       d="m 407.84935,258.40837 c -8.61347,-2.15334 -15.28675,-6.2948 -21.7798,-13.51663 -8.02147,-8.92181 -11.03235,-17.7356 -10.16865,-29.76688 2.50109,-34.84039 42.77452,-50.77981 69.34912,-27.447 6.86647,6.02884 12.04289,17.15229 12.85395,27.62148 2.05223,26.49009 -24.75335,49.48424 -50.25462,43.10903 z"
       id="path921"
       transform="translate(543.10511,982.2968)" />
    <path
       style="fill:#000000;stroke:#000000;stroke-width:12.8408;stroke-linecap:round;stroke-linejoin:round;stroke-miterlimit:4;stroke-dasharray:none"
       d="m 498.27621,567.41349 c -3.15825,-1.11831 -8.78422,-4.76827 -12.50214,-8.11101 -14.67541,-13.19445 -18.31565,-31.28876 -9.78204,-48.62298 17.45985,-35.46599 67.18157,-29.8462 77.05911,8.70959 2.41446,9.42456 1.77773,16.16755 -2.4719,26.17767 -3.50937,8.2664 -15.08916,18.99433 -23.65189,21.91195 -7.87426,2.68303 -20.97399,2.65321 -28.65114,-0.0652 z"
       id="path923"
       transform="translate(543.10511,982.2968)" />
  </g>
  <desc
     id="desc903">006557.dxf - scale = 25.400000, origin = (0.000000, 0.000000), method = file</desc>
</svg>
