<?xml version="1.0" encoding="UTF-8" standalone="no"?>
<svg
   xmlns:dc="http://purl.org/dc/elements/1.1/"
   xmlns:cc="http://creativecommons.org/ns#"
   xmlns:rdf="http://www.w3.org/1999/02/22-rdf-syntax-ns#"
   xmlns:svg="http://www.w3.org/2000/svg"
   xmlns="http://www.w3.org/2000/svg"
   xmlns:sodipodi="http://sodipodi.sourceforge.net/DTD/sodipodi-0.dtd"
   xmlns:inkscape="http://www.inkscape.org/namespaces/inkscape"
   viewBox="0 0 587.33855 773.57857"
   width="587.33856"
   height="773.57855"
   version="1.1"
   id="svg991"
   sodipodi:docname="330013.svg"
   inkscape:version="1.0.2 (e86c870879, 2021-01-15, custom)">
  <metadata
     id="metadata995">
    <rdf:RDF>
      <cc:Work
         rdf:about="">
        <dc:format>image/svg+xml</dc:format>
        <dc:type
           rdf:resource="http://purl.org/dc/dcmitype/StillImage" />
        <dc:title></dc:title>
      </cc:Work>
    </rdf:RDF>
  </metadata>
  <sodipodi:namedview
     pagecolor="#ffffff"
     bordercolor="#666666"
     borderopacity="1"
     objecttolerance="10"
     gridtolerance="10"
     guidetolerance="10"
     inkscape:pageopacity="0"
     inkscape:pageshadow="2"
     inkscape:window-width="1920"
     inkscape:window-height="1017"
     id="namedview993"
     showgrid="false"
     inkscape:zoom="0.73584458"
     inkscape:cx="385.49716"
     inkscape:cy="350.44462"
     inkscape:window-x="-8"
     inkscape:window-y="-8"
     inkscape:window-maximized="1"
     inkscape:current-layer="g987" />
  <defs
     id="defs941">
    <marker
       id="DistanceX"
       orient="auto"
       refX="0"
       refY="0"
       style="overflow:visible">
      <path
         d="M 3,-3 -3,3 M 0,-5 V 5"
         style="stroke:#000000;stroke-width:0.5"
         id="path929" />
    </marker>
    <pattern
       id="Hatch"
       patternUnits="userSpaceOnUse"
       width="8"
       height="8"
       x="0"
       y="0">
      <path
         d="M8 4 l-4,4"
         stroke="#000000"
         stroke-width="0.25"
         linecap="square"
         id="path932" />
      <path
         d="M6 2 l-4,4"
         stroke="#000000"
         stroke-width="0.25"
         linecap="square"
         id="path934" />
      <path
         d="M4 0 l-4,4"
         stroke="#000000"
         stroke-width="0.25"
         linecap="square"
         id="path936" />
    </pattern>
    <symbol
       id="$MODEL_SPACE" />
    <symbol
       id="$PAPER_SPACE" />
  </defs>
  <g
     inkscape:groupmode="layer"
     inkscape:label="0"
     id="g987"
     transform="translate(-522.33071,-975.92242)">
    <path
       d="m 576,1092.8557 v 369.984"
       style="fill:none;stroke:#000000;stroke-width:11.3386;stroke-miterlimit:4;stroke-dasharray:none"
       id="path943" />
    <path
       d="m 672,1122.5197 v 340.32"
       style="fill:none;stroke:#000000;stroke-width:11.3386;stroke-miterlimit:4;stroke-dasharray:none"
       id="path945" />
    <path
       d="m 768,1122.5197 v 621.312"
       style="fill:none;stroke:#000000;stroke-width:11.3386;stroke-miterlimit:4;stroke-dasharray:none"
       id="path947" />
    <path
       d="m 960,1122.5197 v 29.664"
       style="fill:none;stroke:#000000;stroke-width:11.3386;stroke-miterlimit:4;stroke-dasharray:none"
       id="path949" />
    <path
       d="m 576,1122.5197 h 480"
       style="fill:none;stroke:#000000;stroke-width:11.3386;stroke-miterlimit:4;stroke-dasharray:none"
       id="path951" />
    <path
       d="m 576,1277.8477 h 480"
       style="fill:none;stroke:#000000;stroke-width:11.3386;stroke-miterlimit:4;stroke-dasharray:none"
       id="path953" />
    <path
       d="m 576,1433.1757 h 480"
       style="fill:none;stroke:#000000;stroke-width:11.3386;stroke-miterlimit:4;stroke-dasharray:none"
       id="path955" />
    <path
       d="m 576,1588.5037 h 480"
       style="fill:none;stroke:#000000;stroke-width:11.3386;stroke-miterlimit:4;stroke-dasharray:none"
       id="path957" />
    <path
       d="m 576,1743.8317 h 480"
       style="fill:none;stroke:#000000;stroke-width:11.3386;stroke-miterlimit:4;stroke-dasharray:none"
       id="path959" />
    <path
       d="m 576,1092.8557 h 480"
       style="fill:none;stroke:#000000;stroke-width:11.3386;stroke-linecap:round;stroke-miterlimit:4;stroke-dasharray:none"
       id="path961" />
    <path
       d="m 1008,1200.1837 a 48,48 0 1 0 -96,0 48,48 0 1 0 96,0 z"
       style="fill:none;stroke:#000000;stroke-width:11.3386;stroke-miterlimit:4;stroke-dasharray:none"
       id="path963" />
    <path
       d="m 960,1248.1837 v 495.648"
       style="fill:none;stroke:#000000;stroke-width:11.3386;stroke-miterlimit:4;stroke-dasharray:none"
       id="path965" />
    <path
       d="m 864,1122.5197 v 621.312"
       style="fill:none;stroke:#000000;stroke-width:11.3386;stroke-miterlimit:4;stroke-dasharray:none"
       id="path967" />
    <path
       d="m 1056,1092.8557 v 369.984"
       style="fill:none;stroke:#000000;stroke-width:11.3386;stroke-miterlimit:4;stroke-dasharray:none"
       id="path969" />
    <path
       d="m 624,1510.8397 a 48,48 0 1 0 -96,0 48,48 0 1 0 96,0 z"
       style="fill:none;stroke:#000000;stroke-width:11.3386;stroke-miterlimit:4;stroke-dasharray:none"
       id="path971" />
    <path
       d="m 897.6,1015.1917 a 33.6,33.6 0 1 0 -67.2,0 33.6,33.6 0 1 0 67.2,0 z"
       style="fill:none;stroke:#000000;stroke-width:11.3386;stroke-miterlimit:4;stroke-dasharray:none"
       id="path973" />
    <path
       d="m 720,1510.8397 a 48,48 0 1 0 -96,0 48,48 0 1 0 96,0 z"
       style="fill:none;stroke:#000000;stroke-width:11.3386;stroke-miterlimit:4;stroke-dasharray:none"
       id="path975" />
    <path
       d="m 576,1558.8397 v 184.992"
       style="fill:none;stroke:#000000;stroke-width:11.3386;stroke-miterlimit:4;stroke-dasharray:none"
       id="path977" />
    <path
       d="m 672,1558.8397 v 184.992"
       style="fill:none;stroke:#000000;stroke-width:11.3386;stroke-miterlimit:4;stroke-dasharray:none"
       id="path979" />
    <path
       d="m 801.6,1015.1917 a 33.6,33.6 0 1 0 -67.2,0 33.6,33.6 0 1 0 67.2,0 z"
       style="fill:none;stroke:#000000;stroke-width:11.3386;stroke-miterlimit:4;stroke-dasharray:none"
       id="path981" />
    <path
       d="m 1104,1510.8397 a 48,48 0 1 0 -96,0 48,48 0 1 0 96,0 z"
       style="fill:none;stroke:#000000;stroke-width:11.3386;stroke-miterlimit:4;stroke-dasharray:none"
       id="path983" />
    <path
       d="m 1056,1558.8397 v 184.992"
       style="fill:none;stroke:#000000;stroke-width:11.3386;stroke-miterlimit:4;stroke-dasharray:none"
       id="path985" />
    <path
       style="fill:#000000;stroke:#000000;stroke-width:15.4089;stroke-linecap:round;stroke-miterlimit:4;stroke-dasharray:none"
       d="m 38.213761,573.2551 c -3.77204,-1.45146 -9.515537,-5.24174 -12.763326,-8.42283 -21.1526923,-20.71832 -15.881773,-54.24735 10.570016,-67.2373 6.376677,-3.13146 9.436103,-3.77035 17.884951,-3.73482 16.570016,0.0697 29.24294,7.90173 36.596241,22.61699 3.405014,6.81403 4.173238,10.01802 4.173238,17.40511 0,4.97955 -1.024881,12.0675 -2.277514,15.75099 -3.0974,9.10822 -15.016773,21.02759 -24.12499,24.12499 -8.851081,3.00996 -21.478118,2.7986 -30.058616,-0.50313 z"
       id="path1003"
       transform="translate(522.33071,975.92242)" />
    <path
       style="fill:#000000;stroke:#000000;stroke-width:15.4089;stroke-linecap:round;stroke-miterlimit:4;stroke-dasharray:none"
       d="m 131.73355,571.97787 c -31.13395,-15.74404 -31.03832,-58.32499 0.16713,-74.41561 9.48219,-4.88935 24.16912,-5.14776 34.12079,-0.60035 31.61738,14.44756 33.49819,57.80335 3.2224,74.2815 -5.88601,3.20357 -9.33332,4.05529 -18.15438,4.48536 -10.05897,0.49042 -11.5339,0.2046 -19.35594,-3.7509 z"
       id="path1005"
       transform="translate(522.33071,975.92242)" />
    <path
       style="fill:#000000;stroke:#000000;stroke-width:15.4089;stroke-linecap:round;stroke-miterlimit:4;stroke-dasharray:none"
       d="m 428.62375,264.78274 c -8.61347,-2.15333 -15.28675,-6.2948 -21.7798,-13.51663 -8.02147,-8.9218 -11.03235,-17.7356 -10.16865,-29.76688 2.50109,-34.84039 42.77452,-50.77981 69.34912,-27.44699 6.86647,6.02884 12.04289,17.15229 12.85395,27.62148 2.05223,26.49008 -24.75335,49.48423 -50.25462,43.10902 z"
       id="path1007"
       transform="translate(522.33071,975.92242)" />
    <path
       style="fill:#000000;stroke:#000000;stroke-width:15.4089;stroke-linecap:round;stroke-miterlimit:4;stroke-dasharray:none"
       d="m 519.05061,573.78787 c -3.15825,-1.11832 -8.78422,-4.76827 -12.50214,-8.11101 -14.67541,-13.19445 -18.31565,-31.28877 -9.78204,-48.62298 17.45985,-35.46599 67.18157,-29.84621 77.05911,8.70958 2.41446,9.42456 1.77773,16.16755 -2.4719,26.17767 -3.50937,8.26641 -15.08916,18.99433 -23.65189,21.91195 -7.87426,2.68303 -20.97399,2.65321 -28.65114,-0.0652 z"
       id="path1009"
       transform="translate(522.33071,975.92242)" />
    <path
       style="fill:#000000;stroke:#000000;stroke-width:15.4089;stroke-linecap:round;stroke-miterlimit:4;stroke-dasharray:none"
       d="m 59.341332,131.64842 v -8.15389 H 293.08634 526.83136 v 8.15389 8.1539 H 293.08634 59.341332 Z"
       id="path1011"
       transform="translate(522.33071,975.92242)" />
  </g>
  <desc
     id="desc989">Gsus4.dxf - scale = 25.400000, origin = (0.000000, 0.000000), method = file</desc>
</svg>
