<?xml version="1.0" encoding="UTF-8" standalone="no"?>
<svg
   xmlns:dc="http://purl.org/dc/elements/1.1/"
   xmlns:cc="http://creativecommons.org/ns#"
   xmlns:rdf="http://www.w3.org/1999/02/22-rdf-syntax-ns#"
   xmlns:svg="http://www.w3.org/2000/svg"
   xmlns="http://www.w3.org/2000/svg"
   xmlns:sodipodi="http://sodipodi.sourceforge.net/DTD/sodipodi-0.dtd"
   xmlns:inkscape="http://www.inkscape.org/namespaces/inkscape"
   viewBox="0 0 805.03935 1116.9499"
   width="805.03937"
   height="1116.9498"
   version="1.1"
   id="svg893"
   sodipodi:docname="Am.svg"
   inkscape:version="1.0.2 (e86c870879, 2021-01-15, custom)">
  <metadata
     id="metadata897">
    <rdf:RDF>
      <cc:Work
         rdf:about="">
        <dc:format>image/svg+xml</dc:format>
        <dc:type
           rdf:resource="http://purl.org/dc/dcmitype/StillImage" />
        <dc:title></dc:title>
      </cc:Work>
    </rdf:RDF>
  </metadata>
  <sodipodi:namedview
     pagecolor="#ffffff"
     bordercolor="#666666"
     borderopacity="1"
     objecttolerance="10"
     gridtolerance="10"
     guidetolerance="10"
     inkscape:pageopacity="0"
     inkscape:pageshadow="2"
     inkscape:window-width="1920"
     inkscape:window-height="1017"
     id="namedview895"
     showgrid="false"
     inkscape:zoom="0.7563342"
     inkscape:cx="402.51969"
     inkscape:cy="563.77362"
     inkscape:window-x="-8"
     inkscape:window-y="-8"
     inkscape:window-maximized="1"
     inkscape:current-layer="g889" />
  <defs
     id="defs845">
    <marker
       id="DistanceX"
       orient="auto"
       refX="0"
       refY="0"
       style="overflow:visible">
      <path
         d="M 3,-3 -3,3 M 0,-5 V 5"
         style="stroke:#000000;stroke-width:0.5"
         id="path833" />
    </marker>
    <pattern
       id="Hatch"
       patternUnits="userSpaceOnUse"
       width="8"
       height="8"
       x="0"
       y="0">
      <path
         d="M8 4 l-4,4"
         stroke="#000000"
         stroke-width="0.25"
         linecap="square"
         id="path836" />
      <path
         d="M6 2 l-4,4"
         stroke="#000000"
         stroke-width="0.25"
         linecap="square"
         id="path838" />
      <path
         d="M4 0 l-4,4"
         stroke="#000000"
         stroke-width="0.25"
         linecap="square"
         id="path840" />
    </pattern>
    <symbol
       id="$MODEL_SPACE" />
    <symbol
       id="$PAPER_SPACE" />
  </defs>
  <g
     inkscape:groupmode="layer"
     inkscape:label="0"
     id="g889"
     transform="translate(5.6692915,214.06049)">
    <path
       d="M 48.736013,-47.005387 V 897.22006"
       style="fill:none;stroke:#000000;stroke-width:11.3386;stroke-miterlimit:4;stroke-dasharray:none"
       id="path847" />
    <path
       d="M 327.22752,-3.97845 V 264.34811"
       style="fill:none;stroke:#000000;stroke-width:11.3386;stroke-miterlimit:4;stroke-dasharray:none"
       id="path849" />
    <path
       d="M 466.47327,-3.97845 V 264.34811"
       style="fill:none;stroke:#000000;stroke-width:11.3386;stroke-miterlimit:4;stroke-dasharray:none"
       id="path851" />
    <path
       d="M 48.736013,-3.97845 H 744.96477"
       style="fill:none;stroke:#000000;stroke-width:11.3386;stroke-miterlimit:4;stroke-dasharray:none"
       id="path853" />
    <path
       d="M 48.736013,221.32118 H 744.96477"
       style="fill:none;stroke:#000000;stroke-width:11.3386;stroke-miterlimit:4;stroke-dasharray:none"
       id="path855" />
    <path
       d="M 48.736013,446.6208 H 744.96477"
       style="fill:none;stroke:#000000;stroke-width:11.3386;stroke-miterlimit:4;stroke-dasharray:none"
       id="path857" />
    <path
       d="M 48.736013,671.92043 H 744.96477"
       style="fill:none;stroke:#000000;stroke-width:11.3386;stroke-miterlimit:4;stroke-dasharray:none"
       id="path859" />
    <path
       d="M 48.736013,897.22006 H 744.96477"
       style="fill:none;stroke:#000000;stroke-width:11.3386;stroke-miterlimit:4;stroke-dasharray:none"
       id="path861" />
    <path
       d="M 48.736013,-47.005387 H 744.96477"
       style="fill:none;stroke:#000000;stroke-width:11.3386;stroke-miterlimit:4;stroke-dasharray:none"
       id="path863" />
    <path
       d="m 396.85039,333.97099 a 69.622876,69.622876 0 1 0 -139.24575,0 69.622876,69.622876 0 1 0 139.24575,0 z"
       style="fill:none;stroke:#000000;stroke-width:11.3386;stroke-miterlimit:4;stroke-dasharray:none"
       id="path865" />
    <path
       d="m 675.3419,108.67136 a 69.622876,69.622876 0 1 0 -139.24575,0 69.622876,69.622876 0 1 0 139.24575,0 z"
       style="fill:none;stroke:#000000;stroke-width:11.3386;stroke-miterlimit:4;stroke-dasharray:none"
       id="path867" />
    <path
       d="M 605.71902,-3.97845 V 39.048487"
       style="fill:none;stroke:#000000;stroke-width:11.3386;stroke-miterlimit:4;stroke-dasharray:none"
       id="path869" />
    <path
       d="M 466.47327,403.59387 V 897.22006"
       style="fill:none;stroke:#000000;stroke-width:11.3386;stroke-miterlimit:4;stroke-dasharray:none"
       id="path871" />
    <path
       d="M 744.96477,-47.005387 V 897.22006"
       style="fill:none;stroke:#000000;stroke-width:11.3386;stroke-miterlimit:4;stroke-dasharray:none"
       id="path873" />
    <path
       d="m 536.09615,333.97099 a 69.62288,69.62288 0 1 0 -139.24576,0 69.62288,69.62288 0 1 0 139.24576,0 z"
       style="fill:none;stroke:#000000;stroke-width:11.3386;stroke-miterlimit:4;stroke-dasharray:none"
       id="path875" />
    <path
       d="M 327.22752,403.59387 V 897.22006"
       style="fill:none;stroke:#000000;stroke-width:11.3386;stroke-miterlimit:4;stroke-dasharray:none"
       id="path877" />
    <path
       d="M 187.98176,-3.97845 V 897.22006"
       style="fill:none;stroke:#000000;stroke-width:11.3386;stroke-miterlimit:4;stroke-dasharray:none"
       id="path879" />
    <path
       d="m 97.472027,-159.6552 a 48.736013,48.736013 0 1 0 -97.472027,0 48.736013,48.736013 0 1 0 97.472027,0 z"
       style="fill:none;stroke:#000000;stroke-width:11.3386;stroke-miterlimit:4;stroke-dasharray:none"
       id="path881" />
    <path
       d="m 793.70079,-159.6552 a 48.736015,48.736015 0 1 0 -97.47203,0 48.736015,48.736015 0 1 0 97.47203,0 z"
       style="fill:none;stroke:#000000;stroke-width:11.3386;stroke-miterlimit:4;stroke-dasharray:none"
       id="path883" />
    <path
       d="M 605.71902,178.29424 V 897.22006"
       style="fill:none;stroke:#000000;stroke-width:11.3386;stroke-miterlimit:4;stroke-dasharray:none"
       id="path885" />
    <path
       d="m 236.71778,-159.6552 a 48.736015,48.736015 0 1 0 -97.47203,0 48.736015,48.736015 0 1 0 97.47203,0 z"
       style="fill:none;stroke:#000000;stroke-width:11.3386;stroke-miterlimit:4;stroke-dasharray:none"
       id="path887" />
    <path
       style="fill:#000000;stroke:#000000;stroke-width:14.9915;stroke-miterlimit:4;stroke-dasharray:none"
       d="m 601.5058,385.14026 c -15.77296,-2.26772 -34.61043,-14.61872 -43.241,-28.35146 -22.77094,-36.23248 -4.56095,-82.73767 37.20069,-95.0042 34.36273,-10.09327 72.13296,14.7938 78.31925,51.60509 5.57609,33.18032 -19.69792,66.89941 -53.84314,71.83434 -5.04935,0.72976 -9.47811,1.26608 -9.84171,1.19181 -0.3636,-0.0743 -4.23093,-0.64828 -8.59409,-1.27558 z"
       id="path905"
       transform="translate(-5.6692915,-214.06049)" />
    <path
       style="fill:#000000;stroke:#000000;stroke-width:14.9915;stroke-miterlimit:4;stroke-dasharray:none"
       d="m 318.17313,609.31351 c -29.14711,-7.84535 -48.05123,-31.9714 -47.99078,-61.24745 0.0504,-24.39436 12.97979,-45.40559 34.59491,-56.21919 24.10389,-12.05869 51.04215,-8.09618 71.0803,10.45561 25.65725,23.75408 26.82703,62.74764 2.6575,88.58495 -15.8415,16.93461 -39.28585,24.0936 -60.34193,18.42608 z"
       id="path907"
       transform="translate(-5.6692915,-214.06049)" />
    <path
       style="fill:#000000;stroke:#000000;stroke-width:14.9915;stroke-miterlimit:4;stroke-dasharray:none"
       d="m 459.37287,609.92851 c -22.06393,-4.27718 -42.21518,-23.75709 -48.42938,-46.81598 -11.34943,-42.11401 28.09684,-85.08889 71.05555,-77.41174 31.02898,5.54518 52.7937,31.22461 52.858,62.36527 0.0823,39.86293 -36.08163,69.50079 -75.48417,61.86245 z"
       id="path909"
       transform="translate(-5.6692915,-214.06049)" />
  </g>
  <desc
     id="desc891">Am.dxf - scale = 36.842105, origin = (5.650000, -8.090000), method = auto</desc>
</svg>
