<?xml version="1.0" encoding="UTF-8" standalone="no"?>
<svg
   xmlns:dc="http://purl.org/dc/elements/1.1/"
   xmlns:cc="http://creativecommons.org/ns#"
   xmlns:rdf="http://www.w3.org/1999/02/22-rdf-syntax-ns#"
   xmlns:svg="http://www.w3.org/2000/svg"
   xmlns="http://www.w3.org/2000/svg"
   xmlns:sodipodi="http://sodipodi.sourceforge.net/DTD/sodipodi-0.dtd"
   xmlns:inkscape="http://www.inkscape.org/namespaces/inkscape"
   viewBox="0 0 542.4688 773.57857"
   width="542.46881"
   height="773.57855"
   version="1.1"
   id="svg1616"
   sodipodi:docname="C(triad).svg"
   inkscape:version="1.0.2 (e86c870879, 2021-01-15, custom)">
  <metadata
     id="metadata1620">
    <rdf:RDF>
      <cc:Work
         rdf:about="">
        <dc:format>image/svg+xml</dc:format>
        <dc:type
           rdf:resource="http://purl.org/dc/dcmitype/StillImage" />
        <dc:title></dc:title>
      </cc:Work>
    </rdf:RDF>
  </metadata>
  <sodipodi:namedview
     pagecolor="#ffffff"
     bordercolor="#666666"
     borderopacity="1"
     objecttolerance="10"
     gridtolerance="10"
     guidetolerance="10"
     inkscape:pageopacity="0"
     inkscape:pageshadow="2"
     inkscape:window-width="1920"
     inkscape:window-height="1017"
     id="namedview1618"
     showgrid="false"
     inkscape:zoom="0.7563342"
     inkscape:cx="291.04419"
     inkscape:cy="422.26902"
     inkscape:window-x="-8"
     inkscape:window-y="-8"
     inkscape:window-maximized="1"
     inkscape:current-layer="g1612" />
  <defs
     id="defs1564">
    <marker
       id="DistanceX"
       orient="auto"
       refX="0"
       refY="0"
       style="overflow:visible">
      <path
         d="M 3,-3 -3,3 M 0,-5 V 5"
         style="stroke:#000000;stroke-width:0.5"
         id="path1552" />
    </marker>
    <pattern
       id="Hatch"
       patternUnits="userSpaceOnUse"
       width="8"
       height="8"
       x="0"
       y="0">
      <path
         d="M8 4 l-4,4"
         stroke="#000000"
         stroke-width="0.25"
         linecap="square"
         id="path1555" />
      <path
         d="M6 2 l-4,4"
         stroke="#000000"
         stroke-width="0.25"
         linecap="square"
         id="path1557" />
      <path
         d="M4 0 l-4,4"
         stroke="#000000"
         stroke-width="0.25"
         linecap="square"
         id="path1559" />
    </pattern>
    <symbol
       id="$MODEL_SPACE" />
    <symbol
       id="$PAPER_SPACE" />
  </defs>
  <g
     inkscape:groupmode="layer"
     inkscape:label="0"
     id="g1612"
     transform="translate(-544.76561,-975.92242)">
    <path
       d="m 576,1092.8557 v 650.976"
       style="fill:none;stroke:#000000;stroke-width:11.3386;stroke-miterlimit:4;stroke-dasharray:none"
       id="path1566" />
    <path
       d="m 672,1122.5197 v 340.32"
       style="fill:none;stroke:#000000;stroke-width:11.3386;stroke-miterlimit:4;stroke-dasharray:none"
       id="path1568" />
    <path
       d="m 768,1122.5197 v 184.992"
       style="fill:none;stroke:#000000;stroke-width:11.3386;stroke-miterlimit:4;stroke-dasharray:none"
       id="path1570" />
    <path
       d="m 864,1122.5197 v 621.312"
       style="fill:none;stroke:#000000;stroke-width:11.3386;stroke-miterlimit:4;stroke-dasharray:none"
       id="path1572" />
    <path
       d="m 1056,1092.8557 v 650.976"
       style="fill:none;stroke:#000000;stroke-width:11.3386;stroke-miterlimit:4;stroke-dasharray:none"
       id="path1574" />
    <path
       d="m 576,1122.5197 h 480"
       style="fill:none;stroke:#000000;stroke-width:11.3386;stroke-miterlimit:4;stroke-dasharray:none"
       id="path1576" />
    <path
       d="m 576,1277.8477 h 480"
       style="fill:none;stroke:#000000;stroke-width:11.3386;stroke-miterlimit:4;stroke-dasharray:none"
       id="path1578" />
    <path
       d="m 576,1433.1757 h 480"
       style="fill:none;stroke:#000000;stroke-width:11.3386;stroke-miterlimit:4;stroke-dasharray:none"
       id="path1580" />
    <path
       d="m 576,1588.5037 h 480"
       style="fill:none;stroke:#000000;stroke-width:11.3386;stroke-miterlimit:4;stroke-dasharray:none"
       id="path1582" />
    <path
       d="m 576,1743.8317 h 480"
       style="fill:none;stroke:#000000;stroke-width:11.3386;stroke-miterlimit:4;stroke-dasharray:none"
       id="path1584" />
    <path
       d="m 576,1092.8557 h 480"
       style="fill:none;stroke:#000000;stroke-width:11.3386;stroke-miterlimit:4;stroke-dasharray:none"
       id="path1586" />
    <path
       d="m 816,1355.5117 a 48,48 0 1 0 -96,0 48,48 0 1 0 96,0 z"
       style="fill:none;stroke:#000000;stroke-width:11.3386;stroke-miterlimit:4;stroke-dasharray:none"
       id="path1588" />
    <path
       d="m 720,1510.8397 a 48,48 0 1 0 -96,0 48,48 0 1 0 96,0 z"
       style="fill:none;stroke:#000000;stroke-width:11.3386;stroke-miterlimit:4;stroke-dasharray:none"
       id="path1590" />
    <path
       d="m 672,1558.8397 v 184.992"
       style="fill:none;stroke:#000000;stroke-width:11.3386;stroke-miterlimit:4;stroke-dasharray:none"
       id="path1592" />
    <path
       d="m 768,1403.5117 v 340.32"
       style="fill:none;stroke:#000000;stroke-width:11.3386;stroke-miterlimit:4;stroke-dasharray:none"
       id="path1594" />
    <path
       d="m 960,1122.5197 v 621.312"
       style="fill:none;stroke:#000000;stroke-width:11.3386;stroke-miterlimit:4;stroke-dasharray:none"
       id="path1596" />
    <path
       d="m 897.6,1015.1917 a 33.6,33.6 0 1 0 -67.2,0 33.6,33.6 0 1 0 67.2,0 z"
       style="fill:none;stroke:#000000;stroke-width:11.3386;stroke-miterlimit:4;stroke-dasharray:none"
       id="path1598" />
    <path
       d="m 548.7744,987.96609 54.4512,54.45121"
       style="fill:none;stroke:#000000;stroke-width:11.3386;stroke-miterlimit:4;stroke-dasharray:none"
       id="path1600" />
    <path
       d="m 548.7744,1042.4173 54.4512,-54.45121"
       style="fill:none;stroke:#000000;stroke-width:11.3386;stroke-miterlimit:4;stroke-dasharray:none"
       id="path1602" />
    <path
       d="m 932.7744,987.96609 54.4512,54.45121"
       style="fill:none;stroke:#000000;stroke-width:11.3386;stroke-miterlimit:4;stroke-dasharray:none"
       id="path1604" />
    <path
       d="m 932.7744,1042.4173 54.4512,-54.45121"
       style="fill:none;stroke:#000000;stroke-width:11.3386;stroke-miterlimit:4;stroke-dasharray:none"
       id="path1606" />
    <path
       d="m 1028.7744,987.96609 54.4512,54.45121"
       style="fill:none;stroke:#000000;stroke-width:11.3386;stroke-miterlimit:4;stroke-dasharray:none"
       id="path1608" />
    <path
       d="m 1028.7744,1042.4173 54.4512,-54.45121"
       style="fill:none;stroke:#000000;stroke-width:11.3386;stroke-miterlimit:4;stroke-dasharray:none"
       id="path1610" />
    <path
       style="fill:#000000;stroke:#000000;stroke-width:14.9915;stroke-miterlimit:4;stroke-dasharray:none"
       d="m 117.74692,575.22247 c -12.68026,-3.56127 -21.888454,-10.97101 -28.043137,-22.56602 -4.254172,-8.01459 -4.189271,-26.69397 0.123167,-35.44907 6.748803,-13.70141 19.8168,-22.44609 34.84427,-23.31665 29.98733,-1.73721 51.26393,26.6149 41.49434,55.29325 -6.3512,18.64378 -29.81653,31.26293 -48.41864,26.03849 z"
       id="path2189"
       transform="translate(544.76561,975.92242)" />
    <path
       style="fill:#000000;stroke:#000000;stroke-width:14.9915;stroke-miterlimit:4;stroke-dasharray:none"
       d="m 208.3087,418.30723 c -9.85141,-3.90759 -16.97215,-10.66198 -21.9907,-20.85933 -8.08214,-16.42234 -5.07797,-34.16933 7.95036,-46.96631 8.55203,-8.40017 17.06008,-11.98211 28.70924,-12.08678 7.94291,-0.0714 10.57081,0.55179 18.23668,4.32451 30.97825,15.24578 31.12211,58.01646 0.24865,73.93065 -9.11903,4.70054 -23.65054,5.42692 -33.15423,1.65726 z"
       id="path2191"
       transform="translate(544.76561,975.92242)" />
    <path
       style="fill:#000000;stroke:#000000;stroke-width:14.9915;stroke-miterlimit:4;stroke-dasharray:none"
       d="m 37.188156,132.05339 v -8.59408 H 271.21169 505.23522 v 8.59408 8.59409 H 271.21169 37.188156 Z"
       id="path2193"
       transform="translate(544.76561,975.92242)" />
  </g>
  <desc
     id="desc1614">C(triad).dxf - scale = 25.400000, origin = (0.000000, 0.000000), method = file</desc>
</svg>
