<?xml version="1.0" encoding="UTF-8" standalone="no"?>
<svg
   xmlns:dc="http://purl.org/dc/elements/1.1/"
   xmlns:cc="http://creativecommons.org/ns#"
   xmlns:rdf="http://www.w3.org/1999/02/22-rdf-syntax-ns#"
   xmlns:svg="http://www.w3.org/2000/svg"
   xmlns="http://www.w3.org/2000/svg"
   xmlns:xlink="http://www.w3.org/1999/xlink"
   xmlns:sodipodi="http://sodipodi.sourceforge.net/DTD/sodipodi-0.dtd"
   xmlns:inkscape="http://www.inkscape.org/namespaces/inkscape"
   width="8.5in"
   height="14in"
   viewBox="0 0 215.9 355.6"
   version="1.1"
   id="svg8"
   inkscape:version="1.0.2 (e86c870879, 2021-01-15, custom)"
   sodipodi:docname="D.svg">
  <defs
     id="defs2">
    <marker
       id="DistanceX"
       orient="auto"
       refX="0"
       refY="0"
       style="overflow:visible">
      <path
         d="M 3,-3 -3,3 M 0,-5 V 5"
         style="stroke:#000000;stroke-width:0.5"
         id="path10" />
    </marker>
    <pattern
       id="Hatch"
       patternUnits="userSpaceOnUse"
       width="8"
       height="8"
       x="0"
       y="0">
      <path
         d="M8 4 l-4,4"
         stroke="#000000"
         stroke-width="0.25"
         linecap="square"
         id="path13" />
      <path
         d="M6 2 l-4,4"
         stroke="#000000"
         stroke-width="0.25"
         linecap="square"
         id="path15" />
      <path
         d="M4 0 l-4,4"
         stroke="#000000"
         stroke-width="0.25"
         linecap="square"
         id="path17" />
    </pattern>
    <symbol
       id="$MODEL_SPACE" />
    <symbol
       id="$PAPER_SPACE" />
    <symbol
       id="*U1" />
    <symbol
       id="*U2" />
    <symbol
       id="*U3" />
    <symbol
       id="*U4" />
  </defs>
  <sodipodi:namedview
     id="base"
     pagecolor="#ffffff"
     bordercolor="#666666"
     borderopacity="1.0"
     inkscape:pageopacity="0.0"
     inkscape:pageshadow="2"
     inkscape:zoom="0.35"
     inkscape:cx="837.14286"
     inkscape:cy="445.71429"
     inkscape:document-units="mm"
     inkscape:current-layer="layer1"
     inkscape:document-rotation="0"
     showgrid="false"
     inkscape:window-width="1346"
     inkscape:window-height="1040"
     inkscape:window-x="182"
     inkscape:window-y="0"
     inkscape:window-maximized="0"
     units="in" />
  <metadata
     id="metadata5">
    <rdf:RDF>
      <cc:Work
         rdf:about="">
        <dc:format>image/svg+xml</dc:format>
        <dc:type
           rdf:resource="http://purl.org/dc/dcmitype/StillImage" />
        <dc:title></dc:title>
      </cc:Work>
    </rdf:RDF>
  </metadata>
  <g
     inkscape:label="Layer 1"
     inkscape:groupmode="layer"
     id="layer1">
    <g
       inkscape:label="0"
       id="g468"
       transform="matrix(0.26458333,0,0,0.26458333,1.5699134,57.05704)"
       style="fill:#000000">
      <path
         d="m 729.13018,286.9369 4.26546,0.61328"
         style="fill:#000000;stroke:#000000;stroke-linecap:round"
         id="path28" />
      <path
         d="m 716.25585,287.55018 12.87433,-0.61328"
         style="fill:#000000;stroke:#000000;stroke-linecap:round"
         id="path30" />
      <path
         d="m 711.22279,288.77119 5.03306,-1.22101"
         style="fill:#000000;stroke:#000000;stroke-linecap:round"
         id="path32" />
      <path
         d="m 733.39564,287.55018 8.49228,1.22101"
         style="fill:#000000;stroke:#000000;stroke-linecap:round"
         id="path34" />
      <path
         d="m 703.73023,290.58886 7.49256,-1.81767"
         style="fill:#000000;stroke:#000000;stroke-linecap:round"
         id="path36" />
      <path
         d="m 741.88792,288.77119 5.25183,1.81767"
         style="fill:#000000;stroke:#000000;stroke-linecap:round"
         id="path38" />
      <path
         d="m 698.4796,292.98674 5.25063,-2.39788"
         style="fill:#000000;stroke:#000000;stroke-linecap:round"
         id="path40" />
      <path
         d="m 747.13975,290.58886 6.92822,2.39788"
         style="fill:#000000;stroke:#000000;stroke-linecap:round"
         id="path42" />
      <path
         d="m 692.00605,295.94312 6.47355,-2.95638"
         style="fill:#000000;stroke:#000000;stroke-linecap:round"
         id="path44" />
      <path
         d="m 754.06797,292.98674 5.12059,2.95638"
         style="fill:#000000;stroke:#000000;stroke-linecap:round"
         id="path46" />
      <path
         d="m 687.10771,299.43121 4.89834,-3.48809"
         style="fill:#000000;stroke:#000000;stroke-linecap:round"
         id="path48" />
      <path
         d="m 759.18856,295.94312 6.04156,3.48809"
         style="fill:#000000;stroke:#000000;stroke-linecap:round"
         id="path50" />
      <path
         d="m 681.50703,303.41943 5.60068,-3.98822"
         style="fill:#000000;stroke:#000000;stroke-linecap:round"
         id="path52" />
      <path
         d="m 765.23012,299.43121 4.60265,3.98822"
         style="fill:#000000;stroke:#000000;stroke-linecap:round"
         id="path54" />
      <path
         d="m 677.26184,307.87166 4.24519,-4.45223"
         style="fill:#000000;stroke:#000000;stroke-linecap:round"
         id="path56" />
      <path
         d="m 769.83277,303.41943 5.13815,4.45223"
         style="fill:#000000;stroke:#000000;stroke-linecap:round"
         id="path58" />
      <path
         d="m 672.61265,312.74759 4.64919,-4.87593"
         style="fill:#000000;stroke:#000000;stroke-linecap:round"
         id="path60" />
      <path
         d="m 774.97092,307.87166 3.83447,4.87593"
         style="fill:#000000;stroke:#000000;stroke-linecap:round"
         id="path62" />
      <path
         d="m 669.23517,318.00305 3.37748,-5.25546"
         style="fill:#000000;stroke:#000000;stroke-linecap:round"
         id="path64" />
      <path
         d="m 778.80539,312.74759 4.13294,5.25546"
         style="fill:#000000;stroke:#000000;stroke-linecap:round"
         id="path66" />
      <path
         d="m 665.64437,323.59045 3.5908,-5.5874"
         style="fill:#000000;stroke:#000000;stroke-linecap:round"
         id="path68" />
      <path
         d="m 782.93833,318.00305 2.88051,5.5874"
         style="fill:#000000;stroke:#000000;stroke-linecap:round"
         id="path70" />
      <path
         d="m 663.29488,329.45919 2.34949,-5.86874"
         style="fill:#000000;stroke:#000000;stroke-linecap:round"
         id="path72" />
      <path
         d="m 785.81884,323.59045 3.02554,5.86874"
         style="fill:#000000;stroke:#000000;stroke-linecap:round"
         id="path74" />
      <path
         d="m 660.85403,335.55612 2.44085,-6.09693"
         style="fill:#000000;stroke:#000000;stroke-linecap:round"
         id="path76" />
      <path
         d="m 788.84438,329.45919 1.79022,6.09693"
         style="fill:#000000;stroke:#000000;stroke-linecap:round"
         id="path78" />
      <path
         d="m 659.64561,341.82603 1.20842,-6.26991"
         style="fill:#000000;stroke:#000000;stroke-linecap:round"
         id="path80" />
      <path
         d="m 790.6346,335.55612 1.84101,6.26991"
         style="fill:#000000;stroke:#000000;stroke-linecap:round"
         id="path82" />
      <path
         d="m 658.41479,348.21214 1.23082,-6.38611"
         style="fill:#000000;stroke:#000000;stroke-linecap:round"
         id="path84" />
      <path
         d="m 792.47561,341.82603 0.6098,6.38611"
         style="fill:#000000;stroke:#000000;stroke-linecap:round"
         id="path86" />
      <path
         d="m 658.41479,354.6566 v -6.44446"
         style="fill:#000000;stroke:#000000;stroke-linecap:round"
         id="path88" />
      <path
         d="m 793.08541,348.21214 0.61538,6.44446"
         style="fill:#000000;stroke:#000000;stroke-linecap:round"
         id="path90" />
      <path
         d="M 658.41479,361.10107 V 354.6566"
         style="fill:#000000;stroke:#000000;stroke-linecap:round"
         id="path92" />
      <path
         d="m 793.70079,354.6566 -0.61538,6.44447"
         style="fill:#000000;stroke:#000000;stroke-linecap:round"
         id="path94" />
      <path
         d="m 659.64561,367.48717 -1.23082,-6.3861"
         style="fill:#000000;stroke:#000000;stroke-linecap:round"
         id="path96" />
      <path
         d="m 793.08541,361.10107 -0.6098,6.3861"
         style="fill:#000000;stroke:#000000;stroke-linecap:round"
         id="path98" />
      <path
         d="m 660.85403,373.75708 -1.20842,-6.26991"
         style="fill:#000000;stroke:#000000;stroke-linecap:round"
         id="path100" />
      <path
         d="m 792.47561,367.48717 -1.84101,6.26991"
         style="fill:#000000;stroke:#000000;stroke-linecap:round"
         id="path102" />
      <path
         d="m 663.29488,379.85401 -2.44085,-6.09693"
         style="fill:#000000;stroke:#000000;stroke-linecap:round"
         id="path104" />
      <path
         d="m 790.6346,373.75708 -1.79022,6.09693"
         style="fill:#000000;stroke:#000000;stroke-linecap:round"
         id="path106" />
      <path
         d="m 665.64437,385.72275 -2.34949,-5.86874"
         style="fill:#000000;stroke:#000000;stroke-linecap:round"
         id="path108" />
      <path
         d="m 788.84438,379.85401 -3.02554,5.86874"
         style="fill:#000000;stroke:#000000;stroke-linecap:round"
         id="path110" />
      <path
         d="m 669.23517,391.31015 -3.5908,-5.5874"
         style="fill:#000000;stroke:#000000;stroke-linecap:round"
         id="path112" />
      <path
         d="m 785.81884,385.72275 -2.88051,5.5874"
         style="fill:#000000;stroke:#000000;stroke-linecap:round"
         id="path114" />
      <path
         d="m 672.61265,396.56561 -3.37748,-5.25546"
         style="fill:#000000;stroke:#000000;stroke-linecap:round"
         id="path116" />
      <path
         d="m 782.93833,391.31015 -4.13294,5.25546"
         style="fill:#000000;stroke:#000000;stroke-linecap:round"
         id="path118" />
      <path
         d="m 677.26184,401.44154 -4.64919,-4.87593"
         style="fill:#000000;stroke:#000000;stroke-linecap:round"
         id="path120" />
      <path
         d="m 778.80539,396.56561 -3.83447,4.87593"
         style="fill:#000000;stroke:#000000;stroke-linecap:round"
         id="path122" />
      <path
         d="m 681.50703,405.89377 -4.24519,-4.45223"
         style="fill:#000000;stroke:#000000;stroke-linecap:round"
         id="path124" />
      <path
         d="m 774.97092,401.44154 -5.13815,4.45223"
         style="fill:#000000;stroke:#000000;stroke-linecap:round"
         id="path126" />
      <path
         d="m 687.10771,409.882 -5.60068,-3.98823"
         style="fill:#000000;stroke:#000000;stroke-linecap:round"
         id="path128" />
      <path
         d="m 769.83277,405.89377 -4.60265,3.98823"
         style="fill:#000000;stroke:#000000;stroke-linecap:round"
         id="path130" />
      <path
         d="M 692.00605,413.37009 687.10771,409.882"
         style="fill:#000000;stroke:#000000;stroke-linecap:round"
         id="path132" />
      <path
         d="m 765.23012,409.882 -6.04156,3.48809"
         style="fill:#000000;stroke:#000000;stroke-linecap:round"
         id="path134" />
      <path
         d="m 698.4796,416.32646 -6.47355,-2.95637"
         style="fill:#000000;stroke:#000000;stroke-linecap:round"
         id="path136" />
      <path
         d="m 759.18856,413.37009 -5.12059,2.95637"
         style="fill:#000000;stroke:#000000;stroke-linecap:round"
         id="path138" />
      <path
         d="m 703.73023,418.72434 -5.25063,-2.39788"
         style="fill:#000000;stroke:#000000;stroke-linecap:round"
         id="path140" />
      <path
         d="m 754.06797,416.32646 -6.92822,2.39788"
         style="fill:#000000;stroke:#000000;stroke-linecap:round"
         id="path142" />
      <path
         d="m 711.22279,420.54202 -7.49256,-1.81768"
         style="fill:#000000;stroke:#000000;stroke-linecap:round"
         id="path144" />
      <path
         d="m 747.13975,418.72434 -5.25183,1.81768"
         style="fill:#000000;stroke:#000000;stroke-linecap:round"
         id="path146" />
      <path
         d="m 733.39564,421.76303 -4.26546,0.61327"
         style="fill:#000000;stroke:#000000;stroke-linecap:round"
         id="path148" />
      <path
         d="m 729.13018,422.3763 -12.87433,-0.61327"
         style="fill:#000000;stroke:#000000;stroke-linecap:round"
         id="path150" />
      <path
         d="m 716.25585,421.76303 -5.03306,-1.22101"
         style="fill:#000000;stroke:#000000;stroke-linecap:round"
         id="path152" />
      <path
         d="m 741.88792,420.54202 -8.49228,1.22101"
         style="fill:#000000;stroke:#000000;stroke-linecap:round"
         id="path154" />
      <path
         d="m 457.94421,286.9369 4.26545,0.61328"
         style="fill:#000000;stroke:#000000;stroke-linecap:round"
         id="path156" />
      <path
         d="m 445.06987,287.55018 12.87434,-0.61328"
         style="fill:#000000;stroke:#000000;stroke-linecap:round"
         id="path158" />
      <path
         d="m 440.03682,288.77119 5.03305,-1.22101"
         style="fill:#000000;stroke:#000000;stroke-linecap:round"
         id="path160" />
      <path
         d="m 462.20966,287.55018 8.49229,1.22101"
         style="fill:#000000;stroke:#000000;stroke-linecap:round"
         id="path162" />
      <path
         d="m 432.54426,290.58886 7.49256,-1.81767"
         style="fill:#000000;stroke:#000000;stroke-linecap:round"
         id="path164" />
      <path
         d="m 470.70195,288.77119 5.25182,1.81767"
         style="fill:#000000;stroke:#000000;stroke-linecap:round"
         id="path166" />
      <path
         d="m 427.29363,292.98674 5.25063,-2.39788"
         style="fill:#000000;stroke:#000000;stroke-linecap:round"
         id="path168" />
      <path
         d="m 475.95377,290.58886 6.92823,2.39788"
         style="fill:#000000;stroke:#000000;stroke-linecap:round"
         id="path170" />
      <path
         d="m 420.82007,295.94312 6.47356,-2.95638"
         style="fill:#000000;stroke:#000000;stroke-linecap:round"
         id="path172" />
      <path
         d="m 482.882,292.98674 5.12059,2.95638"
         style="fill:#000000;stroke:#000000;stroke-linecap:round"
         id="path174" />
      <path
         d="m 415.92173,299.43121 4.89834,-3.48809"
         style="fill:#000000;stroke:#000000;stroke-linecap:round"
         id="path176" />
      <path
         d="m 488.00259,295.94312 6.04155,3.48809"
         style="fill:#000000;stroke:#000000;stroke-linecap:round"
         id="path178" />
      <path
         d="m 410.32106,303.41943 5.60067,-3.98822"
         style="fill:#000000;stroke:#000000;stroke-linecap:round"
         id="path180" />
      <path
         d="m 494.04414,299.43121 4.60266,3.98822"
         style="fill:#000000;stroke:#000000;stroke-linecap:round"
         id="path182" />
      <path
         d="m 406.07586,307.87166 4.2452,-4.45223"
         style="fill:#000000;stroke:#000000;stroke-linecap:round"
         id="path184" />
      <path
         d="m 498.6468,303.41943 5.13815,4.45223"
         style="fill:#000000;stroke:#000000;stroke-linecap:round"
         id="path186" />
      <path
         d="m 401.42668,312.74759 4.64918,-4.87593"
         style="fill:#000000;stroke:#000000;stroke-linecap:round"
         id="path188" />
      <path
         d="m 503.78495,307.87166 3.83447,4.87593"
         style="fill:#000000;stroke:#000000;stroke-linecap:round"
         id="path190" />
      <path
         d="m 398.0492,318.00305 3.37748,-5.25546"
         style="fill:#000000;stroke:#000000;stroke-linecap:round"
         id="path192" />
      <path
         d="m 507.61942,312.74759 4.13294,5.25546"
         style="fill:#000000;stroke:#000000;stroke-linecap:round"
         id="path194" />
      <path
         d="m 394.45839,323.59045 3.59081,-5.5874"
         style="fill:#000000;stroke:#000000;stroke-linecap:round"
         id="path196" />
      <path
         d="m 511.75236,318.00305 2.8805,5.5874"
         style="fill:#000000;stroke:#000000;stroke-linecap:round"
         id="path198" />
      <path
         d="m 392.1089,329.45919 2.34949,-5.86874"
         style="fill:#000000;stroke:#000000;stroke-linecap:round"
         id="path200" />
      <path
         d="m 514.63286,323.59045 3.02555,5.86874"
         style="fill:#000000;stroke:#000000;stroke-linecap:round"
         id="path202" />
      <path
         d="m 389.66806,335.55612 2.44084,-6.09693"
         style="fill:#000000;stroke:#000000;stroke-linecap:round"
         id="path204" />
      <path
         d="m 517.65841,329.45919 1.79022,6.09693"
         style="fill:#000000;stroke:#000000;stroke-linecap:round"
         id="path206" />
      <path
         d="m 388.45963,341.82603 1.20843,-6.26991"
         style="fill:#000000;stroke:#000000;stroke-linecap:round"
         id="path208" />
      <path
         d="m 519.44863,335.55612 1.84101,6.26991"
         style="fill:#000000;stroke:#000000;stroke-linecap:round"
         id="path210" />
      <path
         d="m 387.22881,348.21214 1.23082,-6.38611"
         style="fill:#000000;stroke:#000000;stroke-linecap:round"
         id="path212" />
      <path
         d="m 521.28964,341.82603 0.6098,6.38611"
         style="fill:#000000;stroke:#000000;stroke-linecap:round"
         id="path214" />
      <path
         d="m 387.22881,354.6566 v -6.44446"
         style="fill:#000000;stroke:#000000;stroke-linecap:round"
         id="path216" />
      <path
         d="m 521.89944,348.21214 0.61537,6.44446"
         style="fill:#000000;stroke:#000000;stroke-linecap:round"
         id="path218" />
      <path
         d="M 387.22881,361.10107 V 354.6566"
         style="fill:#000000;stroke:#000000;stroke-linecap:round"
         id="path220" />
      <path
         d="m 522.51481,354.6566 -0.61537,6.44447"
         style="fill:#000000;stroke:#000000;stroke-linecap:round"
         id="path222" />
      <path
         d="m 388.45963,367.48717 -1.23082,-6.3861"
         style="fill:#000000;stroke:#000000;stroke-linecap:round"
         id="path224" />
      <path
         d="m 521.89944,361.10107 -0.6098,6.3861"
         style="fill:#000000;stroke:#000000;stroke-linecap:round"
         id="path226" />
      <path
         d="m 389.66806,373.75708 -1.20843,-6.26991"
         style="fill:#000000;stroke:#000000;stroke-linecap:round"
         id="path228" />
      <path
         d="m 521.28964,367.48717 -1.84101,6.26991"
         style="fill:#000000;stroke:#000000;stroke-linecap:round"
         id="path230" />
      <path
         d="m 392.1089,379.85401 -2.44084,-6.09693"
         style="fill:#000000;stroke:#000000;stroke-linecap:round"
         id="path232" />
      <path
         d="m 519.44863,373.75708 -1.79022,6.09693"
         style="fill:#000000;stroke:#000000;stroke-linecap:round"
         id="path234" />
      <path
         d="m 394.45839,385.72275 -2.34949,-5.86874"
         style="fill:#000000;stroke:#000000;stroke-linecap:round"
         id="path236" />
      <path
         d="m 517.65841,379.85401 -3.02555,5.86874"
         style="fill:#000000;stroke:#000000;stroke-linecap:round"
         id="path238" />
      <path
         d="m 398.0492,391.31015 -3.59081,-5.5874"
         style="fill:#000000;stroke:#000000;stroke-linecap:round"
         id="path240" />
      <path
         d="m 514.63286,385.72275 -2.8805,5.5874"
         style="fill:#000000;stroke:#000000;stroke-linecap:round"
         id="path242" />
      <path
         d="m 401.42668,396.56561 -3.37748,-5.25546"
         style="fill:#000000;stroke:#000000;stroke-linecap:round"
         id="path244" />
      <path
         d="m 511.75236,391.31015 -4.13294,5.25546"
         style="fill:#000000;stroke:#000000;stroke-linecap:round"
         id="path246" />
      <path
         d="m 406.07586,401.44154 -4.64918,-4.87593"
         style="fill:#000000;stroke:#000000;stroke-linecap:round"
         id="path248" />
      <path
         d="m 507.61942,396.56561 -3.83447,4.87593"
         style="fill:#000000;stroke:#000000;stroke-linecap:round"
         id="path250" />
      <path
         d="m 410.32106,405.89377 -4.2452,-4.45223"
         style="fill:#000000;stroke:#000000;stroke-linecap:round"
         id="path252" />
      <path
         d="m 503.78495,401.44154 -5.13815,4.45223"
         style="fill:#000000;stroke:#000000;stroke-linecap:round"
         id="path254" />
      <path
         d="m 415.92173,409.882 -5.60067,-3.98823"
         style="fill:#000000;stroke:#000000;stroke-linecap:round"
         id="path256" />
      <path
         d="m 498.6468,405.89377 -4.60266,3.98823"
         style="fill:#000000;stroke:#000000;stroke-linecap:round"
         id="path258" />
      <path
         d="M 420.82007,413.37009 415.92173,409.882"
         style="fill:#000000;stroke:#000000;stroke-linecap:round"
         id="path260" />
      <path
         d="m 494.04414,409.882 -6.04155,3.48809"
         style="fill:#000000;stroke:#000000;stroke-linecap:round"
         id="path262" />
      <path
         d="m 427.29363,416.32646 -6.47356,-2.95637"
         style="fill:#000000;stroke:#000000;stroke-linecap:round"
         id="path264" />
      <path
         d="m 488.00259,413.37009 -5.12059,2.95637"
         style="fill:#000000;stroke:#000000;stroke-linecap:round"
         id="path266" />
      <path
         d="m 432.54426,418.72434 -5.25063,-2.39788"
         style="fill:#000000;stroke:#000000;stroke-linecap:round"
         id="path268" />
      <path
         d="m 482.882,416.32646 -6.92823,2.39788"
         style="fill:#000000;stroke:#000000;stroke-linecap:round"
         id="path270" />
      <path
         d="m 440.03682,420.54202 -7.49256,-1.81768"
         style="fill:#000000;stroke:#000000;stroke-linecap:round"
         id="path272" />
      <path
         d="m 475.95377,418.72434 -5.25182,1.81768"
         style="fill:#000000;stroke:#000000;stroke-linecap:round"
         id="path274" />
      <path
         d="m 462.20966,421.76303 -4.26545,0.61327"
         style="fill:#000000;stroke:#000000;stroke-linecap:round"
         id="path276" />
      <path
         d="m 457.94421,422.3763 -12.87434,-0.61327"
         style="fill:#000000;stroke:#000000;stroke-linecap:round"
         id="path278" />
      <path
         d="m 445.06987,421.76303 -5.03305,-1.22101"
         style="fill:#000000;stroke:#000000;stroke-linecap:round"
         id="path280" />
      <path
         d="m 470.70195,420.54202 -8.49229,1.22101"
         style="fill:#000000;stroke:#000000;stroke-linecap:round"
         id="path282" />
      <path
         d="m 593.53719,506.32635 4.26546,0.61328"
         style="fill:#000000;stroke:#000000;stroke-linecap:round"
         id="path284" />
      <path
         d="m 580.66286,506.93963 12.87433,-0.61328"
         style="fill:#000000;stroke:#000000;stroke-linecap:round"
         id="path286" />
      <path
         d="m 575.6298,508.16064 5.03306,-1.22101"
         style="fill:#000000;stroke:#000000;stroke-linecap:round"
         id="path288" />
      <path
         d="m 597.80265,506.93963 8.49228,1.22101"
         style="fill:#000000;stroke:#000000;stroke-linecap:round"
         id="path290" />
      <path
         d="m 568.13724,509.97831 7.49256,-1.81767"
         style="fill:#000000;stroke:#000000;stroke-linecap:round"
         id="path292" />
      <path
         d="m 606.29493,508.16064 5.25183,1.81767"
         style="fill:#000000;stroke:#000000;stroke-linecap:round"
         id="path294" />
      <path
         d="m 562.88662,512.3762 5.25062,-2.39789"
         style="fill:#000000;stroke:#000000;stroke-linecap:round"
         id="path296" />
      <path
         d="m 611.54676,509.97831 6.92823,2.39789"
         style="fill:#000000;stroke:#000000;stroke-linecap:round"
         id="path298" />
      <path
         d="m 556.41306,515.33257 6.47356,-2.95637"
         style="fill:#000000;stroke:#000000;stroke-linecap:round"
         id="path300" />
      <path
         d="m 618.47499,512.3762 5.12059,2.95637"
         style="fill:#000000;stroke:#000000;stroke-linecap:round"
         id="path302" />
      <path
         d="m 551.51472,518.82066 4.89834,-3.48809"
         style="fill:#000000;stroke:#000000;stroke-linecap:round"
         id="path304" />
      <path
         d="m 623.59558,515.33257 6.04155,3.48809"
         style="fill:#000000;stroke:#000000;stroke-linecap:round"
         id="path306" />
      <path
         d="m 545.91404,522.80888 5.60068,-3.98822"
         style="fill:#000000;stroke:#000000;stroke-linecap:round"
         id="path308" />
      <path
         d="m 629.63713,518.82066 4.60265,3.98822"
         style="fill:#000000;stroke:#000000;stroke-linecap:round"
         id="path310" />
      <path
         d="m 541.66885,527.26112 4.24519,-4.45224"
         style="fill:#000000;stroke:#000000;stroke-linecap:round"
         id="path312" />
      <path
         d="m 634.23978,522.80888 5.13816,4.45224"
         style="fill:#000000;stroke:#000000;stroke-linecap:round"
         id="path314" />
      <path
         d="m 537.01966,532.13704 4.64919,-4.87592"
         style="fill:#000000;stroke:#000000;stroke-linecap:round"
         id="path316" />
      <path
         d="m 639.37794,527.26112 3.83447,4.87592"
         style="fill:#000000;stroke:#000000;stroke-linecap:round"
         id="path318" />
      <path
         d="m 533.64218,537.3925 3.37748,-5.25546"
         style="fill:#000000;stroke:#000000;stroke-linecap:round"
         id="path320" />
      <path
         d="m 643.21241,532.13704 4.13294,5.25546"
         style="fill:#000000;stroke:#000000;stroke-linecap:round"
         id="path322" />
      <path
         d="m 530.05138,542.9799 3.5908,-5.5874"
         style="fill:#000000;stroke:#000000;stroke-linecap:round"
         id="path324" />
      <path
         d="m 647.34535,537.3925 2.8805,5.5874"
         style="fill:#000000;stroke:#000000;stroke-linecap:round"
         id="path326" />
      <path
         d="m 527.70189,548.84864 2.34949,-5.86874"
         style="fill:#000000;stroke:#000000;stroke-linecap:round"
         id="path328" />
      <path
         d="m 650.22585,542.9799 3.02555,5.86874"
         style="fill:#000000;stroke:#000000;stroke-linecap:round"
         id="path330" />
      <path
         d="m 525.26105,554.94557 2.44084,-6.09693"
         style="fill:#000000;stroke:#000000;stroke-linecap:round"
         id="path332" />
      <path
         d="m 653.2514,548.84864 1.79022,6.09693"
         style="fill:#000000;stroke:#000000;stroke-linecap:round"
         id="path334" />
      <path
         d="m 524.05262,561.21548 1.20843,-6.26991"
         style="fill:#000000;stroke:#000000;stroke-linecap:round"
         id="path336" />
      <path
         d="m 655.04162,554.94557 1.84101,6.26991"
         style="fill:#000000;stroke:#000000;stroke-linecap:round"
         id="path338" />
      <path
         d="m 522.8218,567.60159 1.23082,-6.38611"
         style="fill:#000000;stroke:#000000;stroke-linecap:round"
         id="path340" />
      <path
         d="m 656.88263,561.21548 0.6098,6.38611"
         style="fill:#000000;stroke:#000000;stroke-linecap:round"
         id="path342" />
      <path
         d="m 522.8218,574.04606 v -6.44447"
         style="fill:#000000;stroke:#000000;stroke-linecap:round"
         id="path344" />
      <path
         d="m 657.49243,567.60159 0.61537,6.44447"
         style="fill:#000000;stroke:#000000;stroke-linecap:round"
         id="path346" />
      <path
         d="m 522.8218,580.49052 v -6.44446"
         style="fill:#000000;stroke:#000000;stroke-linecap:round"
         id="path348" />
      <path
         d="m 658.1078,574.04606 -0.61537,6.44446"
         style="fill:#000000;stroke:#000000;stroke-linecap:round"
         id="path350" />
      <path
         d="m 524.05262,586.87662 -1.23082,-6.3861"
         style="fill:#000000;stroke:#000000;stroke-linecap:round"
         id="path352" />
      <path
         d="m 657.49243,580.49052 -0.6098,6.3861"
         style="fill:#000000;stroke:#000000;stroke-linecap:round"
         id="path354" />
      <path
         d="m 525.26105,593.14653 -1.20843,-6.26991"
         style="fill:#000000;stroke:#000000;stroke-linecap:round"
         id="path356" />
      <path
         d="m 656.88263,586.87662 -1.84101,6.26991"
         style="fill:#000000;stroke:#000000;stroke-linecap:round"
         id="path358" />
      <path
         d="m 527.70189,599.24347 -2.44084,-6.09694"
         style="fill:#000000;stroke:#000000;stroke-linecap:round"
         id="path360" />
      <path
         d="m 655.04162,593.14653 -1.79022,6.09694"
         style="fill:#000000;stroke:#000000;stroke-linecap:round"
         id="path362" />
      <path
         d="m 530.05138,605.11221 -2.34949,-5.86874"
         style="fill:#000000;stroke:#000000;stroke-linecap:round"
         id="path364" />
      <path
         d="m 653.2514,599.24347 -3.02555,5.86874"
         style="fill:#000000;stroke:#000000;stroke-linecap:round"
         id="path366" />
      <path
         d="m 533.64218,610.69961 -3.5908,-5.5874"
         style="fill:#000000;stroke:#000000;stroke-linecap:round"
         id="path368" />
      <path
         d="m 650.22585,605.11221 -2.8805,5.5874"
         style="fill:#000000;stroke:#000000;stroke-linecap:round"
         id="path370" />
      <path
         d="m 537.01966,615.95507 -3.37748,-5.25546"
         style="fill:#000000;stroke:#000000;stroke-linecap:round"
         id="path372" />
      <path
         d="m 647.34535,610.69961 -4.13294,5.25546"
         style="fill:#000000;stroke:#000000;stroke-linecap:round"
         id="path374" />
      <path
         d="m 541.66885,620.83099 -4.64919,-4.87592"
         style="fill:#000000;stroke:#000000;stroke-linecap:round"
         id="path376" />
      <path
         d="m 643.21241,615.95507 -3.83447,4.87592"
         style="fill:#000000;stroke:#000000;stroke-linecap:round"
         id="path378" />
      <path
         d="m 545.91404,625.28323 -4.24519,-4.45224"
         style="fill:#000000;stroke:#000000;stroke-linecap:round"
         id="path380" />
      <path
         d="m 639.37794,620.83099 -5.13816,4.45224"
         style="fill:#000000;stroke:#000000;stroke-linecap:round"
         id="path382" />
      <path
         d="m 551.51472,629.27145 -5.60068,-3.98822"
         style="fill:#000000;stroke:#000000;stroke-linecap:round"
         id="path384" />
      <path
         d="m 634.23978,625.28323 -4.60265,3.98822"
         style="fill:#000000;stroke:#000000;stroke-linecap:round"
         id="path386" />
      <path
         d="m 556.41306,632.75954 -4.89834,-3.48809"
         style="fill:#000000;stroke:#000000;stroke-linecap:round"
         id="path388" />
      <path
         d="m 629.63713,629.27145 -6.04155,3.48809"
         style="fill:#000000;stroke:#000000;stroke-linecap:round"
         id="path390" />
      <path
         d="m 562.88662,635.71591 -6.47356,-2.95637"
         style="fill:#000000;stroke:#000000;stroke-linecap:round"
         id="path392" />
      <path
         d="m 623.59558,632.75954 -5.12059,2.95637"
         style="fill:#000000;stroke:#000000;stroke-linecap:round"
         id="path394" />
      <path
         d="m 568.13724,638.1138 -5.25062,-2.39789"
         style="fill:#000000;stroke:#000000;stroke-linecap:round"
         id="path396" />
      <path
         d="m 618.47499,635.71591 -6.92823,2.39789"
         style="fill:#000000;stroke:#000000;stroke-linecap:round"
         id="path398" />
      <path
         d="m 575.6298,639.93147 -7.49256,-1.81767"
         style="fill:#000000;stroke:#000000;stroke-linecap:round"
         id="path400" />
      <path
         d="m 611.54676,638.1138 -5.25183,1.81767"
         style="fill:#000000;stroke:#000000;stroke-linecap:round"
         id="path402" />
      <path
         d="m 597.80265,641.15248 -4.26546,0.61328"
         style="fill:#000000;stroke:#000000;stroke-linecap:round"
         id="path404" />
      <path
         d="m 593.53719,641.76576 -12.87433,-0.61328"
         style="fill:#000000;stroke:#000000;stroke-linecap:round"
         id="path406" />
      <path
         d="m 580.66286,641.15248 -5.03306,-1.22101"
         style="fill:#000000;stroke:#000000;stroke-linecap:round"
         id="path408" />
      <path
         d="m 606.29493,639.93147 -8.49228,1.22101"
         style="fill:#000000;stroke:#000000;stroke-linecap:round"
         id="path410" />
      <path
         d="M 47.93936,25.572424 V -16.325809"
         style="fill:#000000;stroke:#000000;stroke-linecap:round"
         id="path412" />
      <path
         d="M 725.90429,-16.325809 V 25.572424"
         style="fill:#000000;stroke:#000000;stroke-linecap:round"
         id="path414" />
      <path
         d="M 47.93936,-16.325809 V 1122.5197"
         style="fill:#000000;stroke:#000000"
         id="path416" />
      <path
         d="M 183.53235,25.572424 V 1122.5197"
         style="fill:#000000;stroke:#000000"
         id="path418" />
      <path
         d="M 319.12533,25.572424 V 1122.5197"
         style="fill:#000000;stroke:#000000"
         id="path420" />
      <path
         d="M 454.71832,25.572424 V 1122.5197"
         style="fill:#000000;stroke:#000000"
         id="path422" />
      <path
         d="M 590.31131,25.572424 V 1122.5197"
         style="fill:#000000;stroke:#000000"
         id="path424" />
      <path
         d="M 725.90429,25.572424 V 1122.5197"
         style="fill:#000000;stroke:#000000"
         id="path426" />
      <path
         d="M 47.93936,25.572424 H 725.90429"
         style="fill:#000000;stroke:#000000"
         id="path428" />
      <path
         d="M 47.93936,244.96188 H 725.90429"
         style="fill:#000000;stroke:#000000"
         id="path430" />
      <path
         d="M 47.93936,464.35133 H 725.90429"
         style="fill:#000000;stroke:#000000"
         id="path432" />
      <path
         d="M 47.93936,683.74078 H 725.90429"
         style="fill:#000000;stroke:#000000"
         id="path434" />
      <path
         d="M 47.93936,903.13023 H 725.90429"
         style="fill:#000000;stroke:#000000"
         id="path436" />
      <path
         d="M 47.93936,1122.5197 H 725.90429"
         style="fill:#000000;stroke:#000000"
         id="path438" />
      <path
         d="M 47.93936,-16.325809 H 725.90429"
         style="fill:#000000;stroke:#000000"
         id="path440" />
      <path
         d="M 725.90429,-16.325809 V 25.572424"
         style="fill:#000000;stroke:#000000"
         id="path442" />
      <path
         d="m 793.70079,354.6566 a 67.796495,67.796495 0 1 0 -135.59299,0 67.796495,67.796495 0 1 0 135.59299,0 z"
         style="fill:#000000;stroke:#000000"
         id="path444" />
      <path
         d="m 522.51481,354.6566 a 67.796493,67.796493 0 1 0 -135.59298,0 67.796493,67.796493 0 1 0 135.59298,0 z"
         style="fill:#000000;stroke:#000000"
         id="path446" />
      <path
         d="m 658.1078,574.04606 a 67.796495,67.796495 0 1 0 -135.59299,0 67.796495,67.796495 0 1 0 135.59299,0 z"
         style="fill:#000000;stroke:#000000"
         id="path448" />
      <use
         xlink:href="#*U1"
         id="use450"
         x="0"
         y="0"
         width="100%"
         height="100%"
         style="fill:#000000" />
      <use
         xlink:href="#*U2"
         id="use452"
         x="0"
         y="0"
         width="100%"
         height="100%"
         style="fill:#000000" />
      <use
         xlink:href="#*U3"
         id="use454"
         x="0"
         y="0"
         width="100%"
         height="100%"
         style="fill:#000000" />
      <path
         d="m 386.92183,-126.02053 a 67.796495,67.796495 0 1 0 -135.59299,0 67.796495,67.796495 0 1 0 135.59299,0 z"
         style="fill:#000000;stroke:#000000"
         id="path456" />
      <use
         xlink:href="#*U4"
         id="use458"
         x="0"
         y="0"
         width="100%"
         height="100%"
         style="fill:#000000" />
      <path
         d="m 135.59299,-173.95989 95.87872,95.878715"
         style="fill:#000000;stroke:#000000"
         id="path460" />
      <path
         d="m 135.59299,-78.081175 95.87872,-95.878715"
         style="fill:#000000;stroke:#000000"
         id="path462" />
      <path
         d="m 0,-173.95989 95.87872,95.878715"
         style="fill:#000000;stroke:#000000"
         id="path464" />
      <path
         d="M 0,-78.081175 95.87872,-173.95989"
         style="fill:#000000;stroke:#000000"
         id="path466" />
    </g>
    <path
       style="fill:#000000;stroke-width:2.85714"
       d="m 431.72789,628.18547 c -27.26604,-13.58724 -41.53606,-43.49606 -34.58243,-72.48203 4.63602,-19.32508 23.74175,-40.66439 41.96852,-46.87488 C 461.47281,501.21014 460,496.89653 460,570 v 65.71429 h -6.58187 c -3.62003,0 -13.38064,-3.38797 -21.69024,-7.52882 z"
       id="path729"
       transform="scale(0.26458333)" />
    <path
       style="fill:#000000;stroke-width:2.85714"
       d="m 462.85714,570.13013 v -66.29845 l 9.28572,2.00427 c 22.74967,4.91038 37.99136,17.21772 47.61705,38.44976 17.29845,38.15636 -6.01766,81.96584 -48.10324,90.38296 l -8.79953,1.7599 z"
       id="path731"
       transform="scale(0.26458333)" />
    <path
       style="fill:#000000;stroke-width:2.85714"
       d="m 702.46912,627.75217 c -18.22317,-9.46709 -32.63358,-28.80016 -35.44596,-47.55445 -4.91844,-32.79852 19.30659,-67.26921 52.26255,-74.36634 l 9.28572,-1.9997 v 65.94131 c 0,75.59284 1.47891,72.30785 -26.10231,57.97918 z"
       id="path733"
       transform="scale(0.26458333)" />
    <path
       style="fill:#000000;stroke-width:2.85714"
       d="m 734.28571,569.77299 v -65.94131 l 9.28572,1.88703 c 15.79533,3.20991 34.30126,16.40365 43.20253,30.80111 20.72254,33.51792 7.91517,75.66775 -28.08577,92.43198 -25.94467,12.08141 -24.40248,15.82141 -24.40248,-59.17881 z"
       id="path735"
       transform="scale(0.26458333)" />
    <path
       style="fill:#000000;stroke-width:2.85714"
       d="m 576.07856,851.51951 c -26.43438,-9.42274 -44.42609,-34.00549 -44.5695,-60.89699 -0.17174,-32.20267 21.87517,-58.87079 53.97713,-65.29119 l 8.79952,-1.7599 v 66.07143 c 0,72.43163 1.08255,68.75262 -18.20715,61.87665 z"
       id="path737"
       transform="scale(0.26458333)" />
    <path
       style="fill:#000000;stroke-width:2.85714"
       d="m 597.14286,790 v -65.71429 l 6.42857,0.0628 c 17.57953,0.17159 44.79765,20.65127 52.9631,39.85091 6.33938,14.90596 5.56685,39.1811 -1.69785,53.35078 -10.02146,19.54674 -36.5854,38.16414 -54.45388,38.16414 -2.32125,0 -3.23994,-18.63341 -3.23994,-65.71429 z"
       id="path739"
       transform="scale(0.26458333)" />
    <path
       style="fill:#000000;stroke-width:2.85714"
       d="m 599.01752,809.54573 c -1.03107,-23.82128 -1.87466,-52.77434 -1.87466,-64.34015 V 724.17685 L 605,726.06528 c 23.66549,5.68791 46.61307,26.43674 52.36128,47.34422 4.36355,15.87114 -0.13088,39.3333 -10.01779,52.29571 -8.8129,11.55431 -31.93158,27.15193 -40.24439,27.15193 -6.01572,0 -6.26467,-1.33418 -8.08158,-43.31141 z"
       id="path741"
       transform="scale(0.26458333)" />
    <path
       style="fill:#000000;stroke-width:2.85714"
       d="M 57.142857,220 V 201.42857 H 392.85714 728.57143 V 220 238.57143 H 392.85714 57.142857 Z"
       id="path743"
       transform="scale(0.26458333)" />
    <path
       style="fill:#ffffff;stroke:#000000;stroke-width:2.85714"
       d="m 303.24879,151.95516 c -5.28459,-1.9964 -14.75882,-7.9539 -21.05383,-13.23889 -45.62241,-38.30233 -17.18565,-114.117996 42.89681,-114.367807 27.29142,-0.113472 49.51191,14.743197 60.59948,40.516943 17.50577,40.693264 -12.07725,87.660814 -56.62676,89.903634 -8.91404,0.44877 -20.5311,-0.81747 -25.8157,-2.81388 z"
       id="path745"
       transform="scale(0.26458333)" />
  </g>
</svg>
