<?xml version="1.0" encoding="UTF-8" standalone="no"?>
<svg
   xmlns:dc="http://purl.org/dc/elements/1.1/"
   xmlns:cc="http://creativecommons.org/ns#"
   xmlns:rdf="http://www.w3.org/1999/02/22-rdf-syntax-ns#"
   xmlns:svg="http://www.w3.org/2000/svg"
   xmlns="http://www.w3.org/2000/svg"
   xmlns:sodipodi="http://sodipodi.sourceforge.net/DTD/sodipodi-0.dtd"
   xmlns:inkscape="http://www.inkscape.org/namespaces/inkscape"
   viewBox="0 0 564.89922 773.57857"
   width="564.89923"
   height="773.57855"
   version="1.1"
   id="svg983"
   sodipodi:docname="Dm.svg"
   inkscape:version="1.0.2 (e86c870879, 2021-01-15, custom)">
  <metadata
     id="metadata987">
    <rdf:RDF>
      <cc:Work
         rdf:about="">
        <dc:format>image/svg+xml</dc:format>
        <dc:type
           rdf:resource="http://purl.org/dc/dcmitype/StillImage" />
        <dc:title></dc:title>
      </cc:Work>
    </rdf:RDF>
  </metadata>
  <sodipodi:namedview
     pagecolor="#ffffff"
     bordercolor="#666666"
     borderopacity="1"
     objecttolerance="10"
     gridtolerance="10"
     guidetolerance="10"
     inkscape:pageopacity="0"
     inkscape:pageshadow="2"
     inkscape:window-width="1920"
     inkscape:window-height="1017"
     id="namedview985"
     showgrid="false"
     inkscape:zoom="0.73584458"
     inkscape:cx="315.4934"
     inkscape:cy="293.36735"
     inkscape:window-x="-8"
     inkscape:window-y="-8"
     inkscape:window-maximized="1"
     inkscape:current-layer="g979" />
  <defs
     id="defs931">
    <marker
       id="DistanceX"
       orient="auto"
       refX="0"
       refY="0"
       style="overflow:visible">
      <path
         d="M 3,-3 -3,3 M 0,-5 V 5"
         style="stroke:#000000;stroke-width:0.5"
         id="path919" />
    </marker>
    <pattern
       id="Hatch"
       patternUnits="userSpaceOnUse"
       width="8"
       height="8"
       x="0"
       y="0">
      <path
         d="M8 4 l-4,4"
         stroke="#000000"
         stroke-width="0.25"
         linecap="square"
         id="path922" />
      <path
         d="M6 2 l-4,4"
         stroke="#000000"
         stroke-width="0.25"
         linecap="square"
         id="path924" />
      <path
         d="M4 0 l-4,4"
         stroke="#000000"
         stroke-width="0.25"
         linecap="square"
         id="path926" />
    </pattern>
    <symbol
       id="$MODEL_SPACE" />
    <symbol
       id="$PAPER_SPACE" />
  </defs>
  <g
     inkscape:groupmode="layer"
     inkscape:label="0"
     id="g979"
     transform="translate(-544.77008,-975.92242)">
    <path
       d="m 576,1092.8557 v 650.976"
       style="fill:none;stroke:#000000;stroke-width:11.3386;stroke-miterlimit:4;stroke-dasharray:none"
       id="path933" />
    <path
       d="m 672,1122.5197 v 621.312"
       style="fill:none;stroke:#000000;stroke-width:11.3386;stroke-miterlimit:4;stroke-dasharray:none"
       id="path935" />
    <path
       d="m 768,1122.5197 v 621.312"
       style="fill:none;stroke:#000000;stroke-width:11.3386;stroke-miterlimit:4;stroke-dasharray:none"
       id="path937" />
    <path
       d="m 864,1122.5197 v 184.992"
       style="fill:none;stroke:#000000;stroke-width:11.3386;stroke-miterlimit:4;stroke-dasharray:none"
       id="path939" />
    <path
       d="m 960,1122.5197 v 340.32"
       style="fill:none;stroke:#000000;stroke-width:11.3386;stroke-miterlimit:4;stroke-dasharray:none"
       id="path941" />
    <path
       d="m 1056,1092.8557 v 59.328"
       style="fill:none;stroke:#000000;stroke-width:11.3386;stroke-miterlimit:4;stroke-dasharray:none"
       id="path943" />
    <path
       d="m 576,1122.5197 h 480"
       style="fill:none;stroke:#000000;stroke-width:11.3386;stroke-miterlimit:4;stroke-dasharray:none"
       id="path945" />
    <path
       d="m 576,1277.8477 h 480"
       style="fill:none;stroke:#000000;stroke-width:11.3386;stroke-miterlimit:4;stroke-dasharray:none"
       id="path947" />
    <path
       d="m 576,1433.1757 h 480"
       style="fill:none;stroke:#000000;stroke-width:11.3386;stroke-miterlimit:4;stroke-dasharray:none"
       id="path949" />
    <path
       d="m 576,1588.5037 h 480"
       style="fill:none;stroke:#000000;stroke-width:11.3386;stroke-miterlimit:4;stroke-dasharray:none"
       id="path951" />
    <path
       d="m 576,1743.8317 h 480"
       style="fill:none;stroke:#000000;stroke-width:11.3386;stroke-miterlimit:4;stroke-dasharray:none"
       id="path953" />
    <path
       d="m 576,1092.8557 h 480"
       style="fill:none;stroke:#000000;stroke-width:11.3386;stroke-miterlimit:4;stroke-dasharray:none"
       id="path955" />
    <path
       d="m 1104,1200.1837 a 48,48 0 1 0 -96,0 48,48 0 1 0 96,0 z"
       style="fill:none;stroke:#000000;stroke-width:11.3386;stroke-miterlimit:4;stroke-dasharray:none"
       id="path957" />
    <path
       d="m 912,1355.5117 a 48,48 0 1 0 -96,0 48,48 0 1 0 96,0 z"
       style="fill:none;stroke:#000000;stroke-width:11.3386;stroke-miterlimit:4;stroke-dasharray:none"
       id="path959" />
    <path
       d="m 1008,1510.8397 a 48,48 0 1 0 -96,0 48,48 0 1 0 96,0 z"
       style="fill:none;stroke:#000000;stroke-width:11.3386;stroke-miterlimit:4;stroke-dasharray:none"
       id="path961" />
    <path
       d="m 644.77887,987.97056 54.44226,54.44224"
       style="fill:none;stroke:#000000;stroke-width:11.3386;stroke-miterlimit:4;stroke-dasharray:none"
       id="path963" />
    <path
       d="m 644.77887,1042.4128 54.44226,-54.44224"
       style="fill:none;stroke:#000000;stroke-width:11.3386;stroke-miterlimit:4;stroke-dasharray:none"
       id="path965" />
    <path
       d="m 548.77887,987.97056 54.44226,54.44224"
       style="fill:none;stroke:#000000;stroke-width:11.3386;stroke-miterlimit:4;stroke-dasharray:none"
       id="path967" />
    <path
       d="m 548.77887,1042.4128 54.44226,-54.44224"
       style="fill:none;stroke:#000000;stroke-width:11.3386;stroke-miterlimit:4;stroke-dasharray:none"
       id="path969" />
    <path
       d="m 864,1403.5117 v 340.32"
       style="fill:none;stroke:#000000;stroke-width:11.3386;stroke-miterlimit:4;stroke-dasharray:none"
       id="path971" />
    <path
       d="m 1056,1248.1837 v 495.648"
       style="fill:none;stroke:#000000;stroke-width:11.3386;stroke-miterlimit:4;stroke-dasharray:none"
       id="path973" />
    <path
       d="m 960,1558.8397 v 184.992"
       style="fill:none;stroke:#000000;stroke-width:11.3386;stroke-miterlimit:4;stroke-dasharray:none"
       id="path975" />
    <path
       d="m 801.6,1015.1917 a 33.6,33.6 0 1 0 -67.2,0 33.6,33.6 0 1 0 67.2,0 z"
       style="fill:none;stroke:#000000;stroke-width:11.3386;stroke-miterlimit:4;stroke-dasharray:none"
       id="path977" />
    <path
       style="fill:#000000;stroke:#000000;stroke-width:15.4089;stroke-miterlimit:4;stroke-dasharray:none"
       d="m 308.69849,419.8409 c -11.84939,-3.61748 -22.35521,-12.75911 -27.43249,-23.87036 -2.38334,-5.21576 -3.09027,-9.16363 -3.04184,-16.98728 0.0787,-12.70718 4.05378,-21.22679 14.13181,-30.2878 8.96534,-8.06061 17.72791,-11.03946 29.90971,-10.16786 15.90192,1.13778 27.99513,9.85108 35.04522,25.2505 4.70188,10.27027 3.96528,24.88939 -1.78658,35.45745 -8.89271,16.33883 -30.15449,25.69492 -46.82583,20.60535 z"
       id="path995"
       transform="translate(544.77008,975.92242)" />
    <path
       style="fill:#000000;stroke:#000000;stroke-width:15.4089;stroke-miterlimit:4;stroke-dasharray:none"
       d="m 36.901964,131.64842 v -8.15389 H 270.64698 504.39199 v 8.15389 8.1539 H 270.64698 36.901964 Z"
       id="path997"
       transform="translate(544.77008,975.92242)" />
    <path
       style="fill:#000000;stroke:#000000;stroke-width:15.4089;stroke-miterlimit:4;stroke-dasharray:none"
       d="m 502.35352,265.00278 c -12.85495,-3.36003 -22.25324,-11.00409 -28.07905,-22.83799 -7.96501,-16.17923 -5.21369,-33.39139 7.41958,-46.41659 9.45828,-9.75171 14.51863,-11.77144 29.49285,-11.77144 14.70306,0 19.86877,1.96765 29.06483,11.07094 20.6509,20.44256 14.34847,54.49866 -12.41352,67.07828 -6.52914,3.06906 -19.25371,4.50545 -25.48469,2.8768 z"
       id="path999"
       transform="translate(544.77008,975.92242)" />
    <path
       style="fill:#000000;stroke:#000000;stroke-width:15.4089;stroke-miterlimit:4;stroke-dasharray:none"
       d="m 397.45701,572.0071 c -14.22689,-7.19494 -22.11765,-18.80994 -23.22108,-34.18083 -0.86395,-12.03481 2.14683,-20.84468 10.1754,-29.77439 9.06102,-10.07803 17.58063,-14.05314 30.28781,-14.13181 12.06757,-0.0747 20.83617,3.30499 28.99579,11.1759 20.19305,19.47853 15.81088,52.77652 -8.6996,66.10415 -5.97557,3.24924 -9.39098,4.09717 -18.24089,4.52865 -10.04533,0.48975 -11.53997,0.2015 -19.29743,-3.72167 z"
       id="path1001"
       transform="translate(544.77008,975.92242)" />
  </g>
  <desc
     id="desc981">Dm.dxf - scale = 25.400000, origin = (0.000000, 0.000000), method = file</desc>
</svg>
