<?xml version="1.0" encoding="UTF-8" standalone="no"?>
<svg
   xmlns:dc="http://purl.org/dc/elements/1.1/"
   xmlns:cc="http://creativecommons.org/ns#"
   xmlns:rdf="http://www.w3.org/1999/02/22-rdf-syntax-ns#"
   xmlns:svg="http://www.w3.org/2000/svg"
   xmlns="http://www.w3.org/2000/svg"
   xmlns:sodipodi="http://sodipodi.sourceforge.net/DTD/sodipodi-0.dtd"
   xmlns:inkscape="http://www.inkscape.org/namespaces/inkscape"
   viewBox="0 0 722.42992 765.53927"
   width="722.42993"
   height="765.53925"
   version="1.1"
   id="svg909"
   sodipodi:docname="DoverFsharp(VII).svg"
   inkscape:version="1.0.2 (e86c870879, 2021-01-15, custom)">
  <metadata
     id="metadata913">
    <rdf:RDF>
      <cc:Work
         rdf:about="">
        <dc:format>image/svg+xml</dc:format>
        <dc:type
           rdf:resource="http://purl.org/dc/dcmitype/StillImage" />
        <dc:title></dc:title>
      </cc:Work>
    </rdf:RDF>
  </metadata>
  <sodipodi:namedview
     pagecolor="#ffffff"
     bordercolor="#666666"
     borderopacity="1"
     objecttolerance="10"
     gridtolerance="10"
     guidetolerance="10"
     inkscape:pageopacity="0"
     inkscape:pageshadow="2"
     inkscape:window-width="1920"
     inkscape:window-height="1017"
     id="namedview911"
     showgrid="false"
     inkscape:zoom="0.7563342"
     inkscape:cx="162.95152"
     inkscape:cy="317.7115"
     inkscape:window-x="-8"
     inkscape:window-y="-8"
     inkscape:window-maximized="1"
     inkscape:current-layer="g905" />
  <defs
     id="defs845">
    <marker
       id="DistanceX"
       orient="auto"
       refX="0"
       refY="0"
       style="overflow:visible">
      <path
         d="M 3,-3 -3,3 M 0,-5 V 5"
         style="stroke:#000000;stroke-width:0.5"
         id="path833" />
    </marker>
    <pattern
       id="Hatch"
       patternUnits="userSpaceOnUse"
       width="8"
       height="8"
       x="0"
       y="0">
      <path
         d="M8 4 l-4,4"
         stroke="#000000"
         stroke-width="0.25"
         linecap="square"
         id="path836" />
      <path
         d="M6 2 l-4,4"
         stroke="#000000"
         stroke-width="0.25"
         linecap="square"
         id="path838" />
      <path
         d="M4 0 l-4,4"
         stroke="#000000"
         stroke-width="0.25"
         linecap="square"
         id="path840" />
    </pattern>
    <symbol
       id="$MODEL_SPACE" />
    <symbol
       id="$PAPER_SPACE" />
  </defs>
  <g
     inkscape:groupmode="layer"
     inkscape:label="0"
     id="g905"
     transform="translate(-544.77008,-983.96176)">
    <path
       d="m 672,1122.5197 v 340.32"
       style="fill:none;stroke:#000000;stroke-width:11.3386;stroke-miterlimit:4;stroke-dasharray:none"
       id="path847" />
    <path
       d="m 768,1122.5197 v 29.664"
       style="fill:none;stroke:#000000;stroke-width:11.3386;stroke-miterlimit:4;stroke-dasharray:none"
       id="path849" />
    <path
       d="m 864,1122.5197 v 29.664"
       style="fill:none;stroke:#000000;stroke-width:11.3386;stroke-miterlimit:4;stroke-dasharray:none"
       id="path851" />
    <path
       d="m 960,1122.5197 v 495.648"
       style="fill:none;stroke:#000000;stroke-width:11.3386;stroke-miterlimit:4;stroke-dasharray:none"
       id="path853" />
    <path
       d="m 576,1122.5197 h 480"
       style="fill:none;stroke:#000000;stroke-width:11.3386;stroke-miterlimit:4;stroke-dasharray:none"
       id="path855" />
    <path
       d="m 576,1277.8477 h 480"
       style="fill:none;stroke:#000000;stroke-width:11.3386;stroke-miterlimit:4;stroke-dasharray:none"
       id="path857" />
    <path
       d="m 576,1433.1757 h 480"
       style="fill:none;stroke:#000000;stroke-width:11.3386;stroke-miterlimit:4;stroke-dasharray:none"
       id="path859" />
    <path
       d="m 576,1588.5037 h 480"
       style="fill:none;stroke:#000000;stroke-width:11.3386;stroke-miterlimit:4;stroke-dasharray:none"
       id="path861" />
    <path
       d="m 912,1200.1837 a 48,48 0 1 0 -96,0 48,48 0 1 0 96,0 z"
       style="fill:none;stroke:#000000;stroke-width:11.3386;stroke-miterlimit:4;stroke-dasharray:none"
       id="path863" />
    <path
       d="m 1008,1666.1677 a 48,48 0 1 0 -96,0 48,48 0 1 0 96,0 z"
       style="fill:none;stroke:#000000;stroke-width:11.3386;stroke-miterlimit:4;stroke-dasharray:none"
       id="path865" />
    <path
       d="m 1028.7789,987.97056 54.4422,54.44224"
       style="fill:none;stroke:#000000;stroke-width:11.3386;stroke-miterlimit:4;stroke-dasharray:none"
       id="path867" />
    <path
       d="m 1028.7789,1042.4128 54.4422,-54.44224"
       style="fill:none;stroke:#000000;stroke-width:11.3386;stroke-miterlimit:4;stroke-dasharray:none"
       id="path869" />
    <path
       d="m 960,1714.1677 v 29.664"
       style="fill:none;stroke:#000000;stroke-width:11.3386;stroke-miterlimit:4;stroke-dasharray:none"
       id="path871" />
    <path
       d="m 864,1248.1837 v 495.648"
       style="fill:none;stroke:#000000;stroke-width:11.3386;stroke-miterlimit:4;stroke-dasharray:none"
       id="path873" />
    <path
       d="m 1056,1122.5197 v 621.312"
       style="fill:none;stroke:#000000;stroke-width:11.3386;stroke-miterlimit:4;stroke-dasharray:none"
       id="path875" />
    <path
       d="m 816,1200.1837 a 48,48 0 1 0 -96,0 48,48 0 1 0 96,0 z"
       style="fill:none;stroke:#000000;stroke-width:11.3386;stroke-miterlimit:4;stroke-dasharray:none"
       id="path877" />
    <path
       d="m 768,1248.1837 v 495.648"
       style="fill:none;stroke:#000000;stroke-width:11.3386;stroke-miterlimit:4;stroke-dasharray:none"
       id="path879" />
    <path
       d="m 1123.2,1152.1837 h 144"
       style="fill:none;stroke:#000000;stroke-width:11.3386;stroke-miterlimit:4;stroke-dasharray:none"
       id="path881" />
    <path
       d="m 1123.2,1248.1837 h 144"
       style="fill:none;stroke:#000000;stroke-width:11.3386;stroke-miterlimit:4;stroke-dasharray:none"
       id="path883" />
    <path
       d="m 1137.6,1152.1837 28.8,96"
       style="fill:none;stroke:#000000;stroke-width:11.3386;stroke-miterlimit:4;stroke-dasharray:none"
       id="path885" />
    <path
       d="m 1166.4,1248.1837 28.8,-96"
       style="fill:none;stroke:#000000;stroke-width:11.3386;stroke-miterlimit:4;stroke-dasharray:none"
       id="path887" />
    <path
       d="m 576,1122.5197 v 621.312"
       style="fill:none;stroke:#000000;stroke-width:11.3386;stroke-miterlimit:4;stroke-dasharray:none"
       id="path889" />
    <path
       d="m 576,1743.8317 h 480"
       style="fill:none;stroke:#000000;stroke-width:11.3386;stroke-miterlimit:4;stroke-dasharray:none"
       id="path891" />
    <path
       d="m 1252.8,1152.1837 v 96"
       style="fill:none;stroke:#000000;stroke-width:11.3386;stroke-miterlimit:4;stroke-dasharray:none"
       id="path893" />
    <path
       d="m 1224,1248.1837 v -96"
       style="fill:none;stroke:#000000;stroke-width:11.3386;stroke-miterlimit:4;stroke-dasharray:none"
       id="path895" />
    <path
       d="m 720,1510.8397 a 48,48 0 1 0 -96,0 48,48 0 1 0 96,0 z"
       style="fill:none;stroke:#000000;stroke-width:11.3386;stroke-miterlimit:4;stroke-dasharray:none"
       id="path897" />
    <path
       d="m 672,1558.8397 v 184.992"
       style="fill:none;stroke:#000000;stroke-width:11.3386;stroke-miterlimit:4;stroke-dasharray:none"
       id="path899" />
    <path
       d="m 548.77887,987.97056 54.44226,54.44224"
       style="fill:none;stroke:#000000;stroke-width:11.3386;stroke-miterlimit:4;stroke-dasharray:none"
       id="path901" />
    <path
       d="m 548.77887,1042.4128 54.44226,-54.44224"
       style="fill:none;stroke:#000000;stroke-width:11.3386;stroke-miterlimit:4;stroke-dasharray:none"
       id="path903" />
    <path
       style="fill:#000000;stroke:#000000;stroke-width:14.9915;stroke-miterlimit:4;stroke-dasharray:none"
       d="m 117.03423,566.8872 c -27.759278,-7.47638 -39.883332,-39.25489 -24.07932,-63.11459 17.22629,-26.00695 57.0204,-23.44282 71.4922,4.6066 2.07512,4.02201 3.0997,8.81069 3.51899,16.44696 0.51608,9.39898 0.17667,11.67539 -2.66128,17.84926 -6.14255,13.36289 -14.7567,20.72422 -28.41392,24.28147 -9.0331,2.35282 -10.88616,2.34632 -19.85667,-0.0697 z"
       id="path921"
       transform="translate(544.77008,983.96176)" />
    <path
       style="fill:#000000;stroke:#000000;stroke-width:14.9915;stroke-miterlimit:4;stroke-dasharray:none"
       d="m 214.16495,256.84709 c -12.43567,-3.10887 -22.92848,-11.83034 -28.57878,-23.75427 -4.98947,-10.52938 -4.90585,-24.16679 0.2121,-34.58861 4.03941,-8.22555 10.99197,-15.23113 19.73355,-19.88403 4.70636,-2.50506 7.71644,-3.0222 17.57829,-3.01996 10.3596,0.002 12.77611,0.46354 18.67342,3.56389 8.71401,4.58115 16.84883,13.87414 20.41751,23.32439 7.35303,19.47163 -2.3385,42.31116 -21.7189,51.1838 -7.87781,3.60658 -19.1504,4.96646 -26.31719,3.17479 z"
       id="path923"
       transform="translate(544.77008,983.96176)" />
    <path
       style="fill:#000000;stroke:#000000;stroke-width:14.9915;stroke-miterlimit:4;stroke-dasharray:none"
       d="m 309.61863,256.47881 c -19.27908,-5.43015 -31.6386,-21.20768 -31.6386,-40.38823 0,-12.05751 3.23362,-19.50016 12.45665,-28.67085 9.08161,-9.03007 17.22706,-12.50225 29.32926,-12.50225 29.264,0 49.87335,32.40352 37.14977,58.40957 -4.17765,8.53882 -13.16898,17.40621 -21.29366,21.00014 -7.53797,3.3344 -18.56475,4.2468 -26.00342,2.15162 z"
       id="path925"
       transform="translate(544.77008,983.96176)" />
    <path
       style="fill:#000000;stroke:#000000;stroke-width:14.9915;stroke-miterlimit:4;stroke-dasharray:none"
       d="m 401.60263,721.60102 c -9.79523,-3.63939 -18.11387,-11.18936 -23.10119,-20.96654 -3.99429,-7.83044 -4.58578,-10.22934 -4.55181,-18.46057 0.0482,-11.67579 3.20237,-19.31758 11.7414,-28.4465 8.34918,-8.92595 17.00623,-12.58608 29.79436,-12.59683 16.33964,-0.0137 29.15066,7.97832 37.28446,23.2596 4.41571,8.29595 4.37218,26.89234 -0.0829,35.42754 -4.26681,8.17446 -11.48147,15.44498 -19.3523,19.50212 -8.21259,4.2333 -23.51684,5.33351 -31.73201,2.28118 z"
       id="path927"
       transform="translate(544.77008,983.96176)" />
  </g>
  <desc
     id="desc907">DoverFsharp(VII).dxf - scale = 25.400000, origin = (0.000000, 0.000000), method = file</desc>
</svg>
