<?xml version="1.0" encoding="UTF-8" standalone="no"?>
<svg
   xmlns:dc="http://purl.org/dc/elements/1.1/"
   xmlns:cc="http://creativecommons.org/ns#"
   xmlns:rdf="http://www.w3.org/1999/02/22-rdf-syntax-ns#"
   xmlns:svg="http://www.w3.org/2000/svg"
   xmlns="http://www.w3.org/2000/svg"
   xmlns:sodipodi="http://sodipodi.sourceforge.net/DTD/sodipodi-0.dtd"
   xmlns:inkscape="http://www.inkscape.org/namespaces/inkscape"
   viewBox="0 0 798.70079 1335.928"
   width="798.70081"
   height="1335.928"
   version="1.1"
   id="svg72"
   sodipodi:docname="E.svg"
   inkscape:version="1.0.2 (e86c870879, 2021-01-15, custom)">
  <metadata
     id="metadata76">
    <rdf:RDF>
      <cc:Work
         rdf:about="">
        <dc:format>image/svg+xml</dc:format>
        <dc:type
           rdf:resource="http://purl.org/dc/dcmitype/StillImage" />
        <dc:title></dc:title>
      </cc:Work>
    </rdf:RDF>
  </metadata>
  <sodipodi:namedview
     pagecolor="#ffffff"
     bordercolor="#666666"
     borderopacity="1"
     objecttolerance="10"
     gridtolerance="10"
     guidetolerance="10"
     inkscape:pageopacity="0"
     inkscape:pageshadow="2"
     inkscape:window-width="1920"
     inkscape:window-height="1017"
     id="namedview74"
     showgrid="false"
     fit-margin-top="0"
     fit-margin-left="0"
     fit-margin-right="0"
     fit-margin-bottom="0"
     inkscape:zoom="0.73584458"
     inkscape:cx="389.83752"
     inkscape:cy="500.37159"
     inkscape:window-x="-8"
     inkscape:window-y="-8"
     inkscape:window-maximized="1"
     inkscape:current-layer="g68" />
  <defs
     id="defs22">
    <marker
       id="DistanceX"
       orient="auto"
       refX="0"
       refY="0"
       style="overflow:visible">
      <path
         d="M 3,-3 -3,3 M 0,-5 V 5"
         style="stroke:#000000;stroke-width:0.5"
         id="path10" />
    </marker>
    <pattern
       id="Hatch"
       patternUnits="userSpaceOnUse"
       width="8"
       height="8"
       x="0"
       y="0">
      <path
         d="M8 4 l-4,4"
         stroke="#000000"
         stroke-width="0.25"
         linecap="square"
         id="path13" />
      <path
         d="M6 2 l-4,4"
         stroke="#000000"
         stroke-width="0.25"
         linecap="square"
         id="path15" />
      <path
         d="M4 0 l-4,4"
         stroke="#000000"
         stroke-width="0.25"
         linecap="square"
         id="path17" />
    </pattern>
    <symbol
       id="$MODEL_SPACE" />
    <symbol
       id="$PAPER_SPACE" />
  </defs>
  <g
     inkscape:groupmode="layer"
     inkscape:label="0"
     id="g68"
     transform="translate(2.5,210.90829)">
    <path
       d="M 48.736013,-47.005387 V 1122.5197"
       style="fill:none;stroke:#000000;stroke-width:7.55905512;stroke-miterlimit:4;stroke-dasharray:none"
       id="path24" />
    <path
       d="M 187.98176,-3.97845 V 264.34811"
       style="fill:none;stroke:#000000;stroke-width:7.55905512;stroke-miterlimit:4;stroke-dasharray:none"
       id="path26" />
    <path
       d="M 327.22752,-3.97845 V 264.34811"
       style="fill:none;stroke:#000000;stroke-width:7.55905512;stroke-miterlimit:4;stroke-dasharray:none"
       id="path28" />
    <path
       d="M 466.47327,-3.97845 V 39.048487"
       style="fill:none;stroke:#000000;stroke-width:7.55905512;stroke-miterlimit:4;stroke-dasharray:none"
       id="path30" />
    <path
       d="M 48.736013,-3.97845 H 744.96477"
       style="fill:none;stroke:#000000;stroke-width:7.55905512;stroke-miterlimit:4;stroke-dasharray:none"
       id="path32" />
    <path
       d="M 48.736013,221.32118 H 744.96477"
       style="fill:none;stroke:#000000;stroke-width:7.55905512;stroke-miterlimit:4;stroke-dasharray:none"
       id="path34" />
    <path
       d="M 48.736013,446.6208 H 744.96477"
       style="fill:none;stroke:#000000;stroke-width:7.55905512;stroke-miterlimit:4;stroke-dasharray:none"
       id="path36" />
    <path
       d="M 48.736013,671.92043 H 744.96477"
       style="fill:none;stroke:#000000;stroke-width:7.55905512;stroke-miterlimit:4;stroke-dasharray:none"
       id="path38" />
    <path
       d="M 48.736013,897.22006 H 744.96477"
       style="fill:none;stroke:#000000;stroke-width:7.55905512;stroke-miterlimit:4;stroke-dasharray:none"
       id="path40" />
    <path
       d="M 48.736013,1122.5197 H 744.96477"
       style="fill:none;stroke:#000000;stroke-width:7.55905512;stroke-miterlimit:4;stroke-dasharray:none"
       id="path42" />
    <path
       d="M 48.736013,-47.005387 H 744.96477"
       style="fill:none;stroke:#000000;stroke-width:7.55905512;stroke-miterlimit:4;stroke-dasharray:none"
       id="path44" />
    <path
       d="m 257.60464,333.97099 a 69.622877,69.622877 0 1 0 -139.24575,0 69.622876,69.622876 0 1 0 139.24575,0 z"
       style="fill:none;stroke:#000000;stroke-width:7.55905512;stroke-miterlimit:4;stroke-dasharray:none"
       id="path46" />
    <path
       d="m 536.09615,108.67136 a 69.62288,69.62288 0 1 0 -139.24576,0 69.62288,69.62288 0 1 0 139.24576,0 z"
       style="fill:none;stroke:#000000;stroke-width:7.55905512;stroke-miterlimit:4;stroke-dasharray:none"
       id="path48" />
    <path
       d="M 605.71902,-3.97845 V 1122.5197"
       style="fill:none;stroke:#000000;stroke-width:7.55905512;stroke-miterlimit:4;stroke-dasharray:none"
       id="path50" />
    <path
       d="M 466.47327,178.29424 V 1122.5197"
       style="fill:none;stroke:#000000;stroke-width:7.55905512;stroke-miterlimit:4;stroke-dasharray:none"
       id="path52" />
    <path
       d="M 744.96477,-47.005387 V 1122.5197"
       style="fill:none;stroke:#000000;stroke-width:7.55905512;stroke-miterlimit:4;stroke-dasharray:none"
       id="path54" />
    <path
       d="m 396.85039,333.97099 a 69.622876,69.622876 0 1 0 -139.24575,0 69.622876,69.622876 0 1 0 139.24575,0 z"
       style="fill:none;stroke:#000000;stroke-width:7.55905512;stroke-miterlimit:4;stroke-dasharray:none"
       id="path56" />
    <path
       d="M 327.22752,403.59387 V 1122.5197"
       style="fill:none;stroke:#000000;stroke-width:7.55905512;stroke-miterlimit:4;stroke-dasharray:none"
       id="path58" />
    <path
       d="M 187.98176,403.59387 V 1122.5197"
       style="fill:none;stroke:#000000;stroke-width:7.55905512;stroke-miterlimit:4;stroke-dasharray:none"
       id="path60" />
    <path
       d="m 97.472027,-159.6552 a 48.736013,48.736013 0 1 0 -97.472027,0 48.736013,48.736013 0 1 0 97.472027,0 z"
       style="fill:none;stroke:#000000;stroke-width:7.55905512;stroke-miterlimit:4;stroke-dasharray:none"
       id="path62" />
    <path
       d="m 793.70079,-159.6552 a 48.736015,48.736015 0 1 0 -97.47203,0 48.736015,48.736015 0 1 0 97.47203,0 z"
       style="fill:none;stroke:#000000;stroke-width:7.55905512;stroke-miterlimit:4;stroke-dasharray:none"
       id="path64" />
    <path
       d="m 654.45503,-159.6552 a 48.736013,48.736013 0 1 0 -97.47202,0 48.736013,48.736013 0 1 0 97.47202,0 z"
       style="fill:none;stroke:#000000;stroke-width:7.55905512;stroke-miterlimit:4;stroke-dasharray:none"
       id="path66" />
    <path
       style="fill:#000000;stroke:#000000;stroke-width:7.55905512;stroke-miterlimit:4;stroke-dasharray:none"
       d="M 50.809832,183.08762 V 164.06187 H 397.3504 743.89097 v 19.02575 19.02576 H 397.3504 50.809832 Z"
       id="path929"
       transform="translate(-0.5,-208.90829)" />
    <path
       style="fill:#000000;stroke:#000000;stroke-width:7.55905512;stroke-miterlimit:4;stroke-dasharray:none"
       d="m 456.51443,384.06321 c -18.43465,-2.68417 -40.41738,-18.29232 -48.64442,-34.53845 -13.21069,-26.08749 -9.65786,-55.49872 9.24371,-76.52183 38.04787,-42.31838 106.95042,-21.73554 116.39959,34.77135 5.25466,31.42332 -15.78496,64.78305 -46.47005,73.68139 -11.39749,3.30514 -20.43581,4.07713 -30.52883,2.60754 z"
       id="path931"
       transform="translate(-0.5,-208.90829)" />
    <path
       style="fill:#000000;stroke:#000000;stroke-width:7.55905512;stroke-miterlimit:4;stroke-dasharray:none"
       d="m 310.25568,607.84508 c -17.52784,-4.83522 -35.29023,-19.84329 -43.26758,-36.55831 -19.03087,-39.87561 5.90884,-86.84101 50.33011,-94.77954 19.74532,-3.52868 40.93987,3.18833 56.15203,17.7958 14.26619,13.6991 21.11579,29.60723 21.14607,49.11159 0.0454,29.22211 -19.10558,54.99484 -47.35167,63.72434 -9.98257,3.08512 -27.19451,3.41352 -37.00896,0.70612 z"
       id="path933"
       transform="translate(-0.5,-208.90829)" />
    <path
       style="fill:#000000;stroke:#000000;stroke-width:7.55905512;stroke-miterlimit:4;stroke-dasharray:none"
       d="m 167.37209,606.62183 c -48.34643,-16.47657 -61.76973,-77.57042 -24.66894,-112.27639 21.04945,-19.69073 48.82716,-24.1166 74.41936,-11.85737 34.92274,16.72876 48.67487,58.13121 30.58324,92.07458 -4.17951,7.84156 -14.58512,19.27013 -22.26665,24.45566 -15.94819,10.76605 -39.67209,13.87255 -58.06701,7.60352 z"
       id="path935"
       transform="translate(-0.5,-208.90829)" />
  </g>
  <desc
     id="desc70">E.dxf - scale = 36.842105, origin = (5.650000, -8.090000), method = auto</desc>
</svg>
