<?xml version="1.0" encoding="UTF-8" standalone="no"?>
<svg
   xmlns:dc="http://purl.org/dc/elements/1.1/"
   xmlns:cc="http://creativecommons.org/ns#"
   xmlns:rdf="http://www.w3.org/1999/02/22-rdf-syntax-ns#"
   xmlns:svg="http://www.w3.org/2000/svg"
   xmlns="http://www.w3.org/2000/svg"
   xmlns:sodipodi="http://sodipodi.sourceforge.net/DTD/sodipodi-0.dtd"
   xmlns:inkscape="http://www.inkscape.org/namespaces/inkscape"
   viewBox="0 0 805.03935 1116.9669"
   width="805.03937"
   height="1116.9669"
   version="1.1"
   id="svg893"
   sodipodi:docname="E.svg"
   inkscape:version="1.0.2 (e86c870879, 2021-01-15, custom)">
  <metadata
     id="metadata897">
    <rdf:RDF>
      <cc:Work
         rdf:about="">
        <dc:format>image/svg+xml</dc:format>
        <dc:type
           rdf:resource="http://purl.org/dc/dcmitype/StillImage" />
        <dc:title></dc:title>
      </cc:Work>
    </rdf:RDF>
  </metadata>
  <sodipodi:namedview
     pagecolor="#ffffff"
     bordercolor="#666666"
     borderopacity="1"
     objecttolerance="10"
     gridtolerance="10"
     guidetolerance="10"
     inkscape:pageopacity="0"
     inkscape:pageshadow="2"
     inkscape:window-width="1920"
     inkscape:window-height="1017"
     id="namedview895"
     showgrid="false"
     inkscape:zoom="0.74641032"
     inkscape:cx="402.51969"
     inkscape:cy="558.48347"
     inkscape:window-x="-8"
     inkscape:window-y="-8"
     inkscape:window-maximized="1"
     inkscape:current-layer="g889" />
  <defs
     id="defs845">
    <marker
       id="DistanceX"
       orient="auto"
       refX="0"
       refY="0"
       style="overflow:visible">
      <path
         d="M 3,-3 -3,3 M 0,-5 V 5"
         style="stroke:#000000;stroke-width:0.5"
         id="path833" />
    </marker>
    <pattern
       id="Hatch"
       patternUnits="userSpaceOnUse"
       width="8"
       height="8"
       x="0"
       y="0">
      <path
         d="M8 4 l-4,4"
         stroke="#000000"
         stroke-width="0.25"
         linecap="square"
         id="path836" />
      <path
         d="M6 2 l-4,4"
         stroke="#000000"
         stroke-width="0.25"
         linecap="square"
         id="path838" />
      <path
         d="M4 0 l-4,4"
         stroke="#000000"
         stroke-width="0.25"
         linecap="square"
         id="path840" />
    </pattern>
    <symbol
       id="$MODEL_SPACE" />
    <symbol
       id="$PAPER_SPACE" />
  </defs>
  <g
     inkscape:groupmode="layer"
     inkscape:label="0"
     id="g889"
     transform="translate(5.6692915,214.07758)">
    <path
       d="M 48.736013,-47.005387 V 897.22006"
       style="fill:none;stroke:#000000;stroke-width:11.3386;stroke-miterlimit:4;stroke-dasharray:none"
       id="path847" />
    <path
       d="M 187.98176,-3.97845 V 264.34811"
       style="fill:none;stroke:#000000;stroke-width:11.3386;stroke-miterlimit:4;stroke-dasharray:none"
       id="path849" />
    <path
       d="M 327.22752,-3.97845 V 264.34811"
       style="fill:none;stroke:#000000;stroke-width:11.3386;stroke-miterlimit:4;stroke-dasharray:none"
       id="path851" />
    <path
       d="M 466.47327,-3.97845 V 39.048487"
       style="fill:none;stroke:#000000;stroke-width:11.3386;stroke-miterlimit:4;stroke-dasharray:none"
       id="path853" />
    <path
       d="M 48.736013,-3.97845 H 744.96477"
       style="fill:none;stroke:#000000;stroke-width:11.3386;stroke-miterlimit:4;stroke-dasharray:none"
       id="path855" />
    <path
       d="M 48.736013,221.32118 H 744.96477"
       style="fill:none;stroke:#000000;stroke-width:11.3386;stroke-miterlimit:4;stroke-dasharray:none"
       id="path857" />
    <path
       d="M 48.736013,446.6208 H 744.96477"
       style="fill:none;stroke:#000000;stroke-width:11.3386;stroke-miterlimit:4;stroke-dasharray:none"
       id="path859" />
    <path
       d="M 48.736013,671.92043 H 744.96477"
       style="fill:none;stroke:#000000;stroke-width:11.3386;stroke-miterlimit:4;stroke-dasharray:none"
       id="path861" />
    <path
       d="M 48.736013,897.22006 H 744.96477"
       style="fill:none;stroke:#000000;stroke-width:11.3386;stroke-miterlimit:4;stroke-dasharray:none"
       id="path863" />
    <path
       d="M 48.736013,-47.005387 H 744.96477"
       style="fill:none;stroke:#000000;stroke-width:11.3386;stroke-miterlimit:4;stroke-dasharray:none"
       id="path865" />
    <path
       d="m 257.60464,333.97099 a 69.622877,69.622877 0 1 0 -139.24575,0 69.622876,69.622876 0 1 0 139.24575,0 z"
       style="fill:none;stroke:#000000;stroke-width:11.3386;stroke-miterlimit:4;stroke-dasharray:none"
       id="path867" />
    <path
       d="m 536.09615,108.67136 a 69.62288,69.62288 0 1 0 -139.24576,0 69.62288,69.62288 0 1 0 139.24576,0 z"
       style="fill:none;stroke:#000000;stroke-width:11.3386;stroke-miterlimit:4;stroke-dasharray:none"
       id="path869" />
    <path
       d="M 605.71902,-3.97845 V 897.22006"
       style="fill:none;stroke:#000000;stroke-width:11.3386;stroke-miterlimit:4;stroke-dasharray:none"
       id="path871" />
    <path
       d="M 466.47327,178.29424 V 897.22006"
       style="fill:none;stroke:#000000;stroke-width:11.3386;stroke-miterlimit:4;stroke-dasharray:none"
       id="path873" />
    <path
       d="M 744.96477,-47.005387 V 897.22006"
       style="fill:none;stroke:#000000;stroke-width:11.3386;stroke-miterlimit:4;stroke-dasharray:none"
       id="path875" />
    <path
       d="m 396.85039,333.97099 a 69.622876,69.622876 0 1 0 -139.24575,0 69.622876,69.622876 0 1 0 139.24575,0 z"
       style="fill:none;stroke:#000000;stroke-width:11.3386;stroke-miterlimit:4;stroke-dasharray:none"
       id="path877" />
    <path
       d="M 327.22752,403.59387 V 897.22006"
       style="fill:none;stroke:#000000;stroke-width:11.3386;stroke-miterlimit:4;stroke-dasharray:none"
       id="path879" />
    <path
       d="M 187.98176,403.59387 V 897.22006"
       style="fill:none;stroke:#000000;stroke-width:11.3386;stroke-miterlimit:4;stroke-dasharray:none"
       id="path881" />
    <path
       d="m 97.472027,-159.6552 a 48.736013,48.736013 0 1 0 -97.472027,0 48.736013,48.736013 0 1 0 97.472027,0 z"
       style="fill:none;stroke:#000000;stroke-width:11.3386;stroke-miterlimit:4;stroke-dasharray:none"
       id="path883" />
    <path
       d="m 793.70079,-159.6552 a 48.736015,48.736015 0 1 0 -97.47203,0 48.736015,48.736015 0 1 0 97.47203,0 z"
       style="fill:none;stroke:#000000;stroke-width:11.3386;stroke-miterlimit:4;stroke-dasharray:none"
       id="path885" />
    <path
       d="m 654.45503,-159.6552 a 48.736013,48.736013 0 1 0 -97.47202,0 48.736013,48.736013 0 1 0 97.47202,0 z"
       style="fill:none;stroke:#000000;stroke-width:11.3386;stroke-miterlimit:4;stroke-dasharray:none"
       id="path887" />
    <path
       style="fill:#000000;stroke:#000000;stroke-width:15.1908;stroke-miterlimit:4;stroke-dasharray:none"
       d="m 174.444,608.13194 c -27.20929,-8.69811 -45.52776,-35.8005 -43.5182,-64.38567 1.354,-19.26019 11.49125,-36.90936 27.44301,-47.77885 41.80846,-28.4882 98.01717,1.62631 98.1027,52.55973 0.046,27.40671 -18.73771,52.23674 -45.44368,60.07157 -9.78405,2.87038 -26.82475,2.65296 -36.58383,-0.46678 z"
       id="path907"
       transform="translate(-5.6692915,-214.07758)" />
    <path
       style="fill:#000000;stroke:#000000;stroke-width:15.1908;stroke-miterlimit:4;stroke-dasharray:none"
       d="m 313.77755,608.13194 c -44.35099,-14.17788 -58.43898,-70.94908 -25.80612,-103.99244 33.98301,-34.41048 90.88665,-20.38938 105.18981,25.91886 2.9055,9.4069 3.42048,22.83141 1.23886,32.29459 -4.77877,20.72889 -22.27446,39.41906 -42.91261,45.84237 -10.60872,3.30181 -27.27064,3.27381 -37.70994,-0.0634 z"
       id="path909"
       transform="translate(-5.6692915,-214.07758)" />
    <path
       style="fill:#000000;stroke:#000000;stroke-width:15.1908;stroke-miterlimit:4;stroke-dasharray:none"
       d="m 457.11988,384.20404 c -2.76017,-0.65069 -8.55099,-2.96627 -12.86848,-5.14574 -38.68923,-19.53026 -46.92543,-70.14716 -16.38373,-100.68886 24.87447,-24.87446 63.76312,-24.87446 88.63758,0 12.02747,12.02748 18.64926,27.76373 18.64926,44.31879 0,28.24784 -19.81459,53.72138 -47.56097,61.14418 -7.46216,1.9963 -22.78911,2.18321 -30.47366,0.37163 z"
       id="path911"
       transform="translate(-5.6692915,-214.07758)" />
    <path
       style="fill:#000000;stroke:#000000;stroke-width:15.1908;stroke-miterlimit:4;stroke-dasharray:none"
       d="m 60.88454,188.71366 v -14.7372 h 341.63515 341.63514 v 14.7372 14.7372 H 402.51969 60.88454 Z"
       id="path913"
       transform="translate(-5.6692915,-214.07758)" />
  </g>
  <desc
     id="desc891">E.dxf - scale = 36.842105, origin = (5.650000, -8.090000), method = auto</desc>
</svg>
