<?xml version="1.0" encoding="UTF-8" standalone="no"?>
<svg
   xmlns:dc="http://purl.org/dc/elements/1.1/"
   xmlns:cc="http://creativecommons.org/ns#"
   xmlns:rdf="http://www.w3.org/1999/02/22-rdf-syntax-ns#"
   xmlns:svg="http://www.w3.org/2000/svg"
   xmlns="http://www.w3.org/2000/svg"
   xmlns:sodipodi="http://sodipodi.sourceforge.net/DTD/sodipodi-0.dtd"
   xmlns:inkscape="http://www.inkscape.org/namespaces/inkscape"
   viewBox="0 0 815.99998 1344"
   width="8.5in"
   height="14in"
   version="1.1"
   id="svg70"
   sodipodi:docname="E.svg"
   inkscape:version="1.0.2 (e86c870879, 2021-01-15, custom)">
  <metadata
     id="metadata74">
    <rdf:RDF>
      <cc:Work
         rdf:about="">
        <dc:format>image/svg+xml</dc:format>
        <dc:type
           rdf:resource="http://purl.org/dc/dcmitype/StillImage" />
        <dc:title></dc:title>
      </cc:Work>
    </rdf:RDF>
  </metadata>
  <sodipodi:namedview
     pagecolor="#ffffff"
     bordercolor="#666666"
     borderopacity="1"
     objecttolerance="10"
     gridtolerance="10"
     guidetolerance="10"
     inkscape:pageopacity="0"
     inkscape:pageshadow="2"
     inkscape:window-width="1346"
     inkscape:window-height="1040"
     id="namedview72"
     showgrid="false"
     units="in"
     inkscape:zoom="0.36836772"
     inkscape:cx="396.8504"
     inkscape:cy="887.02127"
     inkscape:window-x="26"
     inkscape:window-y="0"
     inkscape:window-maximized="0"
     inkscape:current-layer="g66" />
  <defs
     id="defs22">
    <marker
       id="DistanceX"
       orient="auto"
       refX="0"
       refY="0"
       style="overflow:visible">
      <path
         d="M 3,-3 -3,3 M 0,-5 V 5"
         style="stroke:#000000;stroke-width:0.5"
         id="path10" />
    </marker>
    <pattern
       id="Hatch"
       patternUnits="userSpaceOnUse"
       width="8"
       height="8"
       x="0"
       y="0">
      <path
         d="M8 4 l-4,4"
         stroke="#000000"
         stroke-width="0.25"
         linecap="square"
         id="path13" />
      <path
         d="M6 2 l-4,4"
         stroke="#000000"
         stroke-width="0.25"
         linecap="square"
         id="path15" />
      <path
         d="M4 0 l-4,4"
         stroke="#000000"
         stroke-width="0.25"
         linecap="square"
         id="path17" />
    </pattern>
    <symbol
       id="$MODEL_SPACE" />
    <symbol
       id="$PAPER_SPACE" />
  </defs>
  <g
     inkscape:groupmode="layer"
     inkscape:label="0"
     id="g66">
    <path
       id="path24"
       style="color:#000000;font-style:normal;font-variant:normal;font-weight:normal;font-stretch:normal;font-size:medium;line-height:normal;font-family:sans-serif;font-variant-ligatures:normal;font-variant-position:normal;font-variant-caps:normal;font-variant-numeric:normal;font-variant-alternates:normal;font-variant-east-asian:normal;font-feature-settings:normal;font-variation-settings:normal;text-indent:0;text-align:start;text-decoration:none;text-decoration-line:none;text-decoration-style:solid;text-decoration-color:#000000;letter-spacing:normal;word-spacing:normal;text-transform:none;writing-mode:lr-tb;direction:ltr;text-orientation:mixed;dominant-baseline:auto;baseline-shift:baseline;text-anchor:start;white-space:normal;shape-padding:0;shape-margin:0;inline-size:0;clip-rule:nonzero;display:inline;overflow:visible;visibility:visible;opacity:1;isolation:auto;mix-blend-mode:normal;color-interpolation:sRGB;color-interpolation-filters:linearRGB;solid-color:#000000;solid-opacity:1;vector-effect:none;fill:#000000;fill-opacity:1;fill-rule:nonzero;stroke:none;stroke-linecap:butt;stroke-linejoin:miter;stroke-miterlimit:4;stroke-dasharray:none;stroke-dashoffset:0;stroke-opacity:1;color-rendering:auto;image-rendering:auto;shape-rendering:auto;text-rendering:auto;enable-background:accumulate;stop-color:#000000;stop-opacity:1"
       d="m 61.642578,187.4707 c 0,372.34961 0,744.69922 0,1117.0488 3,0 6,0 9,0 0,-373.01624 0,-746.03252 0,-1119.0488 -3,0 -6,0 -9,0 0,0.66667 0,1.33334 0,2 z" />
    <path
       id="path26"
       style="color:#000000;font-style:normal;font-variant:normal;font-weight:normal;font-stretch:normal;font-size:medium;line-height:normal;font-family:sans-serif;font-variant-ligatures:normal;font-variant-position:normal;font-variant-caps:normal;font-variant-numeric:normal;font-variant-alternates:normal;font-variant-east-asian:normal;font-feature-settings:normal;font-variation-settings:normal;text-indent:0;text-align:start;text-decoration:none;text-decoration-line:none;text-decoration-style:solid;text-decoration-color:#000000;letter-spacing:normal;word-spacing:normal;text-transform:none;writing-mode:lr-tb;direction:ltr;text-orientation:mixed;dominant-baseline:auto;baseline-shift:baseline;text-anchor:start;white-space:normal;shape-padding:0;shape-margin:0;inline-size:0;clip-rule:nonzero;display:inline;overflow:visible;visibility:visible;opacity:1;isolation:auto;mix-blend-mode:normal;color-interpolation:sRGB;color-interpolation-filters:linearRGB;solid-color:#000000;solid-opacity:1;vector-effect:none;fill:#000000;fill-opacity:1;fill-rule:nonzero;stroke:none;stroke-linecap:butt;stroke-linejoin:miter;stroke-miterlimit:4;stroke-dasharray:none;stroke-dashoffset:0;stroke-opacity:1;color-rendering:auto;image-rendering:auto;shape-rendering:auto;text-rendering:auto;enable-background:accumulate;stop-color:#000000;stop-opacity:1"
       d="m 193.92578,228.3457 c 0,86.97006 0,173.94011 0,260.91016 3,0 6,0 9,0 0,-87.63672 0,-175.27344 0,-262.91016 -3,0 -6,0 -9,0 0,0.66667 0,1.33334 0,2 z" />
    <path
       id="path28"
       style="color:#000000;font-style:normal;font-variant:normal;font-weight:normal;font-stretch:normal;font-size:medium;line-height:normal;font-family:sans-serif;font-variant-ligatures:normal;font-variant-position:normal;font-variant-caps:normal;font-variant-numeric:normal;font-variant-alternates:normal;font-variant-east-asian:normal;font-feature-settings:normal;font-variation-settings:normal;text-indent:0;text-align:start;text-decoration:none;text-decoration-line:none;text-decoration-style:solid;text-decoration-color:#000000;letter-spacing:normal;word-spacing:normal;text-transform:none;writing-mode:lr-tb;direction:ltr;text-orientation:mixed;dominant-baseline:auto;baseline-shift:baseline;text-anchor:start;white-space:normal;shape-padding:0;shape-margin:0;inline-size:0;clip-rule:nonzero;display:inline;overflow:visible;visibility:visible;opacity:1;isolation:auto;mix-blend-mode:normal;color-interpolation:sRGB;color-interpolation-filters:linearRGB;solid-color:#000000;solid-opacity:1;vector-effect:none;fill:#000000;fill-opacity:1;fill-rule:nonzero;stroke:none;stroke-linecap:butt;stroke-linejoin:miter;stroke-miterlimit:4;stroke-dasharray:none;stroke-dashoffset:0;stroke-opacity:1;color-rendering:auto;image-rendering:auto;shape-rendering:auto;text-rendering:auto;enable-background:accumulate;stop-color:#000000;stop-opacity:1"
       d="m 326.20898,228.3457 c 0,86.97006 0,173.94011 0,260.91016 3,0 6,0 9,0 0,-87.63672 0,-175.27344 0,-262.91016 -3,0 -6,0 -9,0 0,0.66667 0,1.33334 0,2 z" />
    <path
       id="path30"
       style="color:#000000;font-style:normal;font-variant:normal;font-weight:normal;font-stretch:normal;font-size:medium;line-height:normal;font-family:sans-serif;font-variant-ligatures:normal;font-variant-position:normal;font-variant-caps:normal;font-variant-numeric:normal;font-variant-alternates:normal;font-variant-east-asian:normal;font-feature-settings:normal;font-variation-settings:normal;text-indent:0;text-align:start;text-decoration:none;text-decoration-line:none;text-decoration-style:solid;text-decoration-color:#000000;letter-spacing:normal;word-spacing:normal;text-transform:none;writing-mode:lr-tb;direction:ltr;text-orientation:mixed;dominant-baseline:auto;baseline-shift:baseline;text-anchor:start;white-space:normal;shape-padding:0;shape-margin:0;inline-size:0;clip-rule:nonzero;display:inline;overflow:visible;visibility:visible;opacity:1;isolation:auto;mix-blend-mode:normal;color-interpolation:sRGB;color-interpolation-filters:linearRGB;solid-color:#000000;solid-opacity:1;vector-effect:none;fill:#000000;fill-opacity:1;fill-rule:nonzero;stroke:none;stroke-linecap:butt;stroke-linejoin:miter;stroke-miterlimit:4;stroke-dasharray:none;stroke-dashoffset:0;stroke-opacity:1;color-rendering:auto;image-rendering:auto;shape-rendering:auto;text-rendering:auto;enable-background:accumulate;stop-color:#000000;stop-opacity:1"
       d="m 458.49219,228.3457 c 0,15.62565 0,31.2513 0,46.87696 3,0 6,0 9,0 0,-16.29232 0,-32.58464 0,-48.87696 -3,0 -6,0 -9,0 0,0.66667 0,1.33334 0,2 z" />
    <path
       id="path32"
       style="color:#000000;font-style:normal;font-variant:normal;font-weight:normal;font-stretch:normal;font-size:medium;line-height:normal;font-family:sans-serif;font-variant-ligatures:normal;font-variant-position:normal;font-variant-caps:normal;font-variant-numeric:normal;font-variant-alternates:normal;font-variant-east-asian:normal;font-feature-settings:normal;font-variation-settings:normal;text-indent:0;text-align:start;text-decoration:none;text-decoration-line:none;text-decoration-style:solid;text-decoration-color:#000000;letter-spacing:normal;word-spacing:normal;text-transform:none;writing-mode:lr-tb;direction:ltr;text-orientation:mixed;dominant-baseline:auto;baseline-shift:baseline;text-anchor:start;white-space:normal;shape-padding:0;shape-margin:0;inline-size:0;clip-rule:nonzero;display:inline;overflow:visible;visibility:visible;opacity:1;isolation:auto;mix-blend-mode:normal;color-interpolation:sRGB;color-interpolation-filters:linearRGB;solid-color:#000000;solid-opacity:1;vector-effect:none;fill:#000000;fill-opacity:1;fill-rule:nonzero;stroke:none;stroke-linecap:butt;stroke-linejoin:miter;stroke-miterlimit:4;stroke-dasharray:none;stroke-dashoffset:0;stroke-opacity:1;color-rendering:auto;image-rendering:auto;shape-rendering:auto;text-rendering:auto;enable-background:accumulate;stop-color:#000000;stop-opacity:1"
       d="m 62.142578,227.8457 c 0,2.33334 0,4.66667 0,7 223.138672,0 446.277342,0 669.416012,0 0,-3 0,-6 0,-9 -223.13867,0 -446.27734,0 -669.416012,0 0,0.66667 0,1.33334 0,2 z" />
    <path
       id="path34"
       style="color:#000000;font-style:normal;font-variant:normal;font-weight:normal;font-stretch:normal;font-size:medium;line-height:normal;font-family:sans-serif;font-variant-ligatures:normal;font-variant-position:normal;font-variant-caps:normal;font-variant-numeric:normal;font-variant-alternates:normal;font-variant-east-asian:normal;font-feature-settings:normal;font-variation-settings:normal;text-indent:0;text-align:start;text-decoration:none;text-decoration-line:none;text-decoration-style:solid;text-decoration-color:#000000;letter-spacing:normal;word-spacing:normal;text-transform:none;writing-mode:lr-tb;direction:ltr;text-orientation:mixed;dominant-baseline:auto;baseline-shift:baseline;text-anchor:start;white-space:normal;shape-padding:0;shape-margin:0;inline-size:0;clip-rule:nonzero;display:inline;overflow:visible;visibility:visible;opacity:1;isolation:auto;mix-blend-mode:normal;color-interpolation:sRGB;color-interpolation-filters:linearRGB;solid-color:#000000;solid-opacity:1;vector-effect:none;fill:#000000;fill-opacity:1;fill-rule:nonzero;stroke:none;stroke-linecap:butt;stroke-linejoin:miter;stroke-miterlimit:4;stroke-dasharray:none;stroke-dashoffset:0;stroke-opacity:1;color-rendering:auto;image-rendering:auto;shape-rendering:auto;text-rendering:auto;enable-background:accumulate;stop-color:#000000;stop-opacity:1"
       d="m 62.142578,441.88086 c 0,2.33333 0,4.66667 0,7 223.138672,0 446.277342,0 669.416012,0 0,-3 0,-6 0,-9 -223.13867,0 -446.27734,0 -669.416012,0 0,0.66667 0,1.33333 0,2 z" />
    <path
       id="path36"
       style="color:#000000;font-style:normal;font-variant:normal;font-weight:normal;font-stretch:normal;font-size:medium;line-height:normal;font-family:sans-serif;font-variant-ligatures:normal;font-variant-position:normal;font-variant-caps:normal;font-variant-numeric:normal;font-variant-alternates:normal;font-variant-east-asian:normal;font-feature-settings:normal;font-variation-settings:normal;text-indent:0;text-align:start;text-decoration:none;text-decoration-line:none;text-decoration-style:solid;text-decoration-color:#000000;letter-spacing:normal;word-spacing:normal;text-transform:none;writing-mode:lr-tb;direction:ltr;text-orientation:mixed;dominant-baseline:auto;baseline-shift:baseline;text-anchor:start;white-space:normal;shape-padding:0;shape-margin:0;inline-size:0;clip-rule:nonzero;display:inline;overflow:visible;visibility:visible;opacity:1;isolation:auto;mix-blend-mode:normal;color-interpolation:sRGB;color-interpolation-filters:linearRGB;solid-color:#000000;solid-opacity:1;vector-effect:none;fill:#000000;fill-opacity:1;fill-rule:nonzero;stroke:none;stroke-linecap:butt;stroke-linejoin:miter;stroke-miterlimit:4;stroke-dasharray:none;stroke-dashoffset:0;stroke-opacity:1;color-rendering:auto;image-rendering:auto;shape-rendering:auto;text-rendering:auto;enable-background:accumulate;stop-color:#000000;stop-opacity:1"
       d="m 62.142578,655.91602 c 0,2.33333 0,4.66666 0,7 223.138672,0 446.277342,0 669.416012,0 0,-3 0,-6 0,-9 -223.13867,0 -446.27734,0 -669.416012,0 0,0.66666 0,1.33333 0,2 z" />
    <path
       id="path38"
       style="color:#000000;font-style:normal;font-variant:normal;font-weight:normal;font-stretch:normal;font-size:medium;line-height:normal;font-family:sans-serif;font-variant-ligatures:normal;font-variant-position:normal;font-variant-caps:normal;font-variant-numeric:normal;font-variant-alternates:normal;font-variant-east-asian:normal;font-feature-settings:normal;font-variation-settings:normal;text-indent:0;text-align:start;text-decoration:none;text-decoration-line:none;text-decoration-style:solid;text-decoration-color:#000000;letter-spacing:normal;word-spacing:normal;text-transform:none;writing-mode:lr-tb;direction:ltr;text-orientation:mixed;dominant-baseline:auto;baseline-shift:baseline;text-anchor:start;white-space:normal;shape-padding:0;shape-margin:0;inline-size:0;clip-rule:nonzero;display:inline;overflow:visible;visibility:visible;opacity:1;isolation:auto;mix-blend-mode:normal;color-interpolation:sRGB;color-interpolation-filters:linearRGB;solid-color:#000000;solid-opacity:1;vector-effect:none;fill:#000000;fill-opacity:1;fill-rule:nonzero;stroke:none;stroke-linecap:butt;stroke-linejoin:miter;stroke-miterlimit:4;stroke-dasharray:none;stroke-dashoffset:0;stroke-opacity:1;color-rendering:auto;image-rendering:auto;shape-rendering:auto;text-rendering:auto;enable-background:accumulate;stop-color:#000000;stop-opacity:1"
       d="m 62.142578,869.95117 c 0,2.33334 0,4.66667 0,7 223.138672,0 446.277342,0 669.416012,0 0,-3 0,-6 0,-9 -223.13867,0 -446.27734,0 -669.416012,0 0,0.66667 0,1.33334 0,2 z" />
    <path
       id="path40"
       style="color:#000000;font-style:normal;font-variant:normal;font-weight:normal;font-stretch:normal;font-size:medium;line-height:normal;font-family:sans-serif;font-variant-ligatures:normal;font-variant-position:normal;font-variant-caps:normal;font-variant-numeric:normal;font-variant-alternates:normal;font-variant-east-asian:normal;font-feature-settings:normal;font-variation-settings:normal;text-indent:0;text-align:start;text-decoration:none;text-decoration-line:none;text-decoration-style:solid;text-decoration-color:#000000;letter-spacing:normal;word-spacing:normal;text-transform:none;writing-mode:lr-tb;direction:ltr;text-orientation:mixed;dominant-baseline:auto;baseline-shift:baseline;text-anchor:start;white-space:normal;shape-padding:0;shape-margin:0;inline-size:0;clip-rule:nonzero;display:inline;overflow:visible;visibility:visible;opacity:1;isolation:auto;mix-blend-mode:normal;color-interpolation:sRGB;color-interpolation-filters:linearRGB;solid-color:#000000;solid-opacity:1;vector-effect:none;fill:#000000;fill-opacity:1;fill-rule:nonzero;stroke:none;stroke-linecap:butt;stroke-linejoin:miter;stroke-miterlimit:4;stroke-dasharray:none;stroke-dashoffset:0;stroke-opacity:1;color-rendering:auto;image-rendering:auto;shape-rendering:auto;text-rendering:auto;enable-background:accumulate;stop-color:#000000;stop-opacity:1"
       d="m 62.142578,1083.9844 c 0,2.3333 0,4.6666 0,7 223.138672,0 446.277342,0 669.416012,0 0,-3 0,-6 0,-9 -223.13867,0 -446.27734,0 -669.416012,0 0,0.6666 0,1.3333 0,2 z" />
    <path
       id="path42"
       style="color:#000000;font-style:normal;font-variant:normal;font-weight:normal;font-stretch:normal;font-size:medium;line-height:normal;font-family:sans-serif;font-variant-ligatures:normal;font-variant-position:normal;font-variant-caps:normal;font-variant-numeric:normal;font-variant-alternates:normal;font-variant-east-asian:normal;font-feature-settings:normal;font-variation-settings:normal;text-indent:0;text-align:start;text-decoration:none;text-decoration-line:none;text-decoration-style:solid;text-decoration-color:#000000;letter-spacing:normal;word-spacing:normal;text-transform:none;writing-mode:lr-tb;direction:ltr;text-orientation:mixed;dominant-baseline:auto;baseline-shift:baseline;text-anchor:start;white-space:normal;shape-padding:0;shape-margin:0;inline-size:0;clip-rule:nonzero;display:inline;overflow:visible;visibility:visible;opacity:1;isolation:auto;mix-blend-mode:normal;color-interpolation:sRGB;color-interpolation-filters:linearRGB;solid-color:#000000;solid-opacity:1;vector-effect:none;fill:#000000;fill-opacity:1;fill-rule:nonzero;stroke:none;stroke-linecap:butt;stroke-linejoin:miter;stroke-miterlimit:4;stroke-dasharray:none;stroke-dashoffset:0;stroke-opacity:1;color-rendering:auto;image-rendering:auto;shape-rendering:auto;text-rendering:auto;enable-background:accumulate;stop-color:#000000;stop-opacity:1"
       d="m 62.142578,1298.0195 c 0,2.3334 0,4.6667 0,7 223.138672,0 446.277342,0 669.416012,0 0,-3 0,-6 0,-9 -223.13867,0 -446.27734,0 -669.416012,0 0,0.6667 0,1.3334 0,2 z" />
    <path
       id="path44"
       style="color:#000000;font-style:normal;font-variant:normal;font-weight:normal;font-stretch:normal;font-size:medium;line-height:normal;font-family:sans-serif;font-variant-ligatures:normal;font-variant-position:normal;font-variant-caps:normal;font-variant-numeric:normal;font-variant-alternates:normal;font-variant-east-asian:normal;font-feature-settings:normal;font-variation-settings:normal;text-indent:0;text-align:start;text-decoration:none;text-decoration-line:none;text-decoration-style:solid;text-decoration-color:#000000;letter-spacing:normal;word-spacing:normal;text-transform:none;writing-mode:lr-tb;direction:ltr;text-orientation:mixed;dominant-baseline:auto;baseline-shift:baseline;text-anchor:start;white-space:normal;shape-padding:0;shape-margin:0;inline-size:0;clip-rule:nonzero;display:inline;overflow:visible;visibility:visible;opacity:1;isolation:auto;mix-blend-mode:normal;color-interpolation:sRGB;color-interpolation-filters:linearRGB;solid-color:#000000;solid-opacity:1;vector-effect:none;fill:#000000;fill-opacity:1;fill-rule:nonzero;stroke:none;stroke-linecap:butt;stroke-linejoin:miter;stroke-miterlimit:4;stroke-dasharray:none;stroke-dashoffset:0;stroke-opacity:1;color-rendering:auto;image-rendering:auto;shape-rendering:auto;text-rendering:auto;enable-background:accumulate;stop-color:#000000;stop-opacity:1"
       d="m 62.142578,186.9707 c 0,2.33334 0,4.66667 0,7 223.138672,0 446.277342,0 669.416012,0 0,-3 0,-6 0,-9 -223.13867,0 -446.27734,0 -669.416012,0 0,0.66667 0,1.33334 0,2 z" />
    <path
       id="path46"
       style="color:#000000;font-style:normal;font-variant:normal;font-weight:normal;font-stretch:normal;font-size:medium;line-height:normal;font-family:sans-serif;font-variant-ligatures:normal;font-variant-position:normal;font-variant-caps:normal;font-variant-numeric:normal;font-variant-alternates:normal;font-variant-east-asian:normal;font-feature-settings:normal;font-variation-settings:normal;text-indent:0;text-align:start;text-decoration:none;text-decoration-line:none;text-decoration-style:solid;text-decoration-color:#000000;letter-spacing:normal;word-spacing:normal;text-transform:none;writing-mode:lr-tb;direction:ltr;text-orientation:mixed;dominant-baseline:auto;baseline-shift:baseline;text-anchor:start;white-space:normal;shape-padding:0;shape-margin:0;inline-size:0;clip-rule:nonzero;display:inline;overflow:visible;visibility:visible;opacity:1;isolation:auto;mix-blend-mode:normal;color-interpolation:sRGB;color-interpolation-filters:linearRGB;solid-color:#000000;solid-opacity:1;vector-effect:none;fill:#000000;fill-opacity:1;fill-rule:nonzero;stroke:none;stroke-linecap:butt;stroke-linejoin:miter;stroke-miterlimit:4;stroke-dasharray:none;stroke-dashoffset:0;stroke-opacity:1;color-rendering:auto;image-rendering:auto;shape-rendering:auto;text-rendering:auto;enable-background:accumulate;stop-color:#000000;stop-opacity:1"
       d="m 196.65234,480.77734 c -15.57305,0.34135 -30.96276,6.05359 -42.98059,15.96552 -12.14871,9.93216 -20.87306,23.9993 -24.22057,39.34251 -3.58335,16.11718 -1.33912,33.48457 6.38645,48.09274 7.89218,15.10934 21.43185,27.17682 37.3743,33.22811 16.3581,6.27852 35.06369,6.16835 51.33177,-0.35217 14.95485,-5.9401 27.74126,-17.14913 35.56844,-31.21096 7.26854,-12.94637 10.25455,-28.22253 8.44566,-42.95584 -1.60843,-13.45526 -7.20213,-26.39852 -15.91658,-36.77812 -10.08039,-12.06554 -24.25723,-20.68173 -39.67586,-23.84701 -5.3556,-1.12438 -10.84289,-1.6109 -16.31302,-1.48478 z m 1.78321,8.97852 c 3.11937,-0.009 6.42384,0.24861 9.38867,0.71289 12.47752,1.89548 24.31509,7.74874 33.3678,16.54612 11.19146,10.67772 18.0664,25.72951 18.79049,41.18197 0.10582,1.85056 0.11446,3.9426 0.0249,5.90815 -0.0538,1.31321 -0.15705,2.62544 -0.28894,3.83724 -0.21756,2.08814 -0.58306,4.35199 -0.99772,6.28824 -0.2375,1.08825 -0.45003,2.02656 -0.75107,3.14069 -4.03801,15.36324 -14.35548,28.92419 -28.01965,37.00573 -10.51958,6.30604 -22.95907,9.31438 -35.19794,8.55277 -11.93005,-0.6844 -23.62845,-4.93267 -33.18397,-12.11476 -11.42099,-8.51149 -19.78783,-21.06538 -23.07595,-34.93901 -3.42473,-14.21878 -1.65567,-29.653 5.08799,-42.64918 7.20962,-14.07672 20.02331,-25.19127 35.03261,-30.21403 6.37063,-2.15973 13.09704,-3.25281 19.82283,-3.25682 z" />
    <path
       id="path48"
       style="color:#000000;font-style:normal;font-variant:normal;font-weight:normal;font-stretch:normal;font-size:medium;line-height:normal;font-family:sans-serif;font-variant-ligatures:normal;font-variant-position:normal;font-variant-caps:normal;font-variant-numeric:normal;font-variant-alternates:normal;font-variant-east-asian:normal;font-feature-settings:normal;font-variation-settings:normal;text-indent:0;text-align:start;text-decoration:none;text-decoration-line:none;text-decoration-style:solid;text-decoration-color:#000000;letter-spacing:normal;word-spacing:normal;text-transform:none;writing-mode:lr-tb;direction:ltr;text-orientation:mixed;dominant-baseline:auto;baseline-shift:baseline;text-anchor:start;white-space:normal;shape-padding:0;shape-margin:0;inline-size:0;clip-rule:nonzero;display:inline;overflow:visible;visibility:visible;opacity:1;isolation:auto;mix-blend-mode:normal;color-interpolation:sRGB;color-interpolation-filters:linearRGB;solid-color:#000000;solid-opacity:1;vector-effect:none;fill:#000000;fill-opacity:1;fill-rule:nonzero;stroke:none;stroke-linecap:butt;stroke-linejoin:miter;stroke-miterlimit:4;stroke-dasharray:none;stroke-dashoffset:0;stroke-opacity:1;color-rendering:auto;image-rendering:auto;shape-rendering:auto;text-rendering:auto;enable-background:accumulate;stop-color:#000000;stop-opacity:1"
       d="m 461.21875,266.74414 c -15.74068,0.34384 -31.2919,6.1794 -43.36734,16.28444 -12.3068,10.20696 -21.02701,24.68322 -24.12,40.38476 -3.17847,15.7618 -0.82115,32.60123 6.71828,46.81858 7.90047,15.06716 21.41687,27.09995 37.32865,33.13914 16.35164,6.27572 35.04943,6.16917 51.31269,-0.34514 14.93898,-5.92661 27.71439,-17.11292 35.54962,-31.14724 7.12379,-12.65856 10.15852,-27.54996 8.60442,-41.98895 -1.4331,-13.68537 -6.97952,-26.90582 -15.77369,-37.49296 -9.77201,-11.85059 -23.4808,-20.41828 -38.46641,-23.84655 -5.82212,-1.34568 -11.81273,-1.9466 -17.78622,-1.80608 z M 463,275.72266 c 3.12001,-0.009 6.42516,0.24851 9.39062,0.71289 12.32645,1.87053 24.0243,7.60783 33.03834,16.223 10.9304,10.29849 17.86249,24.72644 19.00536,39.70691 1.11185,13.47543 -2.33349,27.29429 -9.7551,38.60836 -8.17419,12.58473 -21.06492,22.04151 -35.57867,25.90765 -14.62899,3.9561 -30.71484,2.33993 -44.191,-4.6271 -13.87955,-7.07924 -24.88755,-19.6016 -30.04466,-34.31262 -1.2107,-3.41268 -2.0996,-6.93672 -2.69301,-10.50816 -0.0419,-0.32754 -0.16549,-1.07074 -0.23154,-1.56402 -1.79193,-12.81651 0.53269,-26.18791 6.68618,-37.58475 6.57901,-12.31652 17.44817,-22.29024 30.33315,-27.69296 7.58049,-3.23153 15.80226,-4.87596 24.04033,-4.8692 z" />
    <path
       id="path50"
       style="color:#000000;font-style:normal;font-variant:normal;font-weight:normal;font-stretch:normal;font-size:medium;line-height:normal;font-family:sans-serif;font-variant-ligatures:normal;font-variant-position:normal;font-variant-caps:normal;font-variant-numeric:normal;font-variant-alternates:normal;font-variant-east-asian:normal;font-feature-settings:normal;font-variation-settings:normal;text-indent:0;text-align:start;text-decoration:none;text-decoration-line:none;text-decoration-style:solid;text-decoration-color:#000000;letter-spacing:normal;word-spacing:normal;text-transform:none;writing-mode:lr-tb;direction:ltr;text-orientation:mixed;dominant-baseline:auto;baseline-shift:baseline;text-anchor:start;white-space:normal;shape-padding:0;shape-margin:0;inline-size:0;clip-rule:nonzero;display:inline;overflow:visible;visibility:visible;opacity:1;isolation:auto;mix-blend-mode:normal;color-interpolation:sRGB;color-interpolation-filters:linearRGB;solid-color:#000000;solid-opacity:1;vector-effect:none;fill:#000000;fill-opacity:1;fill-rule:nonzero;stroke:none;stroke-linecap:butt;stroke-linejoin:miter;stroke-miterlimit:4;stroke-dasharray:none;stroke-dashoffset:0;stroke-opacity:1;color-rendering:auto;image-rendering:auto;shape-rendering:auto;text-rendering:auto;enable-background:accumulate;stop-color:#000000;stop-opacity:1"
       d="m 590.77539,228.3457 c 0,358.72461 0,717.44922 0,1076.1738 3,0 6,0 9,0 0,-359.39124 0,-718.78252 0,-1078.1738 -3,0 -6,0 -9,0 0,0.66667 0,1.33334 0,2 z" />
    <path
       id="path52"
       style="color:#000000;font-style:normal;font-variant:normal;font-weight:normal;font-stretch:normal;font-size:medium;line-height:normal;font-family:sans-serif;font-variant-ligatures:normal;font-variant-position:normal;font-variant-caps:normal;font-variant-numeric:normal;font-variant-alternates:normal;font-variant-east-asian:normal;font-feature-settings:normal;font-variation-settings:normal;text-indent:0;text-align:start;text-decoration:none;text-decoration-line:none;text-decoration-style:solid;text-decoration-color:#000000;letter-spacing:normal;word-spacing:normal;text-transform:none;writing-mode:lr-tb;direction:ltr;text-orientation:mixed;dominant-baseline:auto;baseline-shift:baseline;text-anchor:start;white-space:normal;shape-padding:0;shape-margin:0;inline-size:0;clip-rule:nonzero;display:inline;overflow:visible;visibility:visible;opacity:1;isolation:auto;mix-blend-mode:normal;color-interpolation:sRGB;color-interpolation-filters:linearRGB;solid-color:#000000;solid-opacity:1;vector-effect:none;fill:#000000;fill-opacity:1;fill-rule:nonzero;stroke:none;stroke-linecap:butt;stroke-linejoin:miter;stroke-miterlimit:4;stroke-dasharray:none;stroke-dashoffset:0;stroke-opacity:1;color-rendering:auto;image-rendering:auto;shape-rendering:auto;text-rendering:auto;enable-background:accumulate;stop-color:#000000;stop-opacity:1"
       d="m 458.49219,401.50586 c 0,301.00456 0,602.00914 0,903.01364 3,0 6,0 9,0 0,-301.6712 0,-603.34242 0,-905.01364 -3,0 -6,0 -9,0 0,0.66667 0,1.33333 0,2 z" />
    <path
       id="path54"
       style="color:#000000;font-style:normal;font-variant:normal;font-weight:normal;font-stretch:normal;font-size:medium;line-height:normal;font-family:sans-serif;font-variant-ligatures:normal;font-variant-position:normal;font-variant-caps:normal;font-variant-numeric:normal;font-variant-alternates:normal;font-variant-east-asian:normal;font-feature-settings:normal;font-variation-settings:normal;text-indent:0;text-align:start;text-decoration:none;text-decoration-line:none;text-decoration-style:solid;text-decoration-color:#000000;letter-spacing:normal;word-spacing:normal;text-transform:none;writing-mode:lr-tb;direction:ltr;text-orientation:mixed;dominant-baseline:auto;baseline-shift:baseline;text-anchor:start;white-space:normal;shape-padding:0;shape-margin:0;inline-size:0;clip-rule:nonzero;display:inline;overflow:visible;visibility:visible;opacity:1;isolation:auto;mix-blend-mode:normal;color-interpolation:sRGB;color-interpolation-filters:linearRGB;solid-color:#000000;solid-opacity:1;vector-effect:none;fill:#000000;fill-opacity:1;fill-rule:nonzero;stroke:none;stroke-linecap:butt;stroke-linejoin:miter;stroke-miterlimit:4;stroke-dasharray:none;stroke-dashoffset:0;stroke-opacity:1;color-rendering:auto;image-rendering:auto;shape-rendering:auto;text-rendering:auto;enable-background:accumulate;stop-color:#000000;stop-opacity:1"
       d="m 723.05859,187.4707 c 0,372.34961 0,744.69922 0,1117.0488 3,0 6,0 9,0 0,-373.01624 0,-746.03252 0,-1119.0488 -3,0 -6,0 -9,0 0,0.66667 0,1.33334 0,2 z" />
    <path
       id="path56"
       style="color:#000000;font-style:normal;font-variant:normal;font-weight:normal;font-stretch:normal;font-size:medium;line-height:normal;font-family:sans-serif;font-variant-ligatures:normal;font-variant-position:normal;font-variant-caps:normal;font-variant-numeric:normal;font-variant-alternates:normal;font-variant-east-asian:normal;font-feature-settings:normal;font-variation-settings:normal;text-indent:0;text-align:start;text-decoration:none;text-decoration-line:none;text-decoration-style:solid;text-decoration-color:#000000;letter-spacing:normal;word-spacing:normal;text-transform:none;writing-mode:lr-tb;direction:ltr;text-orientation:mixed;dominant-baseline:auto;baseline-shift:baseline;text-anchor:start;white-space:normal;shape-padding:0;shape-margin:0;inline-size:0;clip-rule:nonzero;display:inline;overflow:visible;visibility:visible;opacity:1;isolation:auto;mix-blend-mode:normal;color-interpolation:sRGB;color-interpolation-filters:linearRGB;solid-color:#000000;solid-opacity:1;vector-effect:none;fill:#000000;fill-opacity:1;fill-rule:nonzero;stroke:none;stroke-linecap:butt;stroke-linejoin:miter;stroke-miterlimit:4;stroke-dasharray:none;stroke-dashoffset:0;stroke-opacity:1;color-rendering:auto;image-rendering:auto;shape-rendering:auto;text-rendering:auto;enable-background:accumulate;stop-color:#000000;stop-opacity:1"
       d="m 328.9375,480.76172 c -15.61634,0.34114 -31.04689,6.08651 -43.08046,16.04688 -12.4816,10.23205 -21.3137,24.84559 -24.42311,40.69492 -3.236,16.12088 -0.68292,33.36378 7.26844,47.77402 8.08842,14.84273 21.66627,26.61019 37.54547,32.42682 15.98354,5.91379 34.11767,5.80169 49.99662,-0.41052 15.18537,-5.86915 28.2043,-17.15605 36.11728,-31.38871 6.3537,-11.29373 9.47607,-24.36296 8.93135,-37.30881 -0.48273,-12.69327 -4.45969,-25.23452 -11.43762,-35.85413 -8.83482,-13.51139 -22.3937,-23.88849 -37.81335,-28.71718 -7.45134,-2.35524 -15.29334,-3.45014 -23.10462,-3.26329 z m 1.78906,8.97851 c 3.1492,-0.004 6.29776,0.23719 9.41016,0.7168 0.52633,0.0821 1.39466,0.22588 2.04719,0.35262 12.49761,2.33526 24.20091,8.67198 32.97875,17.87027 8.99479,9.34308 14.96414,21.57241 16.6352,34.44554 1.83378,13.55626 -0.93405,27.71509 -7.91511,39.49711 -7.52454,12.83063 -19.81657,22.79941 -33.97708,27.38739 -15.44584,5.07838 -32.90694,3.76224 -47.34821,-3.74568 -3.26999,-1.67742 -6.38327,-3.65666 -9.30355,-5.88733 -0.28339,-0.22161 -0.86739,-0.66733 -1.26548,-0.99651 -3.96986,-3.21077 -7.54708,-6.90719 -10.61148,-10.99177 -0.23561,-0.33638 -0.68394,-0.92165 -0.94502,-1.30174 -4.02976,-5.67799 -7.09486,-12.03935 -9.01201,-18.73341 -0.12572,-0.44923 -0.34908,-1.25243 -0.49214,-1.84265 -0.35784,-1.40151 -0.65585,-2.81788 -0.91216,-4.24134 -0.0523,-0.36292 -0.18688,-1.10888 -0.25839,-1.62607 -1.04464,-6.86307 -0.89397,-13.89949 0.37949,-20.72158 0.0788,-0.39823 0.22217,-1.16593 0.34776,-1.70706 2.91965,-13.72236 10.80465,-26.26822 21.75799,-35.00807 6.59465,-5.28846 14.30453,-9.16393 22.46261,-11.36691 0.39581,-0.10287 1.15254,-0.30696 1.69753,-0.42946 1.8709,-0.45068 3.76456,-0.80203 5.66966,-1.07249 0.5562,-0.0765 1.45245,-0.19456 2.14095,-0.2601 1.48397,-0.15506 3.04831,-0.25129 4.43168,-0.29913 0.69367,-0.0199 1.38782,-0.0256 2.08166,-0.0384 z" />
    <path
       id="path58"
       style="color:#000000;font-style:normal;font-variant:normal;font-weight:normal;font-stretch:normal;font-size:medium;line-height:normal;font-family:sans-serif;font-variant-ligatures:normal;font-variant-position:normal;font-variant-caps:normal;font-variant-numeric:normal;font-variant-alternates:normal;font-variant-east-asian:normal;font-feature-settings:normal;font-variation-settings:normal;text-indent:0;text-align:start;text-decoration:none;text-decoration-line:none;text-decoration-style:solid;text-decoration-color:#000000;letter-spacing:normal;word-spacing:normal;text-transform:none;writing-mode:lr-tb;direction:ltr;text-orientation:mixed;dominant-baseline:auto;baseline-shift:baseline;text-anchor:start;white-space:normal;shape-padding:0;shape-margin:0;inline-size:0;clip-rule:nonzero;display:inline;overflow:visible;visibility:visible;opacity:1;isolation:auto;mix-blend-mode:normal;color-interpolation:sRGB;color-interpolation-filters:linearRGB;solid-color:#000000;solid-opacity:1;vector-effect:none;fill:#000000;fill-opacity:1;fill-rule:nonzero;stroke:none;stroke-linecap:butt;stroke-linejoin:miter;stroke-miterlimit:4;stroke-dasharray:none;stroke-dashoffset:0;stroke-opacity:1;color-rendering:auto;image-rendering:auto;shape-rendering:auto;text-rendering:auto;enable-background:accumulate;stop-color:#000000;stop-opacity:1"
       d="m 326.20898,615.54102 c 0,229.6595 0,459.31898 0,688.97848 3,0 6,0 9,0 0,-230.3261 0,-460.65231 0,-690.97848 -3,0 -6,0 -9,0 0,0.66666 0,1.33333 0,2 z" />
    <path
       id="path60"
       style="color:#000000;font-style:normal;font-variant:normal;font-weight:normal;font-stretch:normal;font-size:medium;line-height:normal;font-family:sans-serif;font-variant-ligatures:normal;font-variant-position:normal;font-variant-caps:normal;font-variant-numeric:normal;font-variant-alternates:normal;font-variant-east-asian:normal;font-feature-settings:normal;font-variation-settings:normal;text-indent:0;text-align:start;text-decoration:none;text-decoration-line:none;text-decoration-style:solid;text-decoration-color:#000000;letter-spacing:normal;word-spacing:normal;text-transform:none;writing-mode:lr-tb;direction:ltr;text-orientation:mixed;dominant-baseline:auto;baseline-shift:baseline;text-anchor:start;white-space:normal;shape-padding:0;shape-margin:0;inline-size:0;clip-rule:nonzero;display:inline;overflow:visible;visibility:visible;opacity:1;isolation:auto;mix-blend-mode:normal;color-interpolation:sRGB;color-interpolation-filters:linearRGB;solid-color:#000000;solid-opacity:1;vector-effect:none;fill:#000000;fill-opacity:1;fill-rule:nonzero;stroke:none;stroke-linecap:butt;stroke-linejoin:miter;stroke-miterlimit:4;stroke-dasharray:none;stroke-dashoffset:0;stroke-opacity:1;color-rendering:auto;image-rendering:auto;shape-rendering:auto;text-rendering:auto;enable-background:accumulate;stop-color:#000000;stop-opacity:1"
       d="m 193.92578,615.54102 c 0,229.6595 0,459.31898 0,688.97848 3,0 6,0 9,0 0,-230.3261 0,-460.65231 0,-690.97848 -3,0 -6,0 -9,0 0,0.66666 0,1.33333 0,2 z" />
    <path
       id="path62"
       style="color:#000000;font-style:normal;font-variant:normal;font-weight:normal;font-stretch:normal;font-size:medium;line-height:normal;font-family:sans-serif;font-variant-ligatures:normal;font-variant-position:normal;font-variant-caps:normal;font-variant-numeric:normal;font-variant-alternates:normal;font-variant-east-asian:normal;font-feature-settings:normal;font-variation-settings:normal;text-indent:0;text-align:start;text-decoration:none;text-decoration-line:none;text-decoration-style:solid;text-decoration-color:#000000;letter-spacing:normal;word-spacing:normal;text-transform:none;writing-mode:lr-tb;direction:ltr;text-orientation:mixed;dominant-baseline:auto;baseline-shift:baseline;text-anchor:start;white-space:normal;shape-padding:0;shape-margin:0;inline-size:0;clip-rule:nonzero;display:inline;overflow:visible;visibility:visible;opacity:1;isolation:auto;mix-blend-mode:normal;color-interpolation:sRGB;color-interpolation-filters:linearRGB;solid-color:#000000;solid-opacity:1;vector-effect:none;fill:#000000;fill-opacity:1;fill-rule:nonzero;stroke:none;stroke-linecap:butt;stroke-linejoin:miter;stroke-miterlimit:4;stroke-dasharray:none;stroke-dashoffset:0;stroke-opacity:1;color-rendering:auto;image-rendering:auto;shape-rendering:auto;text-rendering:auto;enable-background:accumulate;stop-color:#000000;stop-opacity:1"
       d="m 64.880859,31.66992 c -12.68634,0.25677 -25.17453,5.53565 -34.220867,14.43059 -8.927184,8.67756 -14.504538,20.72742 -15.219236,33.167905 -0.789448,12.097496 2.932694,24.434045 10.341377,34.038045 7.91257,10.37801 19.942173,17.54556 32.876662,19.39478 12.487542,1.88094 25.651,-1.08076 36.06293,-8.24851 C 105.82253,116.93013 113.7536,104.85942 116.1089,91.643914 118.46342,78.951404 115.77922,65.38238 108.63718,54.61287 101.26743,43.32411 89.250669,35.15255 75.993683,32.61475 72.339053,31.89399 68.604442,31.58486 64.880859,31.66992 Z m 1.275391,8.98438 c 11.289775,-0.0604 22.489038,4.74754 30.242236,12.95103 7.325324,7.6415 11.574364,18.14613 11.546244,28.738787 0.0547,10.186935 -3.77367,20.338333 -10.586961,27.918793 -0.880402,0.99501 -1.996013,2.11718 -2.863628,2.90897 -0.556714,0.50112 -0.88074,0.79874 -1.435773,1.26482 -7.073324,5.97044 -16.161586,9.50851 -25.421029,9.7917 -5.990158,0.21265 -12.019791,-0.88193 -17.559214,-3.16981 -0.339929,-0.1512 -1.052776,-0.4471 -1.525928,-0.67247 -2.476387,-1.13568 -4.819651,-2.5476 -7.026806,-4.14198 -0.293139,-0.21264 -0.934572,-0.68948 -1.344939,-1.02283 C 31.471957,108.34799 25.662536,97.899101 24.568323,86.844882 23.444138,76.34806 26.445533,65.45516 32.906679,57.09067 37.621854,50.91519 44.090588,46.0986 51.353516,43.33984 c 0.406822,-0.15236 0.993911,-0.37124 1.490542,-0.52924 0.489032,-0.1698 0.91093,-0.29875 1.494402,-0.47241 3.834815,-1.11591 7.824388,-1.67867 11.81779,-1.68389 z" />
    <path
       id="path64"
       style="color:#000000;font-style:normal;font-variant:normal;font-weight:normal;font-stretch:normal;font-size:medium;line-height:normal;font-family:sans-serif;font-variant-ligatures:normal;font-variant-position:normal;font-variant-caps:normal;font-variant-numeric:normal;font-variant-alternates:normal;font-variant-east-asian:normal;font-feature-settings:normal;font-variation-settings:normal;text-indent:0;text-align:start;text-decoration:none;text-decoration-line:none;text-decoration-style:solid;text-decoration-color:#000000;letter-spacing:normal;word-spacing:normal;text-transform:none;writing-mode:lr-tb;direction:ltr;text-orientation:mixed;dominant-baseline:auto;baseline-shift:baseline;text-anchor:start;white-space:normal;shape-padding:0;shape-margin:0;inline-size:0;clip-rule:nonzero;display:inline;overflow:visible;visibility:visible;opacity:1;isolation:auto;mix-blend-mode:normal;color-interpolation:sRGB;color-interpolation-filters:linearRGB;solid-color:#000000;solid-opacity:1;vector-effect:none;fill:#000000;fill-opacity:1;fill-rule:nonzero;stroke:none;stroke-linecap:butt;stroke-linejoin:miter;stroke-miterlimit:4;stroke-dasharray:none;stroke-dashoffset:0;stroke-opacity:1;color-rendering:auto;image-rendering:auto;shape-rendering:auto;text-rendering:auto;enable-background:accumulate;stop-color:#000000;stop-opacity:1"
       d="m 725.8418,29.67773 c -14.52316,0.42266 -28.73447,7.18009 -38.20039,18.2083 -8.99898,10.35886 -13.73498,24.32014 -12.77254,38.019355 0.84739,13.167048 6.81524,25.944265 16.46251,34.961435 9.62504,9.09892 22.76055,14.39852 36.01781,14.39045 12.98952,0.0637 25.94709,-4.84338 35.56739,-13.58629 9.8505,-8.86136 16.19399,-21.53066 17.25534,-34.749212 C 781.31316,73.67087 777.25077,60.03302 768.92985,49.64179 760.94977,39.56715 749.19697,32.53516 736.50548,30.42255 732.98734,29.81536 729.40976,29.58118 725.8418,29.67773 Z m 1.25195,8.97852 c 10.69128,-0.12912 21.38808,3.7967 29.38059,10.91536 7.09724,6.20578 12.10771,14.75559 13.96208,24.00613 1.34343,6.411383 1.21361,13.122467 -0.37978,19.476948 -0.0975,0.35575 -0.29046,1.119063 -0.44407,1.62429 -1.84486,6.428512 -5.23,12.389942 -9.7278,17.332742 -0.26303,0.27375 -0.78858,0.84941 -1.16615,1.22411 -0.62265,0.63363 -1.34056,1.3081 -1.90231,1.81121 -7.732,6.98028 -18.02088,11.03186 -28.43605,11.19567 -5.18804,0.0966 -10.39154,-0.73729 -15.29042,-2.44779 -0.42927,-0.14724 -1.19921,-0.43136 -1.74873,-0.65296 -9.16421,-3.63461 -17.00505,-10.46131 -21.8597,-19.04295 -4.0566,-7.116238 -6.04606,-15.390595 -5.68063,-23.573619 0.0394,-0.961846 0.1549,-2.376445 0.26953,-3.318361 0.11356,-0.91801 0.23964,-1.75543 0.41793,-2.73169 1.87307,-10.17318 7.47443,-19.61186 15.54501,-26.09098 7.58528,-6.15359 17.29364,-9.64154 27.0605,-9.72811 z" />
    <path
       style="fill:#000000;fill-opacity:0.866667;stroke:#000000;stroke-width:2.71468"
       d="M 72.446295,209.70893 V 194.7782 H 396.8504 721.25451 v 14.93073 14.93073 H 396.8504 72.446295 Z"
       id="path204" />
    <path
       style="fill:#000000;fill-opacity:0.866667;stroke:#000000;stroke-width:2.71468"
       d="m 185.11069,609.74687 c -15.42574,-3.59937 -30.39053,-14.8828 -38.85123,-29.29377 -5.77329,-9.83356 -7.26051,-15.78458 -7.17106,-28.69465 0.24232,-34.97087 24.64406,-59.37625 59.59046,-59.59933 50.18237,-0.32035 78.0732,58.2161 45.73768,95.99288 -16.02338,18.71972 -37.73937,26.6271 -59.30585,21.59487 z"
       id="path206" />
    <path
       style="fill:#000000;fill-opacity:0.866667;stroke:#000000;stroke-width:2.71468"
       d="m 314.65479,608.90992 c -28.17356,-8.94565 -46.08613,-35.15507 -43.19187,-63.19776 2.73099,-26.46073 21.84282,-47.30066 48.37434,-52.74838 19.20628,-3.94363 34.39622,0.2246 49.08717,13.46987 39.32757,35.45747 20.6003,97.06421 -31.79696,104.60185 -6.17028,0.88763 -15.87324,-0.0301 -22.47268,-2.12558 z"
       id="path208" />
    <path
       style="fill:#000000;fill-opacity:0.866667;stroke:#000000;stroke-width:2.71468"
       d="m 446.63314,395.30868 c -13.40062,-3.75431 -31.75638,-19.95367 -37.87581,-33.42624 -17.74114,-39.05902 11.65593,-84.23377 54.6027,-83.90845 50.44931,0.38214 77.57141,58.35187 45.50302,97.25639 -14.65539,17.77953 -40.57947,26.14386 -62.22991,20.0783 z"
       id="path210" />
  </g>
  <desc
     id="desc68">E.dxf - scale = 35.000000, origin = (5.500000, -8.090000), method = auto</desc>
</svg>
