<?xml version="1.0" encoding="UTF-8" standalone="no"?>
<svg
   xmlns:dc="http://purl.org/dc/elements/1.1/"
   xmlns:cc="http://creativecommons.org/ns#"
   xmlns:rdf="http://www.w3.org/1999/02/22-rdf-syntax-ns#"
   xmlns:svg="http://www.w3.org/2000/svg"
   xmlns="http://www.w3.org/2000/svg"
   xmlns:sodipodi="http://sodipodi.sourceforge.net/DTD/sodipodi-0.dtd"
   xmlns:inkscape="http://www.inkscape.org/namespaces/inkscape"
   viewBox="0 0 740.93809 784.58822"
   width="740.93811"
   height="784.5882"
   version="1.1"
   id="svg985"
   sodipodi:docname="EmMaj9.svg"
   inkscape:version="1.0.2 (e86c870879, 2021-01-15, custom)">
  <metadata
     id="metadata989">
    <rdf:RDF>
      <cc:Work
         rdf:about="">
        <dc:format>image/svg+xml</dc:format>
        <dc:type
           rdf:resource="http://purl.org/dc/dcmitype/StillImage" />
        <dc:title></dc:title>
      </cc:Work>
    </rdf:RDF>
  </metadata>
  <sodipodi:namedview
     pagecolor="#ffffff"
     bordercolor="#666666"
     borderopacity="1"
     objecttolerance="10"
     gridtolerance="10"
     guidetolerance="10"
     inkscape:pageopacity="0"
     inkscape:pageshadow="2"
     inkscape:window-width="1920"
     inkscape:window-height="1017"
     id="namedview987"
     showgrid="false"
     inkscape:zoom="0.7563342"
     inkscape:cx="402.5197"
     inkscape:cy="323.43237"
     inkscape:window-x="-8"
     inkscape:window-y="-8"
     inkscape:window-maximized="1"
     inkscape:current-layer="g981"
     fit-margin-top="0"
     fit-margin-left="0"
     fit-margin-right="0"
     fit-margin-bottom="0" />
  <defs
     id="defs923">
    <marker
       id="DistanceX"
       orient="auto"
       refX="0"
       refY="0"
       style="overflow:visible">
      <path
         d="M 3,-3 -3,3 M 0,-5 V 5"
         style="stroke:#000000;stroke-width:0.5"
         id="path911" />
    </marker>
    <pattern
       id="Hatch"
       patternUnits="userSpaceOnUse"
       width="8"
       height="8"
       x="0"
       y="0">
      <path
         d="M8 4 l-4,4"
         stroke="#000000"
         stroke-width="0.25"
         linecap="square"
         id="path914" />
      <path
         d="M6 2 l-4,4"
         stroke="#000000"
         stroke-width="0.25"
         linecap="square"
         id="path916" />
      <path
         d="M4 0 l-4,4"
         stroke="#000000"
         stroke-width="0.25"
         linecap="square"
         id="path918" />
    </pattern>
    <symbol
       id="$MODEL_SPACE" />
    <symbol
       id="$PAPER_SPACE" />
  </defs>
  <g
     inkscape:groupmode="layer"
     inkscape:label="0"
     id="g981"
     transform="translate(5.6693001,-343.60079)">
    <path
       d="M 131.47191,492.23361 V 995.04063"
       style="fill:none;stroke:#000000;stroke-width:11.3386;stroke-miterlimit:4;stroke-dasharray:none"
       id="path925" />
    <path
       d="m 228.85851,492.23361 v 345.2355"
       style="fill:none;stroke:#000000;stroke-width:11.3386;stroke-miterlimit:4;stroke-dasharray:none"
       id="path927" />
    <path
       d="M 326.24511,492.23361 V 679.89759"
       style="fill:none;stroke:#000000;stroke-width:11.3386;stroke-miterlimit:4;stroke-dasharray:none"
       id="path929" />
    <path
       d="m 423.63171,492.23361 v 30.09246"
       style="fill:none;stroke:#000000;stroke-width:11.3386;stroke-miterlimit:4;stroke-dasharray:none"
       id="path931" />
    <path
       d="m 34.08531,492.23361 h 486.933"
       style="fill:none;stroke:#000000;stroke-width:11.3386;stroke-miterlimit:4;stroke-dasharray:none"
       id="path933" />
    <path
       d="m 34.08531,649.80513 h 486.933"
       style="fill:none;stroke:#000000;stroke-width:11.3386;stroke-miterlimit:4;stroke-dasharray:none"
       id="path935" />
    <path
       d="m 34.08531,807.37665 h 486.933"
       style="fill:none;stroke:#000000;stroke-width:11.3386;stroke-miterlimit:4;stroke-dasharray:none"
       id="path937" />
    <path
       d="m 34.08531,964.94817 h 486.933"
       style="fill:none;stroke:#000000;stroke-width:11.3386;stroke-miterlimit:4;stroke-dasharray:none"
       id="path939" />
    <path
       d="m 374.93841,728.59089 a 48.6933,48.6933 0 1 0 -97.3866,0 48.6933,48.6933 0 1 0 97.3866,0 z"
       style="fill:none;stroke:#000000;stroke-width:11.3386;stroke-miterlimit:4;stroke-dasharray:none"
       id="path941" />
    <path
       d="m 472.32501,571.01937 a 48.6933,48.6933 0 1 0 -97.3866,0 48.6933,48.6933 0 1 0 97.3866,0 z"
       style="fill:none;stroke:#000000;stroke-width:11.3386;stroke-miterlimit:4;stroke-dasharray:none"
       id="path943" />
    <path
       d="m 493.40401,355.74109 55.2286,55.2286"
       style="fill:none;stroke:#000000;stroke-width:11.3386;stroke-miterlimit:4;stroke-dasharray:none"
       id="path945" />
    <path
       d="m 493.40401,410.96969 55.2286,-55.2286"
       style="fill:none;stroke:#000000;stroke-width:11.3386;stroke-miterlimit:4;stroke-dasharray:none"
       id="path947" />
    <path
       d="M 423.63171,619.71267 V 1122.5197"
       style="fill:none;stroke:#000000;stroke-width:11.3386;stroke-miterlimit:4;stroke-dasharray:none"
       id="path949" />
    <path
       d="M 326.24511,777.28419 V 1122.5197"
       style="fill:none;stroke:#000000;stroke-width:11.3386;stroke-miterlimit:4;stroke-dasharray:none"
       id="path951" />
    <path
       d="M 521.01831,492.23361 V 1122.5197"
       style="fill:none;stroke:#000000;stroke-width:11.3386;stroke-miterlimit:4;stroke-dasharray:none"
       id="path953" />
    <path
       d="m 277.55181,886.16241 a 48.6933,48.6933 0 1 0 -97.3866,0 48.6933,48.6933 0 1 0 97.3866,0 z"
       style="fill:none;stroke:#000000;stroke-width:11.3386;stroke-miterlimit:4;stroke-dasharray:none"
       id="path955" />
    <path
       d="M 228.85851,934.85571 V 1122.5197"
       style="fill:none;stroke:#000000;stroke-width:11.3386;stroke-miterlimit:4;stroke-dasharray:none"
       id="path957" />
    <path
       d="m 589.18893,522.32607 h 146.0799"
       style="fill:none;stroke:#000000;stroke-width:7.55906;stroke-miterlimit:4;stroke-dasharray:none"
       id="path959" />
    <path
       d="m 589.18893,619.71267 h 146.0799"
       style="fill:none;stroke:#000000;stroke-width:7.55906;stroke-miterlimit:4;stroke-dasharray:none"
       id="path961" />
    <path
       d="m 603.79692,522.32607 29.21598,97.3866"
       style="fill:none;stroke:#000000;stroke-width:7.55906;stroke-miterlimit:4;stroke-dasharray:none"
       id="path963" />
    <path
       d="m 633.0129,619.71267 29.21598,-97.3866"
       style="fill:none;stroke:#000000;stroke-width:7.55906;stroke-miterlimit:4;stroke-dasharray:none"
       id="path965" />
    <path
       d="M 34.08531,492.23361 V 1122.5197"
       style="fill:none;stroke:#000000;stroke-width:11.3386;stroke-miterlimit:4;stroke-dasharray:none"
       id="path967" />
    <path
       d="m 68.17062,383.35539 a 34.08531,34.08531 0 1 0 -68.17062,0 34.08531,34.08531 0 1 0 68.17062,0 z"
       style="fill:none;stroke:#000000;stroke-width:11.3386;stroke-miterlimit:4;stroke-dasharray:none"
       id="path969" />
    <path
       d="m 34.08531,1122.5197 h 486.933"
       style="fill:none;stroke:#000000;stroke-width:11.3386;stroke-miterlimit:4;stroke-dasharray:none"
       id="path971" />
    <path
       d="m 720.66084,522.32607 v 97.3866"
       style="fill:none;stroke:#000000;stroke-width:7.55906;stroke-miterlimit:4;stroke-dasharray:none"
       id="path973" />
    <path
       d="m 691.44486,619.71267 v -97.3866"
       style="fill:none;stroke:#000000;stroke-width:7.55906;stroke-miterlimit:4;stroke-dasharray:none"
       id="path975" />
    <path
       d="m 180.16521,1043.7339 a 48.6933,48.6933 0 1 0 -97.3866,0 48.6933,48.6933 0 1 0 97.3866,0 z"
       style="fill:none;stroke:#000000;stroke-width:11.3386;stroke-miterlimit:4;stroke-dasharray:none"
       id="path977" />
    <path
       d="m 131.47191,1092.4272 v 30.0925"
       style="fill:none;stroke:#000000;stroke-width:11.3386;stroke-miterlimit:4;stroke-dasharray:none"
       id="path979" />
    <path
       style="fill:#000000;stroke:#000000;stroke-width:9.99433;stroke-miterlimit:4;stroke-dasharray:none"
       d="m 119.62398,1084.3417 c -24.333257,-7.9825 -36.877082,-34.6764 -26.902702,-57.2503 3.374944,-7.6382 12.521382,-17.1784 20.471252,-21.3527 5.67562,-2.9802 8.33064,-3.5019 17.90234,-3.5177 9.66049,-0.016 12.29923,0.5024 18.79386,3.6917 30.73982,15.0952 31.41022,58.6641 1.15083,74.7922 -9.56235,5.0967 -22.42588,6.5858 -31.41558,3.6368 z"
       id="path1558" />
    <path
       style="fill:#000000;stroke:#000000;stroke-width:9.99433;stroke-miterlimit:4;stroke-dasharray:none"
       d="m 218.29251,927.09983 c -19.22937,-5.43679 -32.66305,-23.97949 -31.33531,-43.25259 0.77184,-11.20388 4.58332,-19.5631 12.55458,-27.53436 20.38677,-20.38677 55.05323,-14.0652 67.72941,12.35074 4.791,9.98399 4.6534,25.09567 -0.32074,35.22452 -4.23582,8.62539 -13.20673,17.45379 -21.43329,21.09279 -7.50221,3.31859 -19.61377,4.26227 -27.19465,2.1189 z"
       id="path1560" />
    <path
       style="fill:#000000;stroke:#000000;stroke-width:9.99433;stroke-miterlimit:4;stroke-dasharray:none"
       d="m 316.19823,769.4123 c -19.18683,-5.21552 -31.73201,-21.35721 -31.73201,-40.82907 0,-12.57734 3.12925,-19.93136 12.45664,-29.27429 10.02223,-10.03892 17.57734,-12.96092 31.60538,-12.22365 36.54942,1.92092 53.20975,45.30264 27.33499,71.1774 -10.51227,10.51226 -25.99704,14.86495 -39.665,11.14961 z"
       id="path1562" />
    <path
       style="fill:#000000;stroke:#000000;stroke-width:9.99433;stroke-miterlimit:4;stroke-dasharray:none"
       d="m 408.34777,610.29778 c -22.13586,-8.92458 -32.98153,-34.90816 -23.25325,-55.70912 4.47204,-9.56209 10.04722,-15.77761 18.0678,-20.14295 18.4983,-10.06804 37.71408,-6.56754 52.16224,9.5023 17.86277,19.86769 11.47456,52.15857 -12.7755,64.57715 -9.13596,4.67857 -24.95944,5.49869 -34.20129,1.77262 z"
       id="path1564" />
  </g>
  <desc
     id="desc983">EmMaj9.dxf - scale = 25.766871, origin = (5.650000, -6.472000), method = auto</desc>
</svg>
