<?xml version="1.0" encoding="UTF-8" standalone="no"?>
<svg
   xmlns:dc="http://purl.org/dc/elements/1.1/"
   xmlns:cc="http://creativecommons.org/ns#"
   xmlns:rdf="http://www.w3.org/1999/02/22-rdf-syntax-ns#"
   xmlns:svg="http://www.w3.org/2000/svg"
   xmlns="http://www.w3.org/2000/svg"
   xmlns:sodipodi="http://sodipodi.sourceforge.net/DTD/sodipodi-0.dtd"
   xmlns:inkscape="http://www.inkscape.org/namespaces/inkscape"
   viewBox="0 0 803.37889 1306.1578"
   width="803.37891"
   height="1306.1577"
   version="1.1"
   id="svg901"
   sodipodi:docname="F.svg"
   inkscape:version="1.0.2 (e86c870879, 2021-01-15, custom)">
  <metadata
     id="metadata905">
    <rdf:RDF>
      <cc:Work
         rdf:about="">
        <dc:format>image/svg+xml</dc:format>
        <dc:type
           rdf:resource="http://purl.org/dc/dcmitype/StillImage" />
        <dc:title></dc:title>
      </cc:Work>
    </rdf:RDF>
  </metadata>
  <sodipodi:namedview
     pagecolor="#ffffff"
     bordercolor="#666666"
     borderopacity="1"
     objecttolerance="10"
     gridtolerance="10"
     guidetolerance="10"
     inkscape:pageopacity="0"
     inkscape:pageshadow="2"
     inkscape:window-width="1407"
     inkscape:window-height="1040"
     id="namedview903"
     showgrid="false"
     inkscape:zoom="0.73584458"
     inkscape:cx="400.8592"
     inkscape:cy="576.15061"
     inkscape:window-x="156"
     inkscape:window-y="0"
     inkscape:window-maximized="0"
     inkscape:current-layer="g897" />
  <defs
     id="defs845">
    <marker
       id="DistanceX"
       orient="auto"
       refX="0"
       refY="0"
       style="overflow:visible">
      <path
         d="M 3,-3 -3,3 M 0,-5 V 5"
         style="stroke:#000000;stroke-width:0.5"
         id="path833" />
    </marker>
    <pattern
       id="Hatch"
       patternUnits="userSpaceOnUse"
       width="8"
       height="8"
       x="0"
       y="0">
      <path
         d="M8 4 l-4,4"
         stroke="#000000"
         stroke-width="0.25"
         linecap="square"
         id="path836" />
      <path
         d="M6 2 l-4,4"
         stroke="#000000"
         stroke-width="0.25"
         linecap="square"
         id="path838" />
      <path
         d="M4 0 l-4,4"
         stroke="#000000"
         stroke-width="0.25"
         linecap="square"
         id="path840" />
    </pattern>
    <symbol
       id="$MODEL_SPACE" />
    <symbol
       id="$PAPER_SPACE" />
  </defs>
  <g
     inkscape:groupmode="layer"
     inkscape:label="0"
     id="g897"
     transform="translate(4.0087945,177.96869)">
    <path
       d="M 47.93936,-16.325811 V 1122.5197"
       style="fill:none;stroke:#000000;stroke-width:11.3386;stroke-miterlimit:4;stroke-dasharray:none"
       id="path847" />
    <path
       d="M 183.53235,25.572422 V 1122.5197"
       style="fill:none;stroke:#000000;stroke-width:11.3386;stroke-miterlimit:4;stroke-dasharray:none"
       id="path849" />
    <path
       d="M 319.12533,25.572422 V 506.24956"
       style="fill:none;stroke:#000000;stroke-width:11.3386;stroke-miterlimit:4;stroke-dasharray:none"
       id="path851" />
    <path
       d="M 454.71832,25.572422 V 286.86011"
       style="fill:none;stroke:#000000;stroke-width:11.3386;stroke-miterlimit:4;stroke-dasharray:none"
       id="path853" />
    <path
       d="M 590.31131,25.572422 V 67.470655"
       style="fill:none;stroke:#000000;stroke-width:11.3386;stroke-miterlimit:4;stroke-dasharray:none"
       id="path855" />
    <path
       d="M 725.90429,-16.325811 V 67.470655"
       style="fill:none;stroke:#000000;stroke-width:11.3386;stroke-miterlimit:4;stroke-dasharray:none"
       id="path857" />
    <path
       d="M 47.93936,25.572422 H 725.90429"
       style="fill:none;stroke:#000000;stroke-width:11.3386;stroke-miterlimit:4;stroke-dasharray:none"
       id="path859" />
    <path
       d="M 47.93936,244.96187 H 725.90429"
       style="fill:none;stroke:#000000;stroke-width:11.3386;stroke-miterlimit:4;stroke-dasharray:none"
       id="path861" />
    <path
       d="M 47.93936,464.35133 H 725.90429"
       style="fill:none;stroke:#000000;stroke-width:11.3386;stroke-miterlimit:4;stroke-dasharray:none"
       id="path863" />
    <path
       d="M 47.93936,683.74078 H 725.90429"
       style="fill:none;stroke:#000000;stroke-width:11.3386;stroke-miterlimit:4;stroke-dasharray:none"
       id="path865" />
    <path
       d="M 47.93936,903.13023 H 725.90429"
       style="fill:none;stroke:#000000;stroke-width:11.3386;stroke-miterlimit:4;stroke-dasharray:none"
       id="path867" />
    <path
       d="M 47.93936,1122.5197 H 725.90429"
       style="fill:none;stroke:#000000;stroke-width:11.3386;stroke-miterlimit:4;stroke-dasharray:none"
       id="path869" />
    <path
       d="M 47.93936,-16.325811 H 725.90429"
       style="fill:none;stroke:#000000;stroke-width:11.3386;stroke-miterlimit:4;stroke-dasharray:none"
       id="path871" />
    <path
       d="m 522.51481,354.6566 a 67.796493,67.796493 0 1 0 -135.59298,0 67.796493,67.796493 0 1 0 135.59298,0 z"
       style="fill:none;stroke:#000000;stroke-width:11.3386;stroke-miterlimit:4;stroke-dasharray:none"
       id="path873" />
    <path
       d="m 793.70079,135.26715 a 67.796495,67.796495 0 1 0 -135.59299,0 67.796495,67.796495 0 1 0 135.59299,0 z"
       style="fill:none;stroke:#000000;stroke-width:11.3386;stroke-miterlimit:4;stroke-dasharray:none"
       id="path875" />
    <path
       d="m 658.1078,135.26715 a 67.796495,67.796495 0 1 0 -135.59299,0 67.796495,67.796495 0 1 0 135.59299,0 z"
       style="fill:none;stroke:#000000;stroke-width:11.3386;stroke-miterlimit:4;stroke-dasharray:none"
       id="path877" />
    <path
       d="m 0,-173.9599 95.87872,95.878723"
       style="fill:none;stroke:#000000;stroke-width:11.3386;stroke-miterlimit:4;stroke-dasharray:none"
       id="path879" />
    <path
       d="M 0,-78.081177 95.87872,-173.9599"
       style="fill:none;stroke:#000000;stroke-width:11.3386;stroke-miterlimit:4;stroke-dasharray:none"
       id="path881" />
    <path
       d="M 590.31131,203.06364 V 1122.5197"
       style="fill:none;stroke:#000000;stroke-width:11.3386;stroke-miterlimit:4;stroke-dasharray:none"
       id="path883" />
    <path
       d="M 454.71832,422.45309 V 1122.5197"
       style="fill:none;stroke:#000000;stroke-width:11.3386;stroke-miterlimit:4;stroke-dasharray:none"
       id="path885" />
    <path
       d="m 135.59299,-173.9599 95.87872,95.878723"
       style="fill:none;stroke:#000000;stroke-width:11.3386;stroke-miterlimit:4;stroke-dasharray:none"
       id="path887" />
    <path
       d="M 135.59299,-78.081177 231.47171,-173.9599"
       style="fill:none;stroke:#000000;stroke-width:11.3386;stroke-miterlimit:4;stroke-dasharray:none"
       id="path889" />
    <path
       d="M 725.90429,203.06364 V 1122.5197"
       style="fill:none;stroke:#000000;stroke-width:11.3386;stroke-miterlimit:4;stroke-dasharray:none"
       id="path891" />
    <path
       d="m 386.92183,574.04605 a 67.796495,67.796495 0 1 0 -135.59299,0 67.796495,67.796495 0 1 0 135.59299,0 z"
       style="fill:none;stroke:#000000;stroke-width:11.3386;stroke-miterlimit:4;stroke-dasharray:none"
       id="path893" />
    <path
       d="M 319.12533,641.84255 V 1122.5197"
       style="fill:none;stroke:#000000;stroke-width:11.3386;stroke-miterlimit:4;stroke-dasharray:none"
       id="path895" />
    <path
       style="fill:#000000;stroke:#000000;stroke-width:15.4089;stroke-miterlimit:4;stroke-dasharray:none"
       d="m 307.76889,811.34569 c -23.39581,-6.52036 -41.09767,-26.16515 -45.20988,-50.17207 -5.01913,-29.30152 15.13305,-60.24381 44.39436,-68.16448 38.68253,-10.47087 77.06954,18.6897 77.06954,58.54562 0,11.38578 -1.70972,18.77154 -6.56206,28.34717 -4.44061,8.76313 -16.31425,21.14227 -24.6093,25.657 -13.29352,7.23524 -31.50003,9.57221 -45.08266,5.78676 z"
       id="path913"
       transform="translate(-4.0087945,-177.96869)" />
    <path
       style="fill:#000000;stroke:#000000;stroke-width:15.4089;stroke-miterlimit:4;stroke-dasharray:none"
       d="m 446.31897,592.64496 c -34.80816,-7.49717 -56.48027,-43.84836 -46.12666,-77.36944 9.47821,-30.68689 40.50179,-49.31083 70.88237,-42.55179 19.52649,4.34423 34.21971,16.19846 43.13214,34.79825 4.69212,9.79221 4.88387,10.77928 4.88387,25.14118 0,14.45996 -0.16598,15.29641 -5.07553,25.57847 -8.80248,18.43503 -25.31559,31.16569 -45.11667,34.78239 -9.73612,1.77831 -12.80215,1.72684 -22.57952,-0.37906 z"
       id="path915"
       transform="translate(-4.0087945,-177.96869)" />
    <path
       style="fill:#000000;stroke:#000000;stroke-width:15.4089;stroke-miterlimit:4;stroke-dasharray:none"
       d="m 576.57252,371.71776 c -4.26213,-1.36277 -10.38612,-4.02303 -13.60887,-5.91169 -8.81171,-5.164 -19.72889,-17.51744 -24.59793,-27.83401 -4.07459,-8.63331 -4.32142,-10.04895 -4.32142,-24.78459 0,-14.7198 0.24997,-16.15784 4.30011,-24.73759 15.07902,-31.94312 51.24856,-45.10704 82.85464,-30.15497 19.88958,9.40928 34.43713,32.59797 34.43713,54.89256 0,26.46032 -17.96342,50.60714 -43.57879,58.57954 -10.49334,3.2659 -25.18033,3.24551 -35.48487,-0.0493 z"
       id="path917"
       transform="translate(-4.0087945,-177.96869)" />
    <path
       style="fill:#000000;stroke:#000000;stroke-width:15.4089;stroke-miterlimit:4;stroke-dasharray:none"
       d="m 713.95857,372.45794 c -45.06075,-13.04576 -60.15217,-68.70626 -27.63518,-101.92462 34.95959,-35.71364 95.08924,-16.60034 103.96154,33.04605 4.67855,26.17958 -9.68054,52.96822 -34.78112,64.88844 -9.1082,4.32546 -11.79503,4.95617 -22.80418,5.35305 -7.70457,0.27776 -14.87533,-0.24373 -18.74106,-1.36292 z"
       id="path919"
       transform="translate(-4.0087945,-177.96869)" />
    <path
       style="fill:#000000;stroke:#000000;stroke-width:15.4089;stroke-miterlimit:4;stroke-dasharray:none"
       d="M 57.716083,182.72513 V 167.77632 H 390.66683 723.61757 v 14.94881 14.94881 H 390.66683 57.716083 Z"
       id="path921"
       transform="translate(-4.0087945,-177.96869)" />
  </g>
  <desc
     id="desc899">F.dxf - scale = 35.875644, origin = (5.646447, -8.090000), method = auto</desc>
</svg>
