<?xml version="1.0" encoding="UTF-8" standalone="no"?>
<svg
   xmlns:dc="http://purl.org/dc/elements/1.1/"
   xmlns:cc="http://creativecommons.org/ns#"
   xmlns:rdf="http://www.w3.org/1999/02/22-rdf-syntax-ns#"
   xmlns:svg="http://www.w3.org/2000/svg"
   xmlns="http://www.w3.org/2000/svg"
   xmlns:sodipodi="http://sodipodi.sourceforge.net/DTD/sodipodi-0.dtd"
   xmlns:inkscape="http://www.inkscape.org/namespaces/inkscape"
   viewBox="0 0 587.33855 773.57857"
   width="587.33856"
   height="773.57855"
   version="1.1"
   id="svg895"
   sodipodi:docname="G4finger.svg"
   inkscape:version="1.0.2 (e86c870879, 2021-01-15, custom)">
  <metadata
     id="metadata899">
    <rdf:RDF>
      <cc:Work
         rdf:about="">
        <dc:format>image/svg+xml</dc:format>
        <dc:type
           rdf:resource="http://purl.org/dc/dcmitype/StillImage" />
        <dc:title></dc:title>
      </cc:Work>
    </rdf:RDF>
  </metadata>
  <sodipodi:namedview
     pagecolor="#ffffff"
     bordercolor="#666666"
     borderopacity="1"
     objecttolerance="10"
     gridtolerance="10"
     guidetolerance="10"
     inkscape:pageopacity="0"
     inkscape:pageshadow="2"
     inkscape:window-width="1407"
     inkscape:window-height="1040"
     id="namedview897"
     showgrid="false"
     inkscape:zoom="0.73584458"
     inkscape:cx="255.03483"
     inkscape:cy="438.7785"
     inkscape:window-x="234"
     inkscape:window-y="0"
     inkscape:window-maximized="0"
     inkscape:current-layer="g891" />
  <defs
     id="defs845">
    <marker
       id="DistanceX"
       orient="auto"
       refX="0"
       refY="0"
       style="overflow:visible">
      <path
         d="M 3,-3 -3,3 M 0,-5 V 5"
         style="stroke:#000000;stroke-width:0.5"
         id="path833" />
    </marker>
    <pattern
       id="Hatch"
       patternUnits="userSpaceOnUse"
       width="8"
       height="8"
       x="0"
       y="0">
      <path
         d="M8 4 l-4,4"
         stroke="#000000"
         stroke-width="0.25"
         linecap="square"
         id="path836" />
      <path
         d="M6 2 l-4,4"
         stroke="#000000"
         stroke-width="0.25"
         linecap="square"
         id="path838" />
      <path
         d="M4 0 l-4,4"
         stroke="#000000"
         stroke-width="0.25"
         linecap="square"
         id="path840" />
    </pattern>
    <symbol
       id="$MODEL_SPACE" />
    <symbol
       id="$PAPER_SPACE" />
  </defs>
  <g
     inkscape:groupmode="layer"
     inkscape:label="0"
     id="g891"
     transform="translate(-522.33071,-975.92242)">
    <path
       d="m 576,1092.8557 v 369.984"
       style="fill:none;stroke:#000000;stroke-width:11.3386;stroke-miterlimit:4;stroke-dasharray:none"
       id="path847" />
    <path
       d="m 672,1122.5197 v 184.992"
       style="fill:none;stroke:#000000;stroke-width:11.3386;stroke-miterlimit:4;stroke-dasharray:none"
       id="path849" />
    <path
       d="m 864,1122.5197 v 621.312"
       style="fill:none;stroke:#000000;stroke-width:11.3386;stroke-miterlimit:4;stroke-dasharray:none"
       id="path851" />
    <path
       d="m 1056,1092.8557 v 369.984"
       style="fill:none;stroke:#000000;stroke-width:11.3386;stroke-miterlimit:4;stroke-dasharray:none"
       id="path853" />
    <path
       d="m 576,1122.5197 h 480"
       style="fill:none;stroke:#000000;stroke-width:11.3386;stroke-miterlimit:4;stroke-dasharray:none"
       id="path855" />
    <path
       d="m 576,1277.8477 h 480"
       style="fill:none;stroke:#000000;stroke-width:11.3386;stroke-miterlimit:4;stroke-dasharray:none"
       id="path857" />
    <path
       d="m 576,1433.1757 h 480"
       style="fill:none;stroke:#000000;stroke-width:11.3386;stroke-miterlimit:4;stroke-dasharray:none"
       id="path859" />
    <path
       d="m 576,1588.5037 h 480"
       style="fill:none;stroke:#000000;stroke-width:11.3386;stroke-miterlimit:4;stroke-dasharray:none"
       id="path861" />
    <path
       d="m 576,1743.8317 h 480"
       style="fill:none;stroke:#000000;stroke-width:11.3386;stroke-miterlimit:4;stroke-dasharray:none"
       id="path863" />
    <path
       d="m 576,1092.8557 h 480"
       style="fill:none;stroke:#000000;stroke-width:11.3386;stroke-miterlimit:4;stroke-dasharray:none"
       id="path865" />
    <path
       d="m 1104,1510.8397 a 48,48 0 1 0 -96,0 48,48 0 1 0 96,0 z"
       style="fill:none;stroke:#000000;stroke-width:11.3386;stroke-miterlimit:4;stroke-dasharray:none"
       id="path867" />
    <path
       d="m 720,1355.5117 a 48,48 0 1 0 -96,0 48,48 0 1 0 96,0 z"
       style="fill:none;stroke:#000000;stroke-width:11.3386;stroke-miterlimit:4;stroke-dasharray:none"
       id="path869" />
    <path
       d="m 624,1510.8397 a 48,48 0 1 0 -96,0 48,48 0 1 0 96,0 z"
       style="fill:none;stroke:#000000;stroke-width:11.3386;stroke-miterlimit:4;stroke-dasharray:none"
       id="path871" />
    <path
       d="m 672,1403.5117 v 340.32"
       style="fill:none;stroke:#000000;stroke-width:11.3386;stroke-miterlimit:4;stroke-dasharray:none"
       id="path873" />
    <path
       d="m 768,1122.5197 v 621.312"
       style="fill:none;stroke:#000000;stroke-width:11.3386;stroke-miterlimit:4;stroke-dasharray:none"
       id="path875" />
    <path
       d="m 960,1122.5197 v 340.32"
       style="fill:none;stroke:#000000;stroke-width:11.3386;stroke-miterlimit:4;stroke-dasharray:none"
       id="path877" />
    <path
       d="m 801.6,1015.1917 a 33.6,33.6 0 1 0 -67.2,0 33.6,33.6 0 1 0 67.2,0 z"
       style="fill:none;stroke:#000000;stroke-width:11.3386;stroke-miterlimit:4;stroke-dasharray:none"
       id="path879" />
    <path
       d="m 897.6,1015.1917 a 33.6,33.6 0 1 0 -67.2,0 33.6,33.6 0 1 0 67.2,0 z"
       style="fill:none;stroke:#000000;stroke-width:11.3386;stroke-miterlimit:4;stroke-dasharray:none"
       id="path881" />
    <path
       d="m 1056,1558.8397 v 184.992"
       style="fill:none;stroke:#000000;stroke-width:11.3386;stroke-miterlimit:4;stroke-dasharray:none"
       id="path883" />
    <path
       d="m 576,1558.8397 v 184.992"
       style="fill:none;stroke:#000000;stroke-width:11.3386;stroke-miterlimit:4;stroke-dasharray:none"
       id="path885" />
    <path
       d="m 1008,1510.8397 a 48,48 0 1 0 -96,0 48,48 0 1 0 96,0 z"
       style="fill:none;stroke:#000000;stroke-width:11.3386;stroke-miterlimit:4;stroke-dasharray:none"
       id="path887" />
    <path
       d="m 960,1558.8397 v 184.992"
       style="fill:none;stroke:#000000;stroke-width:11.3386;stroke-miterlimit:4;stroke-dasharray:none"
       id="path889" />
    <path
       style="fill:#000000;stroke:#000000;stroke-width:15.4089;stroke-miterlimit:4;stroke-dasharray:none"
       d="m 44.392523,575.51977 c -18.39782,-4.8584 -30.707585,-20.05138 -31.710694,-39.13804 -0.431031,-8.20145 0.02675,-10.93483 2.872323,-17.15038 4.807917,-10.50187 11.759369,-17.59693 21.542151,-21.98718 7.388722,-3.31587 9.569751,-3.68157 18.702045,-3.13589 11.946594,0.71384 19.273575,3.88825 27.146583,11.76126 8.296227,8.29623 11.734887,16.73497 11.701836,28.71723 -0.03286,11.91481 -2.993232,19.6701 -10.812197,28.32476 -9.224202,10.21009 -27.002527,15.8932 -39.442047,12.60824 z"
       id="path907"
       transform="translate(522.33071,975.92242)" />
    <path
       style="fill:#000000;stroke:#000000;stroke-width:15.4089;stroke-miterlimit:4;stroke-dasharray:none"
       d="m 142.02693,420.39048 c -19.41887,-3.89185 -33.60668,-21.13688 -33.63117,-40.87809 -0.009,-7.3963 0.76645,-10.56327 4.38944,-17.92261 4.99251,-10.14122 9.87651,-14.82727 20.62069,-19.78491 26.60388,-12.27573 57.47697,8.10705 57.47697,37.94699 0,25.3308 -24.31584,45.55684 -48.85593,40.63862 z"
       id="path909"
       transform="translate(522.33071,975.92242)" />
    <path
       style="fill:#000000;stroke:#000000;stroke-width:15.4089;stroke-miterlimit:4;stroke-dasharray:none"
       d="m 424.5067,574.22731 c -8.95857,-3.20178 -15.98556,-8.73152 -21.58897,-16.989 -17.9681,-26.47873 2.24973,-63.42102 34.70916,-63.42102 12.05737,0 20.07263,3.37357 28.85188,12.14356 8.90314,8.89375 12.3498,17.37109 12.28832,30.22415 -0.12929,27.03277 -28.80739,47.13917 -54.26039,38.04231 z"
       id="path911"
       transform="translate(522.33071,975.92242)" />
    <path
       style="fill:#000000;stroke:#000000;stroke-width:15.4089;stroke-miterlimit:4;stroke-dasharray:none"
       d="m 522.75441,574.89581 c -17.89469,-5.92783 -29.0018,-19.7368 -30.23599,-37.59107 -1.15715,-16.7397 7.52823,-31.58377 23.00504,-39.31762 21.81335,-10.90026 48.21504,-0.39345 56.82294,22.61323 9.67165,25.84977 -8.6495,53.66374 -36.61021,55.57924 -4.15022,0.28432 -9.99202,-0.29338 -12.98178,-1.28378 z"
       id="path913"
       transform="translate(522.33071,975.92242)" />
    <path
       style="fill:#000000;stroke:#000000;stroke-width:15.4089;stroke-miterlimit:4;stroke-dasharray:none"
       d="m 60.020823,131.64842 v -8.83339 H 293.76584 527.51085 v 8.83339 8.83339 H 293.76584 60.020823 Z"
       id="path915"
       transform="translate(522.33071,975.92242)" />
  </g>
  <desc
     id="desc893">G(4finger).dxf - scale = 25.400000, origin = (0.000000, 0.000000), method = file</desc>
</svg>
