<?xml version="1.0" encoding="UTF-8" standalone="no"?>
<svg
   xmlns:dc="http://purl.org/dc/elements/1.1/"
   xmlns:cc="http://creativecommons.org/ns#"
   xmlns:rdf="http://www.w3.org/1999/02/22-rdf-syntax-ns#"
   xmlns:svg="http://www.w3.org/2000/svg"
   xmlns="http://www.w3.org/2000/svg"
   xmlns:sodipodi="http://sodipodi.sourceforge.net/DTD/sodipodi-0.dtd"
   xmlns:inkscape="http://www.inkscape.org/namespaces/inkscape"
   viewBox="0 0 564.90367 773.57857"
   width="564.90369"
   height="773.57855"
   version="1.1"
   id="svg895"
   sodipodi:docname="GoverB(3finger).svg"
   inkscape:version="1.0.2 (e86c870879, 2021-01-15, custom)">
  <metadata
     id="metadata899">
    <rdf:RDF>
      <cc:Work
         rdf:about="">
        <dc:format>image/svg+xml</dc:format>
        <dc:type
           rdf:resource="http://purl.org/dc/dcmitype/StillImage" />
        <dc:title></dc:title>
      </cc:Work>
    </rdf:RDF>
  </metadata>
  <sodipodi:namedview
     pagecolor="#ffffff"
     bordercolor="#666666"
     borderopacity="1"
     objecttolerance="10"
     gridtolerance="10"
     guidetolerance="10"
     inkscape:pageopacity="0"
     inkscape:pageshadow="2"
     inkscape:window-width="1407"
     inkscape:window-height="1040"
     id="namedview897"
     showgrid="false"
     inkscape:zoom="0.73584458"
     inkscape:cx="194.08786"
     inkscape:cy="346.36768"
     inkscape:window-x="234"
     inkscape:window-y="0"
     inkscape:window-maximized="0"
     inkscape:current-layer="g891" />
  <defs
     id="defs845">
    <marker
       id="DistanceX"
       orient="auto"
       refX="0"
       refY="0"
       style="overflow:visible">
      <path
         d="M 3,-3 -3,3 M 0,-5 V 5"
         style="stroke:#000000;stroke-width:0.5"
         id="path833" />
    </marker>
    <pattern
       id="Hatch"
       patternUnits="userSpaceOnUse"
       width="8"
       height="8"
       x="0"
       y="0">
      <path
         d="M8 4 l-4,4"
         stroke="#000000"
         stroke-width="0.25"
         linecap="square"
         id="path836" />
      <path
         d="M6 2 l-4,4"
         stroke="#000000"
         stroke-width="0.25"
         linecap="square"
         id="path838" />
      <path
         d="M4 0 l-4,4"
         stroke="#000000"
         stroke-width="0.25"
         linecap="square"
         id="path840" />
    </pattern>
    <symbol
       id="$MODEL_SPACE" />
    <symbol
       id="$PAPER_SPACE" />
  </defs>
  <g
     inkscape:groupmode="layer"
     inkscape:label="0"
     id="g891"
     transform="translate(-544.76561,-975.92242)">
    <path
       d="m 576,1092.8557 v 650.976"
       style="fill:none;stroke:#000000;stroke-width:11.3386;stroke-miterlimit:4;stroke-dasharray:none"
       id="path847" />
    <path
       d="m 576,1122.5197 h 480"
       style="fill:none;stroke:#000000;stroke-width:11.3386;stroke-miterlimit:4;stroke-dasharray:none"
       id="path849" />
    <path
       d="m 576,1277.8477 h 480"
       style="fill:none;stroke:#000000;stroke-width:11.3386;stroke-miterlimit:4;stroke-dasharray:none"
       id="path851" />
    <path
       d="m 576,1433.1757 h 480"
       style="fill:none;stroke:#000000;stroke-width:11.3386;stroke-miterlimit:4;stroke-dasharray:none"
       id="path853" />
    <path
       d="m 576,1588.5037 h 480"
       style="fill:none;stroke:#000000;stroke-width:11.3386;stroke-miterlimit:4;stroke-dasharray:none"
       id="path855" />
    <path
       d="m 576,1743.8317 h 480"
       style="fill:none;stroke:#000000;stroke-width:11.3386;stroke-miterlimit:4;stroke-dasharray:none"
       id="path857" />
    <path
       d="m 576,1092.8557 h 480"
       style="fill:none;stroke:#000000;stroke-width:11.3386;stroke-miterlimit:4;stroke-dasharray:none"
       id="path859" />
    <path
       d="m 720,1355.5117 a 48,48 0 1 0 -96,0 48,48 0 1 0 96,0 z"
       style="fill:none;stroke:#000000;stroke-width:11.3386;stroke-miterlimit:4;stroke-dasharray:none"
       id="path861" />
    <path
       d="m 1008,1510.8397 a 48,48 0 1 0 -96,0 48,48 0 1 0 96,0 z"
       style="fill:none;stroke:#000000;stroke-width:11.3386;stroke-miterlimit:4;stroke-dasharray:none"
       id="path863" />
    <path
       d="m 960,1122.5197 v 340.32"
       style="fill:none;stroke:#000000;stroke-width:11.3386;stroke-miterlimit:4;stroke-dasharray:none"
       id="path865" />
    <path
       d="m 864,1122.5197 v 621.312"
       style="fill:none;stroke:#000000;stroke-width:11.3386;stroke-miterlimit:4;stroke-dasharray:none"
       id="path867" />
    <path
       d="m 1056,1092.8557 v 369.984"
       style="fill:none;stroke:#000000;stroke-width:11.3386;stroke-miterlimit:4;stroke-dasharray:none"
       id="path869" />
    <path
       d="m 1104,1510.8397 a 48,48 0 1 0 -96,0 48,48 0 1 0 96,0 z"
       style="fill:none;stroke:#000000;stroke-width:11.3386;stroke-miterlimit:4;stroke-dasharray:none"
       id="path871" />
    <path
       d="m 768,1122.5197 v 621.312"
       style="fill:none;stroke:#000000;stroke-width:11.3386;stroke-miterlimit:4;stroke-dasharray:none"
       id="path873" />
    <path
       d="m 672,1122.5197 v 184.992"
       style="fill:none;stroke:#000000;stroke-width:11.3386;stroke-miterlimit:4;stroke-dasharray:none"
       id="path875" />
    <path
       d="m 897.6,1015.1917 a 33.6,33.6 0 1 0 -67.2,0 33.6,33.6 0 1 0 67.2,0 z"
       style="fill:none;stroke:#000000;stroke-width:11.3386;stroke-miterlimit:4;stroke-dasharray:none"
       id="path877" />
    <path
       d="m 960,1558.8397 v 184.992"
       style="fill:none;stroke:#000000;stroke-width:11.3386;stroke-miterlimit:4;stroke-dasharray:none"
       id="path879" />
    <path
       d="m 801.6,1015.1917 a 33.6,33.6 0 1 0 -67.2,0 33.6,33.6 0 1 0 67.2,0 z"
       style="fill:none;stroke:#000000;stroke-width:11.3386;stroke-miterlimit:4;stroke-dasharray:none"
       id="path881" />
    <path
       d="m 548.7744,987.96609 54.4512,54.45121"
       style="fill:none;stroke:#000000;stroke-width:11.3386;stroke-miterlimit:4;stroke-dasharray:none"
       id="path883" />
    <path
       d="m 548.7744,1042.4173 54.4512,-54.45121"
       style="fill:none;stroke:#000000;stroke-width:11.3386;stroke-miterlimit:4;stroke-dasharray:none"
       id="path885" />
    <path
       d="m 672,1403.5117 v 340.32"
       style="fill:none;stroke:#000000;stroke-width:11.3386;stroke-miterlimit:4;stroke-dasharray:none"
       id="path887" />
    <path
       d="m 1056,1558.8397 v 184.992"
       style="fill:none;stroke:#000000;stroke-width:11.3386;stroke-miterlimit:4;stroke-dasharray:none"
       id="path889" />
    <path
       style="fill:#000000;stroke:#000000;stroke-width:15.4089;stroke-miterlimit:4;stroke-dasharray:none"
       d="m 117.85832,419.89485 c -8.91942,-2.18473 -15.4577,-6.28496 -22.155313,-13.89385 -9.305563,-10.57168 -12.237038,-26.42795 -7.471606,-40.41372 3.001519,-8.80898 13.611469,-20.10153 22.591439,-24.0449 10.47597,-4.6003 23.62423,-4.3932 33.88144,0.53368 31.37853,15.07214 31.89036,59.23139 0.85841,74.06141 -10.30252,4.92352 -18.43853,6.02696 -27.70437,3.75738 z"
       id="path907"
       transform="translate(544.76561,975.92242)" />
    <path
       style="fill:#000000;stroke:#000000;stroke-width:15.4089;stroke-miterlimit:4;stroke-dasharray:none"
       d="m 37.125366,131.64842 v -8.83339 H 270.87038 504.61539 v 8.83339 8.83339 H 270.87038 37.125366 Z"
       id="path909"
       transform="translate(544.76561,975.92242)" />
    <path
       style="fill:#000000;stroke:#000000;stroke-width:15.4089;stroke-miterlimit:4;stroke-dasharray:none"
       d="m 406.08915,575.53053 c -11.67235,-3.05155 -22.66855,-11.7651 -28.01775,-22.20167 -4.12167,-8.04159 -5.0227,-22.86972 -1.95155,-32.11611 2.88182,-8.67635 11.89932,-18.87548 20.63166,-23.33521 5.61717,-2.86876 8.47196,-3.37722 18.85052,-3.35743 13.84692,0.0264 19.96705,2.36754 28.50267,10.90317 8.27677,8.27677 12.09134,17.42228 12.16403,29.16349 0.0737,11.9107 -2.83102,19.5732 -10.73753,28.32476 -9.219,10.20434 -26.96325,15.88139 -39.44205,12.619 z"
       id="path911"
       transform="translate(544.76561,975.92242)" />
    <path
       style="fill:#000000;stroke:#000000;stroke-width:15.4089;stroke-miterlimit:4;stroke-dasharray:none"
       d="m 498.09901,574.22731 c -8.95857,-3.20178 -15.98556,-8.73152 -21.58897,-16.989 -18.01444,-26.54701 2.16602,-63.42102 34.70916,-63.42102 12.05737,0 20.07263,3.37357 28.85188,12.14356 8.90314,8.89375 12.3498,17.37109 12.28832,30.22415 -0.12929,27.03277 -28.80739,47.13917 -54.26039,38.04231 z"
       id="path913"
       transform="translate(544.76561,975.92242)" />
  </g>
  <desc
     id="desc893">GoverB(3finger).dxf - scale = 25.400000, origin = (0.000000, 0.000000), method = file</desc>
</svg>
