<?xml version="1.0" encoding="UTF-8" standalone="no"?>
<svg
   xmlns:dc="http://purl.org/dc/elements/1.1/"
   xmlns:cc="http://creativecommons.org/ns#"
   xmlns:rdf="http://www.w3.org/1999/02/22-rdf-syntax-ns#"
   xmlns:svg="http://www.w3.org/2000/svg"
   xmlns="http://www.w3.org/2000/svg"
   xmlns:sodipodi="http://sodipodi.sourceforge.net/DTD/sodipodi-0.dtd"
   xmlns:inkscape="http://www.inkscape.org/namespaces/inkscape"
   viewBox="0 0 566.56419 922.53219"
   width="566.56421"
   height="922.53217"
   version="1.1"
   id="svg901"
   sodipodi:docname="xx3213.svg"
   inkscape:version="1.0.2 (e86c870879, 2021-01-15, custom)">
  <metadata
     id="metadata905">
    <rdf:RDF>
      <cc:Work
         rdf:about="">
        <dc:format>image/svg+xml</dc:format>
        <dc:type
           rdf:resource="http://purl.org/dc/dcmitype/StillImage" />
        <dc:title></dc:title>
      </cc:Work>
    </rdf:RDF>
  </metadata>
  <sodipodi:namedview
     pagecolor="#ffffff"
     bordercolor="#666666"
     borderopacity="1"
     objecttolerance="10"
     gridtolerance="10"
     guidetolerance="10"
     inkscape:pageopacity="0"
     inkscape:pageshadow="2"
     inkscape:window-width="1920"
     inkscape:window-height="1017"
     id="namedview903"
     showgrid="false"
     inkscape:zoom="0.7563342"
     inkscape:cx="389.22287"
     inkscape:cy="413.25031"
     inkscape:window-x="-8"
     inkscape:window-y="-8"
     inkscape:window-maximized="1"
     inkscape:current-layer="g897" />
  <defs
     id="defs845">
    <marker
       id="DistanceX"
       orient="auto"
       refX="0"
       refY="0"
       style="overflow:visible">
      <path
         d="M 3,-3 -3,3 M 0,-5 V 5"
         style="stroke:#000000;stroke-width:0.5"
         id="path833" />
    </marker>
    <pattern
       id="Hatch"
       patternUnits="userSpaceOnUse"
       width="8"
       height="8"
       x="0"
       y="0">
      <path
         d="M8 4 l-4,4"
         stroke="#000000"
         stroke-width="0.25"
         linecap="square"
         id="path836" />
      <path
         d="M6 2 l-4,4"
         stroke="#000000"
         stroke-width="0.25"
         linecap="square"
         id="path838" />
      <path
         d="M4 0 l-4,4"
         stroke="#000000"
         stroke-width="0.25"
         linecap="square"
         id="path840" />
    </pattern>
    <symbol
       id="$MODEL_SPACE" />
    <symbol
       id="$PAPER_SPACE" />
  </defs>
  <g
     inkscape:groupmode="layer"
     inkscape:label="0"
     id="g897"
     transform="translate(-543.10511,-982.2968)">
    <path
       d="m 576,1092.8557 v 806.304"
       style="fill:none;stroke:#000000;stroke-width:11.3386;stroke-miterlimit:4;stroke-dasharray:none"
       id="path847" />
    <path
       d="m 672,1122.5197 v 776.64"
       style="fill:none;stroke:#000000;stroke-width:11.3386;stroke-miterlimit:4;stroke-dasharray:none"
       id="path849" />
    <path
       d="m 768,1122.5197 v 340.32"
       style="fill:none;stroke:#000000;stroke-width:11.3386;stroke-miterlimit:4;stroke-dasharray:none"
       id="path851" />
    <path
       d="m 864,1122.5197 v 184.992"
       style="fill:none;stroke:#000000;stroke-width:11.3386;stroke-miterlimit:4;stroke-dasharray:none"
       id="path853" />
    <path
       d="m 960,1122.5197 v 29.664"
       style="fill:none;stroke:#000000;stroke-width:11.3386;stroke-miterlimit:4;stroke-dasharray:none"
       id="path855" />
    <path
       d="m 1056,1092.8557 v 369.984"
       style="fill:none;stroke:#000000;stroke-width:11.3386;stroke-miterlimit:4;stroke-dasharray:none"
       id="path857" />
    <path
       d="m 576,1122.5197 h 480"
       style="fill:none;stroke:#000000;stroke-width:11.3386;stroke-miterlimit:4;stroke-dasharray:none"
       id="path859" />
    <path
       d="m 576,1277.8477 h 480"
       style="fill:none;stroke:#000000;stroke-width:11.3386;stroke-miterlimit:4;stroke-dasharray:none"
       id="path861" />
    <path
       d="m 576,1433.1757 h 480"
       style="fill:none;stroke:#000000;stroke-width:11.3386;stroke-miterlimit:4;stroke-dasharray:none"
       id="path863" />
    <path
       d="m 576,1588.5037 h 480"
       style="fill:none;stroke:#000000;stroke-width:11.3386;stroke-miterlimit:4;stroke-dasharray:none"
       id="path865" />
    <path
       d="m 576,1743.8317 h 480"
       style="fill:none;stroke:#000000;stroke-width:11.3386;stroke-miterlimit:4;stroke-dasharray:none"
       id="path867" />
    <path
       d="m 576,1899.1597 h 480"
       style="fill:none;stroke:#000000;stroke-width:11.3386;stroke-miterlimit:4;stroke-dasharray:none"
       id="path869" />
    <path
       d="m 576,1092.8557 h 480"
       style="fill:none;stroke:#000000;stroke-width:11.3386;stroke-linecap:round;stroke-miterlimit:4;stroke-dasharray:none"
       id="path871" />
    <path
       d="m 1008,1200.1837 a 48,48 0 1 0 -96,0 48,48 0 1 0 96,0 z"
       style="fill:none;stroke:#000000;stroke-width:11.3386;stroke-miterlimit:4;stroke-dasharray:none"
       id="path873" />
    <path
       d="m 816,1510.8397 a 48,48 0 1 0 -96,0 48,48 0 1 0 96,0 z"
       style="fill:none;stroke:#000000;stroke-width:11.3386;stroke-miterlimit:4;stroke-dasharray:none"
       id="path875" />
    <path
       d="m 912,1355.5117 a 48,48 0 1 0 -96,0 48,48 0 1 0 96,0 z"
       style="fill:none;stroke:#000000;stroke-width:11.3386;stroke-miterlimit:4;stroke-dasharray:none"
       id="path877" />
    <path
       d="m 768,1558.8397 v 340.32"
       style="fill:none;stroke:#000000;stroke-width:11.3386;stroke-miterlimit:4;stroke-dasharray:none"
       id="path879" />
    <path
       d="m 960,1248.1837 v 650.976"
       style="fill:none;stroke:#000000;stroke-width:11.3386;stroke-miterlimit:4;stroke-dasharray:none"
       id="path881" />
    <path
       d="m 864,1403.5117 v 495.648"
       style="fill:none;stroke:#000000;stroke-width:11.3386;stroke-miterlimit:4;stroke-dasharray:none"
       id="path883" />
    <path
       d="m 548.7744,987.96609 54.4512,54.45121"
       style="fill:none;stroke:#000000;stroke-width:11.3386;stroke-linecap:round;stroke-miterlimit:4;stroke-dasharray:none"
       id="path885" />
    <path
       d="m 548.7744,1042.4173 54.4512,-54.45121"
       style="fill:none;stroke:#000000;stroke-width:11.3386;stroke-linecap:round;stroke-miterlimit:4;stroke-dasharray:none"
       id="path887" />
    <path
       d="m 1104,1510.8397 a 48,48 0 1 0 -96,0 48,48 0 1 0 96,0 z"
       style="fill:none;stroke:#000000;stroke-width:11.3386;stroke-miterlimit:4;stroke-dasharray:none"
       id="path889" />
    <path
       d="m 1056,1558.8397 v 340.32"
       style="fill:none;stroke:#000000;stroke-width:11.3386;stroke-miterlimit:4;stroke-dasharray:none"
       id="path891" />
    <path
       d="m 644.7744,987.96609 54.4512,54.45121"
       style="fill:none;stroke:#000000;stroke-width:11.3386;stroke-linecap:round;stroke-miterlimit:4;stroke-dasharray:none"
       id="path893" />
    <path
       d="m 644.7744,1042.4173 54.4512,-54.45121"
       style="fill:none;stroke:#000000;stroke-width:11.3386;stroke-linecap:round;stroke-miterlimit:4;stroke-dasharray:none"
       id="path895" />
    <path
       style="fill:#000000;stroke:#000000;stroke-width:14.9915;stroke-linecap:round;stroke-linejoin:round;stroke-miterlimit:4;stroke-dasharray:none"
       d="m 214.63148,568.86011 c -11.9644,-3.37144 -22.83452,-12.86476 -28.1144,-24.55344 -3.92496,-8.68913 -3.81087,-23.68914 0.24394,-32.07382 7.33362,-15.1647 19.48823,-23.64374 35.35252,-24.66185 12.25081,-0.78621 21.03556,2.19806 29.89528,10.15573 22.08912,19.84012 17.70111,54.66478 -8.49797,67.44261 -9.78906,4.77432 -20.27738,6.11472 -28.87937,3.69077 z"
       id="path913"
       transform="translate(543.10511,982.2968)" />
    <path
       style="fill:#000000;stroke:#000000;stroke-width:14.9915;stroke-linecap:round;stroke-linejoin:round;stroke-miterlimit:4;stroke-dasharray:none"
       d="M 309.89286,413.33609 C 292.9365,408.1595 281.02621,393.42182 279.781,376.07596 c -1.24415,-17.3311 7.24043,-31.93142 23.0886,-39.73102 16.50934,-8.12498 33.65818,-5.2895 46.94592,7.76228 8.647,8.49346 12.14701,16.99298 12.13873,29.47809 -0.008,12.12552 -3.44858,20.21436 -12.43232,29.22878 -9.74157,9.77486 -27.03561,14.36663 -39.62907,10.522 z"
       id="path915"
       transform="translate(543.10511,982.2968)" />
    <path
       style="fill:#000000;stroke:#000000;stroke-width:14.9915;stroke-linecap:round;stroke-linejoin:round;stroke-miterlimit:4;stroke-dasharray:none"
       d="m 408.23917,258.62432 c -8.04055,-1.91953 -16.39126,-6.97238 -22.19934,-13.43236 -18.31718,-20.37311 -11.7765,-52.45164 13.20122,-64.74494 9.19023,-4.52316 26.16365,-4.59355 35.19315,-0.14595 14.29431,7.04084 22.54187,19.83718 23.32623,36.19133 0.41358,8.62339 -0.002,11.22467 -2.74286,17.18817 -5.96518,12.97666 -14.13089,20.13675 -27.489,24.10368 -7.47799,2.22073 -12.57608,2.44275 -19.2894,0.84007 z"
       id="path917"
       transform="translate(543.10511,982.2968)" />
    <path
       style="fill:#000000;stroke:#000000;stroke-width:14.9915;stroke-linecap:round;stroke-linejoin:round;stroke-miterlimit:4;stroke-dasharray:none"
       d="m 503.90031,569.22127 c -12.01018,-3.0025 -22.4186,-11.44635 -28.4661,-23.09319 -2.82965,-5.4496 -3.4452,-8.46881 -3.50426,-17.18817 -0.0608,-8.97791 0.48411,-11.70904 3.60369,-18.06152 4.03941,-8.22555 10.99196,-15.23113 19.73354,-19.88403 4.70636,-2.50506 7.71644,-3.0222 17.57829,-3.01996 10.32673,0.002 12.78436,0.46807 18.59424,3.52376 8.00855,4.21208 15.70373,12.38185 19.54726,20.75283 4.33859,9.4492 3.96664,25.02707 -0.81572,34.16344 -4.71359,9.00499 -11.67998,15.84419 -20.03503,19.66926 -7.8046,3.57307 -19.0936,4.92313 -26.23591,3.13758 z"
       id="path919"
       transform="translate(543.10511,982.2968)" />
    <path
       style="fill:#000000;stroke:#000000;stroke-width:14.9915;stroke-linecap:round;stroke-linejoin:round;stroke-miterlimit:4;stroke-dasharray:none"
       d="m 38.848658,125.67902 v -8.59408 H 272.87219 506.89572 v 8.59408 8.59409 H 272.87219 38.848658 Z"
       id="path921"
       transform="translate(543.10511,982.2968)" />
  </g>
  <desc
     id="desc899">xx3213.dxf - scale = 25.400000, origin = (0.000000, 0.000000), method = file</desc>
</svg>
