<?xml version="1.0" encoding="UTF-8" standalone="no"?>
<svg
   xmlns:dc="http://purl.org/dc/elements/1.1/"
   xmlns:cc="http://creativecommons.org/ns#"
   xmlns:rdf="http://www.w3.org/1999/02/22-rdf-syntax-ns#"
   xmlns:svg="http://www.w3.org/2000/svg"
   xmlns="http://www.w3.org/2000/svg"
   xmlns:sodipodi="http://sodipodi.sourceforge.net/DTD/sodipodi-0.dtd"
   xmlns:inkscape="http://www.inkscape.org/namespaces/inkscape"
   viewBox="0 0 566.56419 767.20424"
   width="566.56421"
   height="767.20422"
   version="1.1"
   id="svg899"
   sodipodi:docname="xxx211.svg"
   inkscape:version="1.0.2 (e86c870879, 2021-01-15, custom)">
  <metadata
     id="metadata903">
    <rdf:RDF>
      <cc:Work
         rdf:about="">
        <dc:format>image/svg+xml</dc:format>
        <dc:type
           rdf:resource="http://purl.org/dc/dcmitype/StillImage" />
        <dc:title></dc:title>
      </cc:Work>
    </rdf:RDF>
  </metadata>
  <sodipodi:namedview
     pagecolor="#ffffff"
     bordercolor="#666666"
     borderopacity="1"
     objecttolerance="10"
     gridtolerance="10"
     guidetolerance="10"
     inkscape:pageopacity="0"
     inkscape:pageshadow="2"
     inkscape:window-width="1407"
     inkscape:window-height="1040"
     id="namedview901"
     showgrid="false"
     inkscape:zoom="1.4716892"
     inkscape:cx="320.35451"
     inkscape:cy="323.39481"
     inkscape:window-x="26"
     inkscape:window-y="0"
     inkscape:window-maximized="0"
     inkscape:current-layer="g895" />
  <defs
     id="defs845">
    <marker
       id="DistanceX"
       orient="auto"
       refX="0"
       refY="0"
       style="overflow:visible">
      <path
         d="M 3,-3 -3,3 M 0,-5 V 5"
         style="stroke:#000000;stroke-width:0.5"
         id="path833" />
    </marker>
    <pattern
       id="Hatch"
       patternUnits="userSpaceOnUse"
       width="8"
       height="8"
       x="0"
       y="0">
      <path
         d="M8 4 l-4,4"
         stroke="#000000"
         stroke-width="0.25"
         linecap="square"
         id="path836" />
      <path
         d="M6 2 l-4,4"
         stroke="#000000"
         stroke-width="0.25"
         linecap="square"
         id="path838" />
      <path
         d="M4 0 l-4,4"
         stroke="#000000"
         stroke-width="0.25"
         linecap="square"
         id="path840" />
    </pattern>
    <symbol
       id="$MODEL_SPACE" />
    <symbol
       id="$PAPER_SPACE" />
  </defs>
  <g
     inkscape:groupmode="layer"
     inkscape:label="0"
     id="g895"
     transform="translate(-543.1051,-982.29679)">
    <path
       d="m 576,1092.8557 v 650.976"
       style="fill:none;stroke:#000000;stroke-width:11.3386;stroke-miterlimit:4;stroke-dasharray:none;stroke-linecap:round"
       id="path847" />
    <path
       d="m 672,1122.5197 v 621.312"
       style="fill:none;stroke:#000000;stroke-width:11.3386;stroke-miterlimit:4;stroke-dasharray:none"
       id="path849" />
    <path
       d="m 864,1122.5197 v 184.992"
       style="fill:none;stroke:#000000;stroke-width:11.3386;stroke-miterlimit:4;stroke-dasharray:none"
       id="path851" />
    <path
       d="m 960,1122.5197 v 29.664"
       style="fill:none;stroke:#000000;stroke-width:11.3386;stroke-miterlimit:4;stroke-dasharray:none"
       id="path853" />
    <path
       d="m 1056,1092.8557 v 59.328"
       style="fill:none;stroke:#000000;stroke-width:11.3386;stroke-miterlimit:4;stroke-dasharray:none;stroke-linecap:round"
       id="path855" />
    <path
       d="m 576,1122.5197 h 480"
       style="fill:none;stroke:#000000;stroke-width:11.3386;stroke-miterlimit:4;stroke-dasharray:none"
       id="path857" />
    <path
       d="m 576,1277.8477 h 480"
       style="fill:none;stroke:#000000;stroke-width:11.3386;stroke-miterlimit:4;stroke-dasharray:none"
       id="path859" />
    <path
       d="m 576,1433.1757 h 480"
       style="fill:none;stroke:#000000;stroke-width:11.3386;stroke-miterlimit:4;stroke-dasharray:none"
       id="path861" />
    <path
       d="m 576,1588.5037 h 480"
       style="fill:none;stroke:#000000;stroke-width:11.3386;stroke-miterlimit:4;stroke-dasharray:none"
       id="path863" />
    <path
       d="m 576,1743.8317 h 480"
       style="fill:none;stroke:#000000;stroke-width:11.3386;stroke-miterlimit:4;stroke-dasharray:none"
       id="path865" />
    <path
       d="m 576,1092.8557 h 480"
       style="fill:none;stroke:#000000;stroke-width:11.3386;stroke-miterlimit:4;stroke-dasharray:none"
       id="path867" />
    <path
       d="m 912,1355.5117 a 48,48 0 1 0 -96,0 48,48 0 1 0 96,0 z"
       style="fill:none;stroke:#000000;stroke-width:11.3386;stroke-miterlimit:4;stroke-dasharray:none"
       id="path869" />
    <path
       d="m 1104,1200.1837 a 48,48 0 1 0 -96,0 48,48 0 1 0 96,0 z"
       style="fill:none;stroke:#000000;stroke-width:11.3386;stroke-miterlimit:4;stroke-dasharray:none"
       id="path871" />
    <path
       d="m 1008,1200.1837 a 48,48 0 1 0 -96,0 48,48 0 1 0 96,0 z"
       style="fill:none;stroke:#000000;stroke-width:11.3386;stroke-miterlimit:4;stroke-dasharray:none"
       id="path873" />
    <path
       d="m 960,1248.1837 v 495.648"
       style="fill:none;stroke:#000000;stroke-width:11.3386;stroke-miterlimit:4;stroke-dasharray:none"
       id="path875" />
    <path
       d="m 864,1403.5117 v 340.32"
       style="fill:none;stroke:#000000;stroke-width:11.3386;stroke-miterlimit:4;stroke-dasharray:none"
       id="path877" />
    <path
       d="m 1056,1248.1837 v 495.648"
       style="fill:none;stroke:#000000;stroke-width:11.3386;stroke-miterlimit:4;stroke-dasharray:none;stroke-linecap:round"
       id="path879" />
    <path
       d="m 768,1122.5197 v 621.312"
       style="fill:none;stroke:#000000;stroke-width:11.3386;stroke-miterlimit:4;stroke-dasharray:none"
       id="path881" />
    <path
       d="m 548.7744,987.96609 54.4512,54.45121"
       style="fill:none;stroke:#000000;stroke-width:11.3386;stroke-linecap:round;stroke-miterlimit:4;stroke-dasharray:none"
       id="path883" />
    <path
       d="m 548.7744,1042.4173 54.4512,-54.45121"
       style="fill:none;stroke:#000000;stroke-width:11.3386;stroke-linecap:round;stroke-miterlimit:4;stroke-dasharray:none"
       id="path885" />
    <path
       d="m 644.7744,987.96609 54.4512,54.45121"
       style="fill:none;stroke:#000000;stroke-width:11.3386;stroke-linecap:round;stroke-miterlimit:4;stroke-dasharray:none"
       id="path887" />
    <path
       d="m 644.7744,1042.4173 54.4512,-54.45121"
       style="fill:none;stroke:#000000;stroke-width:11.3386;stroke-linecap:round;stroke-miterlimit:4;stroke-dasharray:none"
       id="path889" />
    <path
       d="m 740.7744,987.96609 54.4512,54.45121"
       style="fill:none;stroke:#000000;stroke-width:11.3386;stroke-linecap:round;stroke-miterlimit:4;stroke-dasharray:none"
       id="path891" />
    <path
       d="m 740.7744,1042.4173 54.4512,-54.45121"
       style="fill:none;stroke:#000000;stroke-width:11.3386;stroke-linecap:round;stroke-miterlimit:4;stroke-dasharray:none"
       id="path893" />
    <path
       style="fill:#000000;stroke:#000000;stroke-width:15.4089;stroke-miterlimit:4;stroke-dasharray:none"
       d="m 310.94089,412.30991 c -12.67487,-2.52321 -26.54455,-14.60944 -30.6745,-26.73018 -1.1773,-3.45517 -2.14054,-9.73351 -2.14054,-13.95185 0,-20.91926 15.491,-38.29086 36.98393,-41.47378 10.18344,-1.50808 23.4742,3.14187 32.0836,11.22488 9.4989,8.91813 13.1175,17.28128 13.08822,30.2489 -0.0377,16.69783 -7.99901,29.48122 -22.74863,36.52731 -9.55629,4.56517 -17.94584,5.87594 -26.59208,4.15472 z"
       id="path911"
       transform="translate(544.76561,983.9573)" />
    <path
       style="fill:#000000;stroke:#000000;stroke-width:15.4089;stroke-miterlimit:4;stroke-dasharray:none"
       d="m 400.75138,255.20677 c -8.29945,-2.93711 -19.68603,-13.84808 -23.48865,-22.50753 -6.48763,-14.77385 -3.55628,-32.0692 7.51171,-44.32014 11.94099,-13.21725 32.54266,-17.17968 48.52223,-9.33253 31.14121,15.29262 30.62274,59.64176 -0.87143,74.54118 -9.49277,4.49089 -21.78353,5.11914 -31.67386,1.61902 z"
       id="path913"
       transform="translate(544.76561,983.9573)" />
    <path
       style="fill:#000000;stroke:#000000;stroke-width:15.4089;stroke-miterlimit:4;stroke-dasharray:none"
       d="m 495.85455,254.65384 c -14.74212,-5.83368 -26.11215,-22.31251 -26.11215,-37.8449 0,-15.31445 9.43279,-30.42614 23.63598,-37.86575 5.85329,-3.06595 8.64501,-3.63351 17.81299,-3.62145 12.84147,0.0169 20.12893,2.96253 28.95934,11.70554 19.74817,19.5527 15.0984,52.32061 -9.3074,65.59126 -9.90393,5.38527 -24.39323,6.22811 -34.98876,2.0353 z"
       id="path915"
       transform="translate(544.76561,983.9573)" />
    <path
       style="fill:#000000;stroke:#000000;stroke-width:15.4089;stroke-linecap:round;stroke-miterlimit:4;stroke-dasharray:none"
       d="m 37.585927,123.61355 v -8.83339 H 271.33094 505.07595 v 8.83339 8.83339 H 271.33094 37.585927 Z"
       id="path917"
       transform="translate(544.76561,983.9573)" />
  </g>
  <desc
     id="desc897">FoverA(3string).dxf - scale = 25.400000, origin = (0.000000, 0.000000), method = file</desc>
</svg>
